<?xml version="1.0" encoding="UTF-8"?>
<svg id="_レイヤー_2" data-name="レイヤー 2" xmlns="http://www.w3.org/2000/svg" viewBox="0 0 121.37 215.38">
  <defs>
    <style>
      .cls-1 {
        stroke: #9b9b9b;
      }

      .cls-1, .cls-2, .cls-3 {
        fill: none;
        stroke-width: .65px;
      }

      .cls-4 {
        fill: #363636;
      }

      .cls-4, .cls-5, .cls-6 {
        stroke-width: 0px;
      }

      .cls-5 {
        fill: #e5e5e5;
      }

      .cls-2 {
        stroke: #8e8e8e;
      }

      .cls-3 {
        stroke: #f2f2f2;
      }

      .cls-6 {
        fill: #fff;
      }
    </style>
  </defs>
  <g id="_レイヤー_1-2" data-name="レイヤー 1">
    <g id="_人" data-name="人">
      <g>
        <path class="cls-2" d="M42.67,81.85c.57,1.82-1.32,3.03-2.77,2.13-.51-.31-.98-.51-1.42-.58" vector-effect="non-scaling-stroke"/>
        <path class="cls-1" d="M38.48,83.4c-.34.02-.58.16-.72.4-4.05,7.01-8.34,14.45-12.87,22.3-2.1,3.64-4.27,7.24-6.5,10.79-1.67,2.66-3.51,5.15-5.51,7.48-.23.27-.52.41-.87.44-1.57.12-3.09.51-4.54,1.17-.49.22-.99.62-1.52,1.21-2.23,2.46-2.86,5.32-1.92,8.56" vector-effect="non-scaling-stroke"/>
        <path class="cls-2" d="M4.04,135.75c.35,1.4,1.09,2.55,2.23,3.46,2.04,1.63,6.3,1.3,8.08-.5,1.09-1.11,2.47-2.5,2.67-4.01.16-1.21.7-2.39,1.63-3.54,1.26-1.56,2.46-2.96,3.63-4.21,2.66-2.85,5.35-5.7,8.05-8.55.21-.22.35-.47.42-.77l4.04-17.03" vector-effect="non-scaling-stroke"/>
        <path class="cls-1" d="M34.78,100.61c.17-.66.56-1.11,1.19-1.37.58-.24,1.1-.21,1.56.07,1.09.67,1.08,1.75.79,2.86-2.07,8.02-4.07,15.77-5.17,23.79-1,7.27-1.64,14.44-1.92,21.52-.36,8.98.22,18.58,2.5,27.06.85,3.16,2.12,7.24,3.82,12.26.31.92.71,1.86,1.2,2.82.61,1.2,1.13,2.43,1.55,3.68.18.52.12,1.04-.18,1.56-1.02,1.79-2.3,3.38-3.85,4.77-1.98,1.77-4.31,3.7-5.9,5.91-.69.96-.75,1.92-.16,2.88.95,1.57,2.39,2.49,4.32,2.76,1.17.16,3.84.25,8,.26" vector-effect="non-scaling-stroke"/>
        <path class="cls-2" d="M42.52,211.44c3.48.16,6.77.16,9.87,0,1.02-.05,2.08-.13,3.16-.24,2.49-.23,3.09-5.5,3.07-7.19-.04-6.07,0-12.27.12-18.61.05-2.34.03-5.16-.04-8.46-.08-3.64-.18-7-.31-10.08-.02-.57-.06-1.15-.12-1.77-.14-1.48.18-2.72.95-3.72" vector-effect="non-scaling-stroke"/>
        <path class="cls-1" d="M59.22,161.37c1.03-.35,1.94-.35,2.73,0,1.69.75,1.03,4.23,1,5.67-.11,5.62-.35,11.22-.31,16.8.05,6.7.09,13.38.12,20.05,0,1.86.6,6.95,3.08,7.25,1.98.23,3.96.36,5.95.38,2.13.02,4.27.02,6.41,0" vector-effect="non-scaling-stroke"/>
        <path class="cls-2" d="M78.21,211.51c1.78.03,3.56,0,5.35-.11,2.49-.16,3.81-.25,3.98-.28,1.38-.31,2.54-1.08,3.48-2.32,1.04-1.37.66-2.66-.38-3.87-1.47-1.72-3.15-3.24-4.94-4.81-1.65-1.45-3.35-3.25-4.33-5.15-.74-1.46.28-2.97.82-4.31.03-.07.34-.73.94-1.96.37-.77.7-1.6.99-2.5,1.3-4.02,2.36-7.38,3.16-10.09,1.07-3.63,1.86-7.6,2.36-11.91.12-1.02.3-2.06.33-3.06.03-1.46.26-2.89.3-4.36.08-2.89.08-5.43,0-7.64-.25-7.64-.92-15.35-1.99-23.12-1.07-7.79-2.78-14.43-4.9-22.72-.16-.61-.29-1.21-.41-1.8-.15-.75.15-1.69.8-2.06,1.46-.84,2.5.24,2.84,1.58,1.3,5.08,2.57,10.38,3.81,15.9.19.82.53,1.49,1.04,2.01,3.28,3.38,6.3,6.57,9.03,9.59.73.81,1.47,1.69,2.22,2.66.73.93,1.4,1.96,1.53,3.16.19,1.74,1.74,3.36,2.96,4.57.52.51,1.17.86,1.96,1.04,3.08.72,6.26.33,7.68-2.9,1.81-4.11,1.09-7.65-2.17-10.63-.36-.33-.81-.58-1.34-.76-1.39-.46-2.59-.73-3.6-.8-.63-.05-1.22-.38-1.6-.86-2.93-3.7-5.68-7.76-8.25-12.17-5.43-9.3-10.87-18.68-16.32-28.13-.19-.33-.6-.46-.94-.29-.93.44-1.94,1.25-2.99.78-1.03-.46-1.37-1.83-.69-2.68.31-.38.68-.71,1.12-.99,3.41-2.14,6.76-4.35,10.05-6.61,5.5-3.77,9.32-8.84,11.45-15.21,1.18-3.53,1.9-6.77,2.17-9.69.29-3.27.27-6.36-.07-9.26-.77-6.61-3.18-12.89-7.21-18.82-3.48-5.11-9.17-10.16-14.97-12.55-1.88-.78-4.03-1.51-6.46-2.2-1.96-.56-4.01-1.09-6.13-1.59" vector-effect="non-scaling-stroke"/>
        <path class="cls-1" d="M68.91,4.56c-1.68-.32-2.96-.46-3.82-.43-2.23.07-4.47.09-6.7.04-1.11-.02-2.14,0-3.09.05-1.46.08-2.48.21-3.07.37-2.58.71-5.22,1.52-7.86,2.24-4.96,1.35-9.42,3.82-13.38,7.38-13.24,11.93-17.02,30.61-10.19,46.94,2.36,5.65,6.22,9.91,11.43,13.37,3.29,2.18,6.51,4.29,9.65,6.32.38.25.6.62.81,1.02" vector-effect="non-scaling-stroke"/>
        <path class="cls-3" d="M68.91,4.56c2.52,2.97,4.07,4.86,4.63,5.67,3.09,4.44,5.16,9.35,6.2,14.72,1.39,7.17,1.72,14.3.13,21.44-1.75,7.87-5.58,16.55-9.51,24.46-.89,1.8-1.45,3.31-1.67,4.52-.54,3.02.37,5.75,2.23,8.27,2.14,2.9,3.99,6.29,5.53,10.17,2.12,5.3,3.77,11.19,4.95,17.66,1.55,8.51,2.67,17.56,3.36,27.15.16,2.24.17,4.5.04,6.8-.42,7.12-1.3,14.32-2.64,21.62-1.72,9.37-3.64,18.15-5.78,26.32-.32,1.24.07,2.52,1.28,3.04,3.27,1.4,6.91,4.44,8.29,7.96.47,1.2.23,2.19-.73,2.95-1.43,1.15-3.06,2.14-4.88,3-1.04.49-1.76.89-2.15,1.19" vector-effect="non-scaling-stroke"/>
        <path class="cls-3" d="M59.22,161.37c-1.03-.5-2.02-.15-2.97,1.08-.61.78-1.04,1.65-1.3,2.61-.44,1.62-.7,3.05-.8,4.29-.33,4.01-.42,8.02-.29,12.05.13,4.02.25,8.09.36,12.21.06,2.32.03,4.62-.09,6.9-.1,1.89-.35,5.12-1.74,6.44-.74.7-1.8,1.34-3.18,1.91-2.06.86-4.29,1.72-6.69,2.58" vector-effect="non-scaling-stroke"/>
        <path class="cls-3" d="M34.78,100.61c-2.14,1.64-4.06,3.82-5.78,6.52-3.59,5.65-6.22,12.1-8.27,18.42-.32.99-.83,2.06-1.55,2.82-3.85,4.05-9.74,6.4-15.14,7.37" vector-effect="non-scaling-stroke"/>
        <path class="cls-3" d="M38.48,83.4c.03.24.13.41.29.51,1.17.68,2.55,1.27,4.15,1.79,1.68.54,5.1,1.12,6.33-.11.19-.19.19-.5,0-.7-.04-.04-.08-.07-.13-.09l-6.08-3.09c-.09-.05-.18-.04-.26.04l-.12.11" vector-effect="non-scaling-stroke"/>
      </g>
      <path class="cls-4" d="M57.97,0h5.59c3.31.05,6.55.52,9.7,1.42,2.67.76,5.12,1.7,7.65,2.59,2.65.94,4.95,2.03,7.22,3.56,8.48,5.74,14.33,13.48,17.53,23.24,3.45,10.48,2.69,21.94-1.59,32.05-1.8,4.26-4.37,7.92-7.7,10.92-2.8,2.53-6.05,4.84-9.75,6.95-.18.1-.24.33-.14.5,0,0,0,.02.02.02.42.62.91,1.24,1.26,1.88,5.09,8.98,10.27,17.95,15.53,26.89,2.4,4.08,4.95,7.86,7.66,11.34.17.22.5.41.79.43,5.58.24,9.23,5.36,9.63,10.53v1.33c-.24,2.49-.89,4.53-1.96,6.1-2.92,4.33-7.53,4.7-12.2,3.31-3.58-1.06-6.06-5-6.52-8.43-.03-.26-.18-.49-.4-.62-.46-.28-.86-.6-1.19-.95-2.11-2.24-4.53-4.27-6.6-6.43-.2-.21-.28-.17-.25.12,1.04,7.88,1.65,15.42,1.85,22.63.23,8.41-.46,17.36-2.49,25.46-.5,2-1.13,4.14-1.87,6.41-1.38,4.2-2.75,8.4-4.12,12.62-.11.34-.02.72.23.98,1.33,1.38,2.82,2.79,4.46,4.24,1.37,1.21,2.57,2.48,3.6,3.81,1.2,1.55,1.84,3.29,1.46,5.24-.57,2.87-2.88,5.24-5.53,6.29-1.02.4-2.32.64-3.92.71-6.25.29-12.37.32-18.37.11-2.91-.1-5.32-.75-6.78-3.34-.03-.06-.1-.08-.16-.05-.02.01-.03.03-.05.05-1.61,2.76-4.07,3.24-7.06,3.34-5.74.19-11.64.16-17.7-.1-1.83-.08-3.28-.33-4.35-.74-2.93-1.15-5.52-4.1-5.59-7.36-.05-2.9,2.63-5.71,4.7-7.54,1.75-1.55,3.38-3.09,4.89-4.62.29-.29.39-.72.26-1.12-1.59-4.78-3.25-9.88-4.97-15.3-2.86-9.02-3.75-19.18-3.5-28.75.19-7.48.81-15.12,1.85-22.94.05-.39-.05-.44-.3-.13-.29.35-.6.69-.95,1.02-2.04,1.89-3.93,3.7-5.67,5.43-.49.49-1.44.9-1.54,1.64-.5,3.56-3.08,7.39-6.81,8.41-2.63.71-5.24.99-7.82-.04-2.91-1.16-4.55-3.59-5.44-6.52-1.22-3.99-.51-7.7,2.11-11.14,1.76-2.3,4.08-3.53,6.96-3.68.26-.01.51-.14.67-.34,3.34-4.09,6.19-8.71,8.82-13.2,4.69-8.03,9.41-16.22,14.16-24.56.48-.84,1.01-1.67,1.6-2.47.1-.13.07-.32-.06-.41,0,0-.02-.01-.03-.02-4.63-2.71-9.1-5.86-12.5-9.77-3.28-3.78-5.27-8.16-6.76-13.02-5.49-17.82.54-37.43,15.36-48.73,2.89-2.21,5.48-3.72,7.74-4.55,4.51-1.65,9.01-3.44,13.74-4.24,1.34-.23,3.21-.38,5.59-.46ZM42.67,81.85c.57,1.82-1.32,3.03-2.77,2.13-.51-.31-.98-.51-1.42-.58-.34.02-.58.16-.72.4-4.05,7.01-8.34,14.45-12.87,22.3-2.1,3.64-4.27,7.24-6.5,10.79-1.67,2.66-3.51,5.15-5.51,7.48-.23.27-.52.41-.87.44-1.57.12-3.09.51-4.54,1.17-.49.22-.99.62-1.52,1.21-2.23,2.46-2.86,5.32-1.92,8.56.35,1.4,1.09,2.55,2.23,3.46,2.04,1.63,6.3,1.3,8.08-.5,1.09-1.11,2.47-2.5,2.67-4.01.16-1.21.7-2.39,1.63-3.54,1.26-1.56,2.46-2.96,3.63-4.21,2.66-2.85,5.35-5.7,8.05-8.55.21-.22.35-.47.42-.77l4.04-17.03c.17-.66.56-1.11,1.19-1.37.58-.24,1.1-.21,1.56.07,1.09.67,1.08,1.75.79,2.86-2.07,8.02-4.07,15.77-5.17,23.79-1,7.27-1.64,14.44-1.92,21.52-.36,8.98.22,18.58,2.5,27.06.85,3.16,2.12,7.24,3.82,12.26.31.92.71,1.86,1.2,2.82.61,1.2,1.13,2.43,1.55,3.68.18.52.12,1.04-.18,1.56-1.02,1.79-2.3,3.38-3.85,4.77-1.98,1.77-4.31,3.7-5.9,5.91-.69.96-.75,1.92-.16,2.88.95,1.57,2.39,2.49,4.32,2.76,1.17.16,3.84.25,8,.26,3.48.16,6.77.16,9.87,0,1.02-.05,2.08-.13,3.16-.24,2.49-.23,3.09-5.5,3.07-7.19-.04-6.07,0-12.27.12-18.61.05-2.34.03-5.16-.04-8.46-.08-3.64-.18-7-.31-10.08-.02-.57-.06-1.15-.12-1.77-.14-1.48.18-2.72.95-3.72,1.03-.35,1.94-.35,2.73,0,1.69.75,1.03,4.23,1,5.67-.11,5.62-.35,11.22-.31,16.8.05,6.7.09,13.38.12,20.05,0,1.86.6,6.95,3.08,7.25,1.98.23,3.96.36,5.95.38,2.13.02,4.27.02,6.41,0,1.78.03,3.56,0,5.35-.11,2.49-.16,3.81-.25,3.98-.28,1.38-.31,2.54-1.08,3.48-2.32,1.04-1.37.66-2.66-.38-3.87-1.47-1.72-3.15-3.24-4.94-4.81-1.65-1.45-3.35-3.25-4.33-5.15-.74-1.46.28-2.97.82-4.31.03-.07.34-.73.94-1.96.37-.77.7-1.6.99-2.5,1.3-4.02,2.36-7.38,3.16-10.09,1.07-3.63,1.86-7.6,2.36-11.91.12-1.02.3-2.06.33-3.06.03-1.46.26-2.89.3-4.36.08-2.89.08-5.43,0-7.64-.25-7.64-.92-15.35-1.99-23.12-1.07-7.79-2.78-14.43-4.9-22.72-.16-.61-.29-1.21-.41-1.8-.15-.75.15-1.69.8-2.06,1.46-.84,2.5.24,2.84,1.58,1.3,5.08,2.57,10.38,3.81,15.9.19.82.53,1.49,1.04,2.01,3.28,3.38,6.3,6.57,9.03,9.59.73.81,1.47,1.69,2.22,2.66.73.93,1.4,1.96,1.53,3.16.19,1.74,1.74,3.36,2.96,4.57.52.51,1.17.86,1.96,1.04,3.08.72,6.26.33,7.68-2.9,1.81-4.11,1.09-7.65-2.17-10.63-.36-.33-.81-.58-1.34-.76-1.39-.46-2.59-.73-3.6-.8-.63-.05-1.22-.38-1.6-.86-2.93-3.7-5.68-7.76-8.25-12.17-5.43-9.3-10.87-18.68-16.32-28.13-.19-.33-.6-.46-.94-.29-.93.44-1.94,1.25-2.99.78-1.03-.46-1.37-1.83-.69-2.68.31-.38.68-.71,1.12-.99,3.41-2.14,6.76-4.35,10.05-6.61,5.5-3.77,9.32-8.84,11.45-15.21,1.18-3.53,1.9-6.77,2.17-9.69.29-3.27.27-6.36-.07-9.26-.77-6.61-3.18-12.89-7.21-18.82-3.48-5.11-9.17-10.16-14.97-12.55-1.88-.78-4.03-1.51-6.46-2.2-1.96-.56-4.01-1.09-6.13-1.59-1.68-.32-2.96-.46-3.82-.43-2.23.07-4.47.09-6.7.04-1.11-.02-2.14,0-3.09.05-1.46.08-2.48.21-3.07.37-2.58.71-5.22,1.52-7.86,2.24-4.96,1.35-9.42,3.82-13.38,7.38-13.24,11.93-17.02,30.61-10.19,46.94,2.36,5.65,6.22,9.91,11.43,13.37,3.29,2.18,6.51,4.29,9.65,6.32.38.25.6.62.81,1.02Z"/>
      <path class="cls-6" d="M68.91,4.56c2.52,2.97,4.07,4.86,4.63,5.67,3.09,4.44,5.16,9.35,6.2,14.72,1.39,7.17,1.72,14.3.13,21.44-1.75,7.87-5.58,16.55-9.51,24.46-.89,1.8-1.45,3.31-1.67,4.52-.54,3.02.37,5.75,2.23,8.27,2.14,2.9,3.99,6.29,5.53,10.17,2.12,5.3,3.77,11.19,4.95,17.66,1.55,8.51,2.67,17.56,3.36,27.15.16,2.24.17,4.5.04,6.8-.42,7.12-1.3,14.32-2.64,21.62-1.72,9.37-3.64,18.15-5.78,26.32-.32,1.24.07,2.52,1.28,3.04,3.27,1.4,6.91,4.44,8.29,7.96.47,1.2.23,2.19-.73,2.95-1.43,1.15-3.06,2.14-4.88,3-1.04.49-1.76.89-2.15,1.19-2.14.03-4.28.03-6.41,0-1.99-.02-3.97-.15-5.95-.38-2.48-.29-3.07-5.39-3.08-7.25-.03-6.67-.07-13.35-.12-20.05-.04-5.58.2-11.19.31-16.8.03-1.44.69-4.92-1-5.67-.79-.35-1.7-.35-2.73,0-1.03-.5-2.02-.15-2.97,1.08-.61.78-1.04,1.65-1.3,2.61-.44,1.62-.7,3.05-.8,4.29-.33,4.01-.42,8.02-.29,12.05.13,4.02.25,8.09.36,12.21.06,2.32.03,4.62-.09,6.9-.1,1.89-.35,5.12-1.74,6.44-.74.7-1.8,1.34-3.18,1.91-2.06.86-4.29,1.72-6.69,2.58-4.16-.01-6.83-.1-8-.26-1.93-.27-3.37-1.18-4.32-2.76-.58-.96-.53-1.92.16-2.88,1.59-2.21,3.92-4.14,5.9-5.91,1.55-1.38,2.83-2.97,3.85-4.77.3-.52.35-1.04.18-1.56-.42-1.26-.93-2.49-1.55-3.68-.49-.96-.89-1.9-1.2-2.82-1.7-5.02-2.97-9.1-3.82-12.26-2.28-8.48-2.86-18.08-2.5-27.06.28-7.08.92-14.26,1.92-21.52,1.1-8.02,3.1-15.77,5.17-23.79.29-1.11.3-2.19-.79-2.86-.46-.28-.98-.31-1.56-.07-.63.25-1.02.71-1.19,1.37-2.14,1.64-4.06,3.82-5.78,6.52-3.59,5.65-6.22,12.1-8.27,18.42-.32.99-.83,2.06-1.55,2.82-3.85,4.05-9.74,6.4-15.14,7.37-.95-3.24-.31-6.09,1.92-8.56.53-.58,1.04-.99,1.52-1.21,1.45-.66,2.97-1.04,4.54-1.17.35-.03.64-.17.87-.44,2-2.32,3.84-4.82,5.51-7.48,2.24-3.55,4.4-7.15,6.5-10.79,4.53-7.86,8.82-15.29,12.87-22.3.14-.25.38-.38.72-.4.03.24.13.41.29.51,1.17.68,2.55,1.27,4.15,1.79,1.68.54,5.1,1.12,6.33-.11.19-.19.19-.5,0-.7-.04-.04-.08-.07-.13-.09l-6.08-3.09c-.09-.05-.18-.04-.26.04l-.12.11c-.2-.39-.42-.77-.81-1.02-3.14-2.03-6.36-4.14-9.65-6.32-5.21-3.45-9.07-7.72-11.43-13.37-6.83-16.34-3.05-35.01,10.19-46.94,3.96-3.57,8.42-6.03,13.38-7.38,2.64-.72,5.28-1.52,7.86-2.24.58-.16,1.61-.28,3.07-.37.94-.05,1.97-.07,3.09-.05,2.23.04,4.47.03,6.7-.04.86-.03,2.14.12,3.82.43Z"/>
      <path class="cls-5" d="M68.91,4.56c2.12.5,4.17,1.02,6.13,1.59,2.42.69,4.57,1.43,6.46,2.2,5.8,2.4,11.49,7.44,14.97,12.55,4.03,5.93,6.44,12.2,7.21,18.82.34,2.91.37,6,.07,9.26-.26,2.93-.99,6.16-2.17,9.69-2.13,6.37-5.95,11.44-11.45,15.21-3.3,2.26-6.65,4.46-10.05,6.61-.44.28-.81.61-1.12.99-.68.84-.34,2.22.69,2.68,1.05.47,2.06-.34,2.99-.78.34-.16.75-.03.94.29,5.45,9.46,10.89,18.83,16.32,28.13,2.57,4.41,5.32,8.47,8.25,12.17.38.49.97.82,1.6.86,1.01.07,2.21.34,3.6.8.53.18.98.43,1.34.76,3.25,2.98,3.98,6.52,2.17,10.63-1.42,3.23-4.6,3.63-7.68,2.9-.79-.19-1.45-.53-1.96-1.04-1.22-1.2-2.77-2.82-2.96-4.57-.13-1.2-.81-2.23-1.53-3.16-.75-.96-1.49-1.85-2.22-2.66-2.74-3.01-5.75-6.21-9.03-9.59-.5-.52-.85-1.19-1.04-2.01-1.24-5.52-2.51-10.82-3.81-15.9-.34-1.34-1.38-2.42-2.84-1.58-.65.38-.95,1.31-.8,2.06.11.58.25,1.18.41,1.8,2.13,8.29,3.83,14.94,4.9,22.72,1.07,7.78,1.73,15.48,1.99,23.12.08,2.21.07,4.76,0,7.64-.04,1.47-.27,2.9-.3,4.36-.02,1-.21,2.04-.33,3.06-.5,4.32-1.29,8.29-2.36,11.91-.8,2.71-1.86,6.07-3.16,10.09-.29.9-.62,1.73-.99,2.5-.6,1.23-.91,1.88-.94,1.96-.54,1.34-1.57,2.86-.82,4.31.97,1.9,2.68,3.7,4.33,5.15,1.79,1.57,3.46,3.09,4.94,4.81,1.04,1.21,1.42,2.5.38,3.87-.94,1.24-2.1,2.01-3.48,2.32-.16.03-1.49.13-3.98.28-1.78.11-3.57.15-5.35.11.39-.3,1.11-.7,2.15-1.19,1.82-.85,3.44-1.85,4.88-3,.96-.77,1.2-1.75.73-2.95-1.38-3.52-5.02-6.56-8.29-7.96-1.21-.52-1.61-1.8-1.28-3.04,2.14-8.18,4.06-16.95,5.78-26.32,1.33-7.29,2.21-14.5,2.64-21.62.14-2.29.13-4.56-.04-6.8-.69-9.59-1.81-18.64-3.36-27.15-1.18-6.48-2.83-12.36-4.95-17.66-1.55-3.88-3.39-7.26-5.53-10.17-1.86-2.52-2.78-5.25-2.23-8.27.22-1.22.77-2.72,1.67-4.52,3.93-7.91,7.76-16.59,9.51-24.46,1.59-7.13,1.26-14.26-.13-21.44-1.04-5.37-3.11-10.27-6.2-14.72-.57-.82-2.11-2.71-4.63-5.67Z"/>
      <path class="cls-5" d="M38.48,83.4c.44.07.92.26,1.42.58,1.45.9,3.34-.3,2.77-2.13l.12-.11c.08-.07.17-.08.26-.04l6.08,3.09c.24.12.34.42.22.66-.02.05-.05.09-.09.13-1.23,1.23-4.65.65-6.33.11-1.6-.52-2.98-1.11-4.15-1.79-.16-.09-.26-.26-.29-.51Z"/>
      <path class="cls-5" d="M34.78,100.61l-4.04,17.03c-.07.29-.21.55-.42.77-2.71,2.85-5.39,5.7-8.05,8.55-1.16,1.24-2.37,2.65-3.63,4.21-.93,1.15-1.47,2.33-1.63,3.54-.2,1.51-1.58,2.9-2.67,4.01-1.78,1.81-6.04,2.13-8.08.5-1.14-.91-1.88-2.07-2.23-3.46,5.4-.97,11.29-3.32,15.14-7.37.72-.76,1.23-1.83,1.55-2.82,2.05-6.32,4.68-12.77,8.27-18.42,1.72-2.71,3.65-4.88,5.78-6.52Z"/>
      <path class="cls-5" d="M59.22,161.37c-.77,1-1.09,2.24-.95,3.72.06.61.1,1.2.12,1.77.13,3.08.24,6.44.31,10.08.07,3.3.08,6.12.04,8.46-.12,6.34-.16,12.55-.12,18.61.01,1.69-.58,6.96-3.07,7.19-1.08.1-2.14.18-3.16.24-3.1.16-6.39.16-9.87,0,2.4-.86,4.63-1.72,6.69-2.58,1.38-.57,2.44-1.21,3.18-1.91,1.4-1.32,1.64-4.55,1.74-6.44.13-2.29.16-4.59.09-6.9-.11-4.12-.23-8.19-.36-12.21-.13-4.02-.03-8.04.29-12.05.1-1.24.37-2.67.8-4.29.26-.96.69-1.83,1.3-2.61.95-1.22,1.94-1.58,2.97-1.08Z"/>
    </g>
  </g>
</svg>