<?xml version="1.0" encoding="UTF-8"?>
<svg id="_レイヤー_2" data-name="レイヤー 2" xmlns="http://www.w3.org/2000/svg" viewBox="0 0 228.87 270.03">
  <defs>
    <style>
      .cls-1 {
        fill: #73c90d;
      }

      .cls-1, .cls-2, .cls-3, .cls-4 {
        stroke-width: 0px;
      }

      .cls-5 {
        stroke: #8fd51f;
      }

      .cls-5, .cls-6, .cls-7, .cls-8, .cls-9 {
        fill: none;
        stroke-width: 2.01px;
      }

      .cls-6 {
        stroke: #a9ab1d;
      }

      .cls-2 {
        fill: #88d21b;
      }

      .cls-7 {
        stroke: #7ece15;
      }

      .cls-3 {
        fill: #aedf31;
      }

      .cls-4 {
        fill: #afaf8c;
      }

      .cls-8 {
        stroke: #b6ad2d;
      }

      .cls-9 {
        stroke: #9bd925;
      }
    </style>
  </defs>
  <g id="_レイヤー_1-2" data-name="レイヤー 1">
    <g id="_木後ろ" data-name="木後ろ">
      <path class="cls-9" d="M136.85,4.18c-.89,1.42-1.99,2.21-3.31,2.35-.34.03-.63.16-.87.37-.82.69-1.27,1.59-1.36,2.7-.03.36.12.61.43.77,2.39,1.24,4.72,2.85,7.01,4.84,1.05.92,1.77,2.04,2.16,3.36.54,1.85.94,3.66,1.21,5.44.05.34.25.5.58.5h6.99c.36,0,.59.17.67.52.15.54.28,1.08.41,1.61.19.8.06,1.44-.41,1.93-.46.49-1.04.72-1.74.7-.35-.01-.68-.16-.92-.42-1.51-1.61-3.27-2.14-5.28-1.6-.46.13-.73.6-.61,1.06.04.16.13.3.25.41.32.3.67.59,1.06.85.95.67,1.79.29,2.67,1.39.29.37.44.88.42,1.54-.08,4.25-.22,8.24-.42,11.98-.05,1.09-.55,1.75-1.5,1.98-.66.16-1.36.04-2.12-.37-1.39-.75-2.73-1.68-4-2.77-.46-.39-.56-1.06-.23-1.56.66-1.03,1.58-1.9,2.73-2.62.4-.25.54-.61.43-1.07l-1.08-4.33c-.09-.38-.41-.67-.79-.72-.39-.06-.73,0-1.02.17-.7.41-.9.99-.6,1.74.38.95.25,2.02-.36,3.24-.84,1.65-1.85,2.98-3.04,4-.72.62-1.8.54-2.42-.18-.11-.13-.2-.27-.26-.42-.58-1.29-1.32-2.57-2.23-3.84-.58-.81-.77-1.59-.57-2.33,1.02-3.79,2.13-7.31,3.35-10.54.41-1.09,1.62-1.64,2.7-1.23.29.11.56.28.77.51.6.62,1.3,1.07,2.1,1.37.57.2.84,0,.82-.6-.05-1.12-.62-1.91-1.71-2.37-1.74-.74-3.85-.82-6.33-.25-.68.15-1.31.4-1.9.72-.63.36-1.27.69-1.91,1.01-.86.42-1.79.56-2.8.44-1.78-.21-3.47-.57-5.06-1.06-.71-.22-1.47.18-1.68.89-.03.09-.05.18-.05.28l-.19,2.14c-.01.16-.07.31-.17.44-.61.8-.8,1.64-.57,2.53.12.49-.04,1-.41,1.34-.75.67-1.25,1.51-1.49,2.52-.13.55-.68.88-1.22.75-.29-.07-.53-.26-.67-.52-.76-1.53-1.09-3.07-.99-4.61.13-1.83-.6-3.53-2.17-5.11-.22-.22-.49-.36-.79-.4-1.15-.17-2.1-.14-2.88.11-1.55.51-3.02,1.12-4.64.5-1.47-.55-2.76-.35-3.88.6-.3.25-.52.59-.62.97-.4,1.44-1.22,2.32-2.45,2.63-1.7.44-3.73.72-6.09.85-.35.02-.58.19-.69.52-.11.33-.12.68-.01,1.07" vector-effect="non-scaling-stroke"/>
      <path class="cls-7" d="M87.07,30.91c-1.7-.53-3.09-1.35-4.19-2.47" vector-effect="non-scaling-stroke"/>
      <path class="cls-9" d="M154.87,34.93l-.03.81c0,.2.09.3.3.31.11,0,.23.01.34.04.19.05.36.15.48.31,1.57,1.91,3.5,3.05,5.8,3.42.46.07.72.34.78.79l.04.32c.05.34-.1.5-.43.49l-9.2-.14c-.41,0-.75.32-.75.73,0,.09.01.17.04.25.49,1.41.44,2.67-.16,3.78-.34.62-.64,1.28-.89,1.98-.66,1.8-1.82,3.35-3.48,4.66-.25.21-.54.26-.86.17-1.09-.3-1.75-.98-1.98-2.03-.07-.34-.28-.47-.61-.39-.27.05-.54.14-.79.27-1.73.83-3.34.48-4.21-1.33-1.31-2.68-3.49-3.84-6.54-3.49-2.16.25-4.17-.56-6-2.43-.98-1-2.14-1.49-3.49-1.47-.33,0-.61.23-.68.55-.48,2.09.23,3.56,2.11,4.4.92.42,1.89.82,2.9,1.22,1.27.51,1.83,1.46,1.69,2.87-.03.33.04.63.23.9.34.5.49,1.08.45,1.73-.01.27-.15.38-.42.32-.09-.02-.17,0-.24.07-.24.21-.46.19-.65-.06-1.11-1.48-2.51-2.22-4.18-2.2-.41,0-.81.18-1.09.49-2.04,2.34-4.84,3.5-8.4,3.48-.4,0-.74.14-1.03.43-.91.94-1.97,1.73-3.17,2.36-.76.4-1.27,1.37-1.55,2.92-.19,1.07-.51,2.11-.93,3.13-.46,1.11-.74,2.27-.83,3.48-.04.69.45,1.29,1.13,1.38l5.16.66c.43.06.72-.12.87-.53,1.09-2.96,2.41-5.18,3.94-6.66,1.14-1.11,2.36-1.12,3.66-.03.25.2.53.35.84.43,2.35.66,4.44.61,6.27-.15,1.91-.79,3.9-.68,5.98.34.3.14.54.39.68.69,1.36,2.89,1.88,5.94,1.55,9.17-.05.42-.19.81-.42,1.16-.61.89-.89,1.82-.85,2.79.02.5.28.72.78.66,1.35-.15,2.53.14,3.55.87.35.25.84.17,1.09-.18.11-.15.16-.34.14-.53-.13-1.25,0-2.43.4-3.54.4-1.1,1.65-1.22,3.75-.35.42.17.63.03.63-.42v-.42c0-.21-.11-.41-.29-.52l-3.07-1.94c-.28-.17-.43-.43-.43-.76,0-.29.09-.54.26-.76.19-.22.49-.37.9-.43.29-.05.59-.06.88-.01.54.08,1.04-.29,1.12-.83.03-.23-.01-.46-.13-.66-1.28-2.07-.09-2.88.86-4.42.17-.28.43-.43.76-.43,1.41-.03,2.77.26,4.08.85.3.14.62.2.95.19,1.74-.05,3.38.56,4.85.41,1.88-.19,3.55-.86,5.02-2.01,1.63-1.27,2.65-1.6,4.54-.98.32.1.64.13.97.08,1.73-.27,3.09-.69,4.81-.03,1.64.63,3.16,1.34,4.56,2.12.53.29.89.82.96,1.43.15,1.41-.51,2.18-1.99,2.3-.93.07-1.72-.16-2.36-.7-1.23-1.03-2.58-1.8-4.06-2.31-.96-.34-2.01.16-2.35,1.12-.07.19-.1.39-.11.59-.01,1.44-.52,2.71-1.52,3.81-.24.26-.36.57-.36.93v3.21c0,.36-.11.68-.32.97-.39.54-.62,1.21-.69,2.01-.37,3.94-.21,7.64.47,11.1.33,1.64.13,2.93-.6,3.87-.22.28-.57.44-.92.43l-12.19-.24c-.29,0-.57-.08-.82-.22-2.45-1.39-5.22-2.04-8.33-1.97-.32,0-.6-.1-.83-.31-.97-.88-2.12-1.38-3.44-1.49-.32-.03-.6.05-.84.24l-2.99,2.23c-.86.64-2.09.47-2.73-.4-.02-.03-.04-.05-.05-.08l-1.44-2.15c-.19-.29-.5-.48-.85-.52l-3.23-.41c-.62-.08-1.15-.52-1.34-1.12-.51-1.61-1.46-2.87-2.86-3.77-.87-.56-1.99-.49-2.78.16-2.55,2.1-4.48,2.03-7.63,2.24-.34.03-.63.15-.88.36-1.27,1.09-2.7,1.85-4.31,2.3-1.67.45-1.65,1.87-3.44,2.11-1.29.17-2.08-.4-2.37-1.71-.61-2.83-1.38-5.74-4.87-6.09-1-.1-1.79-.88-1.9-1.88-.16-1.46.22-2.94,1.15-4.42.64-1.03,1.58-1.63,2.84-1.81.35-.05.65-.2.9-.45l5.97-5.91c.82-.81,1.07-1.77.74-2.88l-2.03-6.96" vector-effect="non-scaling-stroke"/>
      <path class="cls-5" d="M102.78,56.93c.12-2.87.33-4.66.62-5.39,1.25-3.1,3.08-5.81,5.48-8.11.25-.23.55-.35.89-.34l1.74.06c.8.03,1.47-.6,1.5-1.39,0-.18-.02-.35-.08-.52-.38-1.09-.76-2.13-1.15-3.15-.35-.9-.95-1.81-1.8-2.73-1.19-1.29-2.34-2.63-3.45-4.01-.21-.26-.33-.56-.36-.88-.11-1.05-.49-2-1.14-2.85-.21-.27-.49-.4-.83-.36-.98.08-1.75.57-2.32,1.47-.47.75-1.25,1.25-2.13,1.35-3.57.42-6.88,1.4-9.93,2.94-.3.15-.6.14-.9-.01-.84-.44-1.46-1.13-1.84-2.08" vector-effect="non-scaling-stroke"/>
      <path class="cls-7" d="M102.78,56.93c-.21,1.74.03,3.39.72,4.94.66,1.46.91,2.56.75,3.31-.14.66-.54,1.09-1.19,1.29l-2.4.71c-.39.12-.8-.11-.91-.49-.04-.12-.04-.25-.01-.37l1.41-6.67c.18-.86-.33-1.71-1.17-1.96-1.73-.52-2.84,1.12-3.99,2.1-1,.84-2.08.58-2.91,1.98-.87,1.46-1.3,3.05-1.28,4.77,0,.33-.11.61-.35.83l-2.72,2.53c-.49.45-1.25.42-1.71-.07-.09-.09-.16-.2-.21-.31l-2.11-4.58c-.13-.28-.17-.57-.13-.87.08-.6.22-1.08.41-1.44.52-.98.14-2.19-.84-2.7-.1-.05-.2-.1-.31-.13-1.33-.44-2.26-.32-2.77.36-.27.36-.36,1-.25,1.94.07.67.11,1.35.1,2.05,0,.37-.16.64-.48.82-.28.16-.57.29-.87.38-1.84.54-1.87,1.19-.11,1.97.43.19.83.42,1.21.69.24.18.4.37.47.57.09.23.11.47.07.7-.06.34-.26.49-.6.45-1.98-.21-2.96.71-2.94,2.74,0,1.23-.98,2.24-2.22,2.25-.27,0-.53-.04-.78-.13l-2.82-1.04c-.62-.23-.94-.91-.72-1.53.04-.11.1-.22.17-.32,1.17-1.53,1.64-3.45,1.4-5.73-.07-.72-.26-1.39-.57-1.99-.36-.7-.58-1.45-.66-2.26-.03-.32-.18-.58-.43-.78-.29-.23-.52-.54-.7-.9-.14-.29-.37-.46-.69-.48-1.26-.11-2.5.08-3.73.56-1.47.58-2.66.87-3.56.87-1.77.01-3.48-.01-5.13-.07-.21,0-.43.07-.65.24-.26.19-.55.28-.87.27-.8-.01-1.49.21-2.08.67-.27.21-.44.48-.5.81l-.67,3.31c-.15.75.12,1.52.71,2,1.28,1.03,2.26.91,2.94-.35.17-.32.42-.53.75-.64,1.64-.57,3.21-1.46,4.72-2.67.27-.22.59-.33.93-.33h2.21c.39,0,.66.18.81.53l1.47,3.41c.14.34.38.58.7.74.64.31.77.88.39,1.72-.52,1.15-1.41,1.7-2.69,1.66-.29,0-.55.07-.77.24-1.19.87-2.56,1.05-4.12.53-1.35-.44-2.62-.9-3.83-1.39-1.09-.44-2.03-.21-2.81.66-.52.59-1.43.64-2.02.12-.22-.19-.37-.44-.44-.72-.33-1.3-.44-2.43-1.52-3.29-.9-.72-1.96-1-3.2-.84-1.97.24-3.95.53-5.93.87-.54.09-1.31.66-2.32,1.7-.23.25-.52.33-.85.24l-4.76-1.29" vector-effect="non-scaling-stroke"/>
      <path class="cls-9" d="M178.52,39.31l-1.2,2.62c-.17.38-.23.77-.2,1.19l.56,7.14c.03.32.16.62.38.86,1.1,1.2,1.85,2.69,2.26,4.47.07.29.2.56.4.78.82.96,1.15,2.06,1.01,3.32-.22,1.88.44,3.01,1.97,3.38,1.26.29,2.32.87,3.61.9,1.37.03,2.78.27,4.25.72,1,.3,1.64.01,1.91-.86.09-.31.3-.45.62-.42l1.62.13c.32.03.57.17.74.44.21.3.47.48.79.52.31.04.51-.09.59-.39.09-.32.35-.53.76-.65" vector-effect="non-scaling-stroke"/>
      <path class="cls-9" d="M196.96,73.84c-.36-.12-.73.07-1.12.57-.2.27-.46.44-.78.51-.62.15-1.25.25-1.89.31-.58.05-1.21-.04-1.9-.28-1.84-.66-3.86-1.16-6.06-1.51-.93-.15-1.86.31-2.3,1.15l-2.45,4.65c-.17.32-.2.65-.11,1,.16.58.52.98,1.07,1.18.56.21,1.2.13,1.93-.24.82-.42,1.55-.94,2.21-1.57.25-.23.54-.35.88-.34l3.76.1c.33,0,.6.14.8.39.59.73.85,1.45.78,2.15-.16,1.77.91,3.37,2,4.72.43.54.9.58,1.41.12.41-.36.88-.74,1.42-1.15.27-.21.52-.32.76-.34.42-.04.7.1.84.43,1.04.21,2.12.25,3.25.14" vector-effect="non-scaling-stroke"/>
      <path class="cls-7" d="M198.32,95.89c-1.6,1.72-3.38,3.29-5.33,4.71-.5.36-1.35.78-2.56,1.25-1,.38-1.82.91-2.46,1.58" vector-effect="non-scaling-stroke"/>
      <path class="cls-9" d="M187.96,103.42c-.09-1.99-.93-4.06-2.51-6.21-.58-.8-1.29-1.39-2.13-1.78-.48-.23-1.06-.02-1.28.47-.08.16-.1.34-.08.52.21,1.75.37,3.58.46,5.49.09,1.93-.6,2.99-2.07,3.19-4.08.52-7.94,1.35-11.6,2.49-.43.13-.76.47-.87.9-.25.94-.59,1.9-1.01,2.9-.29.71-.42,1.37-.4,1.97.05,1.02.6,1.63,1.66,1.83,2.65.5,4.79,1.34,6.4,2.5.59.42.73,1.25.3,1.84-.11.16-.26.29-.43.38-3.38,1.88-7.35.83-10.51-1.01-1.17-.68-2.49-1.13-3.95-1.35-.31-.05-.58.03-.82.22-1.11.92-2.09,2.12-2.93,3.61-.51.9-1.26,1.41-2.25,1.55-.98.13-1.9.37-2.76.69-6.86,2.61-13.11,1.16-18.75-4.33-.24-.23-.53-.39-.85-.45-3.28-.72-6.12-2.55-8.5-5.5-.62-.78-.94-1.66-.96-2.63,0-.46.22-.69.68-.69.91-.01,1.51.4,1.79,1.25.1.32.28.57.55.76,1.09.8,2.39,2.36,3.64,2.75.4.13.81.27,1.24.42.59.21,1.21.34,1.86.38,1.47.11,2.92.21,4.36.32,1,.08,1.78.91,1.79,1.91.04,2.33,1.92,2.98,3.89,2.93.93-.03,1.7.08,2.29.31,2.46.99,5.24.56,6.15-1.92.16-.43.38-.83.66-1.22.2-.27.3-.57.31-.89.03-.71.27-1.33.72-1.87.22-.25.5-.39.82-.43,1.33-.17,2.04-.5,2.55-1.85.27-.7.55-1.41.83-2.11.13-.32.36-.53.68-.61,1.94-.54,3.51-.05,4.71,1.48.27.36.56.36.84.01.8-.98,1.05-1.94.74-2.88-.17-.52-.54-.81-1.09-.85-2.83-.24-5.13-1.39-6.9-3.46-.27-.33-.26-.81.03-1.12,1.34-1.42,2.31-3.31,4.71-2.98.89.13,1.8.17,2.72.13,1.33-.06,2.7.26,4.09.96.29.15.6.2.92.16l4.02-.5c1.19-.14,2.01-.77,2.46-1.89.22-.55.36-1.12.41-1.71.12-1.37-.47-1.83-1.78-1.38-2.12.74-4.07.81-5.86.22-.97-.32-2.02-.48-3.16-.47-1.44,0-2.93.03-4.45.06-.37,0-.69.13-.98.38l-1.97,1.76c-.23.21-.5.33-.8.35-1.1.11-1.82.71-2.16,1.78-.1.32-.1.65-.01.98.17.62.22,1.26.13,1.92-.04.35-.23.58-.56.69-1.41.47-2.46-.01-3.15-1.45-1.05-2.22-1.5-4.57-3.29-6.35-.2-.2-.54-.2-.74,0-.06.06-.1.13-.13.2-.57,1.71.28,3.31.3,4.8.03,2.35.1,4.71.23,7.06.12,2.43-.54,4.74-.8,7.15-.08.68-.69,1.17-1.37,1.09-.2-.02-.39-.09-.55-.2-1.81-1.23-3.41-2.75-4.82-4.57-.21-.27-.26-.57-.17-.89.21-.7.56-1.18,1.07-1.45,1.4-.72,1.33-1.75,1.39-3.09.08-1.98.02-3.45-.19-4.42-.12-.55-.6-.94-1.16-.95l-2.42-.05c-.75,0-1.36.59-1.37,1.33,0,.16.02.32.08.47.64,1.82.64,3.42-.02,4.82-.45.93-.97,1.84-1.56,2.72-.36.53-1.07.67-1.6.32-.18-.12-.32-.28-.41-.48-.32-.72-.75-1.36-1.28-1.92-1.26-1.33-2.55-2.52-3.88-3.58-1.06-.84-1.48-2-2.2-3.12-.64-.99-.8-2.33-1.93-3.25-.26-.21-.56-.32-.9-.34-1.29-.07-2.03-.7-2.2-1.89-.05-.34.03-.64.23-.91.47-.64.73-1.32.77-2.06.05-.6-.16-1.11-.62-1.51-.58-.52-1.29-.78-2.11-.78-.66,0-1.01.33-1.05.99-.1,1.61.23,2.8-.47,4.33-.77,1.67-1.51,3.36-2.21,5.07-.26.62-.75,1.11-1.37,1.36-1.58.64-2.57,1.79-2.98,3.46-.15.64.07,1.31.58,1.74l1.77,1.45c.23.19.49.32.78.39.36.09.67.25.92.5.33.32.46.76.38,1.33-.15,1.09-.62,2.03-1.41,2.83-.65.67-1.72.67-2.39.02-.18-.17-.31-.39-.4-.62l-4.37-11.8c-.31-.86-.98-1.54-1.83-1.87-2.08-.83-4.03-1.92-5.84-3.28-.44-.32-.88-.32-1.31.01-.62.48-1.15,1.22-1.59,2.24-.4.92-1.43,1.39-2.38,1.09-4.48-1.41-8.76-1.11-12.86.92" vector-effect="non-scaling-stroke"/>
      <path class="cls-7" d="M80.22,100.61c1.21-1.27,2.59-2,4.15-2.19,2.03-.26,5.63-.28,7.79.61.67.27,1.35.38,2.03.3.36-.04.67-.26.82-.58l1.74-3.72c.15-.34.09-.63-.18-.87l-2.47-2.23c-.31-.28-.5-.66-.56-1.08-.19-1.4-.58-2.65-1.16-3.76-.66-1.27-2-2.05-3.44-2-3.85.14-7.79-.38-11.82-1.55-.84-.24-1.59-.66-2.22-1.26-.62-.58-1.56-.65-2.25-.15-1.86,1.35-3.94,3.33-6.39,1.63-1.07-.73-1.62-1.11-1.66-1.14-1.21-.63-2.49-1.3-3.84-2.02-.29-.16-.52-.39-.68-.67-.77-1.36-1.89-2.28-3.36-2.74-.34-.11-.67-.07-.98.11-3.28,1.93-4.91,1.2-8.09,1.47-.33.03-.6.17-.82.42-1.46,1.63-2.38,1.66-4.54,1.36-.75-.11-1.39.18-1.93.87-.21.26-.48.37-.8.31-.37-.06-.69-.22-.97-.48-.79-.76-.44-1.74-1.26-2.49-.38-.35-.5-.77-.36-1.27.33-1.21-.08-2.05-1.22-2.5-.59-.24-1.21-.24-1.86,0-.52.19-.98.1-1.38-.28-.41-.39-.92-.67-1.55-.84" vector-effect="non-scaling-stroke"/>
      <path class="cls-7" d="M208.05,102.95c-1.19.93-1.61,2.03-1.25,3.3,0,.02.32.55.92,1.59.43.73.36,1.5-.21,2.3-.9,1.27-.88,2.36.07,3.25.22.2.38.45.46.73.57,1.88,1.42,3.6,2.56,5.18.54.74.72,1.41.56,2.01-.17.62.14,1.27.72,1.53,1.29.57,2.61,1.12,3.98,1.64,1.18.45,2.03.02,2.54-1.28.5-1.25.38-2.43-.36-3.56-.6-.92-.5-1.9.3-2.95.26-.35.4-.78.38-1.22-.03-.76-.23-1.43-.6-1.99-.18-.27-.25-.6-.19-.91l.48-2.52" vector-effect="non-scaling-stroke"/>
      <path class="cls-7" d="M223.48,133.01c-1.44,2.7-3.59,3.05-6.45,1.05-.44-.31-.93-.46-1.47-.46-.3,0-.58-.16-.74-.41-.38-.59-.86-1.06-1.44-1.4-.47-.28-1.07-.12-1.35.34-.02.03-.03.06-.05.09l-3.17,6.77c-.16.34-.18.69-.06,1.06.48,1.41,1.43,2.13,2.86,2.16.39,0,.73-.12,1.02-.37,1.41-1.21,3.03-1.87,4.87-1.99.37-.03.67.1.91.37.5.57.77,1.23.81,1.97.01.33.1.64.27.93.71,1.27,1.2,2.59,1.48,3.98.01.07.04.14.09.2.68.89,1.31,1.42,1.9,1.59.36.1.57-.03.65-.38.18-.77.22-1.5.12-2.2-.08-.57.31-1.1.89-1.19.14-.02.27-.01.41.02l3.6.9" vector-effect="non-scaling-stroke"/>
      <path class="cls-6" d="M169.1,180.79c-1.07-.92-2.29-1.6-3.67-2.03" vector-effect="non-scaling-stroke"/>
      <path class="cls-7" d="M181.65,155.88l1.27-5.49c.08-.32.27-.42.57-.29,1.37.56,2.95.92,4.72,1.09,1.82.18,3.54-.24,5.16-1.27.59-.38.82-1.12.56-1.77-.82-2.08-.07-4.68-.17-6.5-.07-1.43-.16-2.82-.26-4.16-.06-.9.13-1.62.58-2.17.19-.23.28-.52.26-.81-.09-1.75.24-3.44,1.02-5.08.38-.79.64-1.45.78-1.97.19-.68.41-1.36.63-2.05.1-.32.32-.52.65-.58,2.13-.45,4.17.25,6.1,2.1.56.54,1.45.53,1.99-.03.28-.29.43-.69.39-1.1-.07-.87-.58-1.53-1.55-1.98-2.48-1.16-4.8-1.47-6.97-.95-.29.07-.58.03-.84-.12-.65-.38-1.39-.54-2.22-.5-.34.01-.63.14-.87.38l-2.28,2.32c-.19.19-.45.31-.73.33-.71.05-1.26.61-1.66,1.66-.37.98-.67,1.98-.9,3.01-.25,1.11-.62,2.07-1.11,2.89-.6,1.03-1.28,1.99-2.04,2.91-.46.55-1.25.67-1.85.27-.52-.34-1.01-.72-1.45-1.15-.13-.13-.21-.28-.22-.47-.08-1.05-.44-1.97-1.08-2.77-.21-.25-.33-.54-.37-.86l-1.28-9.62" vector-effect="non-scaling-stroke"/>
      <path class="cls-5" d="M187.96,103.42c-.86,4.91-2.62,8.98-5.29,12.22-.75.91-1.84,1.78-3.26,2.61-1.21.71-1.55,1.62-.93,2.88" vector-effect="non-scaling-stroke"/>
      <path class="cls-9" d="M178.48,121.12c-.03.95.18,2.38.63,4.3.48,2.06-.5,4.04-.59,6.12-.06,1.35-.59,2.51-1.59,3.49-.94.93-.99,2.43-.1,3.41,2.01,2.21,3.54,4.91,4.59,8.11.96,2.9,1.03,6,.22,9.32" vector-effect="non-scaling-stroke"/>
      <path class="cls-5" d="M181.65,155.88c-.36,1.63-.77,3.28-1.26,4.95-.27.95-.62,1.77-1.06,2.47-.63,1.02-1.2,1.72-1.72,2.1-2.55,1.9-5.05,3.67-7.48,5.31-.83.56-1.74,1.01-2.72,1.35-.34.11-.57.33-.7.65-.8,2-1.23,4.01-1.28,6.05" vector-effect="non-scaling-stroke"/>
      <path class="cls-8" d="M165.43,178.76c-1.43,2.86-2.44,4.72-3.05,5.57-2.58,3.6-6.21,6.13-10.89,7.58" vector-effect="non-scaling-stroke"/>
      <path class="cls-8" d="M136.21,190.23l-1.44-.87c-.27-.16-.62-.13-.86.07-2.61,2.15-4.86,3.97-6.73,5.45-2.43,1.92-5.61,2.9-9.54,2.93" vector-effect="non-scaling-stroke"/>
      <path class="cls-8" d="M96.93,192.73c-5.99,1.1-11.62.09-16.9-3.04" vector-effect="non-scaling-stroke"/>
      <path class="cls-5" d="M74.99,183.79l-2.42-5.22" vector-effect="non-scaling-stroke"/>
      <path class="cls-9" d="M72.57,178.57c-.27-1.49-.53-2.46-.54-4.19-.01-1.66-.7-2.91-2.07-3.77-.45-.28-.9-.57-1.37-.85-1.27-.79-1.87-2-3.05-2.89-1.55-1.16-2.43-2.77-3.37-4.39-.17-.28-.39-.5-.67-.66-.3-.17-.49-.43-.55-.76-.07-.33-.22-.61-.45-.85-1.18-1.2-2.03-2.64-2.56-4.32-.69-2.18-1.3-4.39-1.84-6.62" vector-effect="non-scaling-stroke"/>
      <path class="cls-5" d="M56.09,149.25l-.42-2.14" vector-effect="non-scaling-stroke"/>
      <path class="cls-9" d="M55.67,147.11c.07-.7-.1-1.33-.52-1.88-.25-.32-.57-.47-.98-.43-1.62.13-2.96.93-4.02,2.42-.82,1.13-2.39,1.38-3.52.57-.08-.06-.15-.12-.23-.18-.44-.4-.89-.78-1.38-1.13-.96-.69-2.14-1.14-3.56-1.36-.34-.05-.66-.18-.95-.39l-2.37-1.74c-.26-.19-.43-.44-.51-.74-.07-.25-.21-.44-.42-.57-1.47-.93-2.88-2.88-4.83-2.53-.82.14-1.54.52-2.16,1.13-.23.23-.5.43-.79.58l-2.16,1.14c-.27.14-.56.2-.87.18l-4.8-.33c-.34-.02-.64.09-.89.33-.65.62-1.4,1.12-2.26,1.49-.32.14-.64.19-.98.14l-3.63-.48c-.3-.04-.5.08-.59.37l-.94,2.91c-.18.54-.76.84-1.3.67-.33-.11-.58-.37-.68-.7l-.62-2.11c-.09-.32-.24-.61-.45-.87-.92-1.19-1.12-2.52-.6-4,.33-.95-.16-1.99-1.11-2.32-.23-.08-.47-.11-.71-.1-1.4.07-2.86.19-4.38.35-1.14.12-1.6-.39-1.39-1.54" vector-effect="non-scaling-stroke"/>
      <path class="cls-9" d="M3.92,129.53c1.15.92,2.24,1.35,3.27,1.28.34-.02.59-.18.75-.47,1.03-1.81,2.62-2.64,4.79-2.5.05,0,.06.03.02.08-.05.06-.06.15-.04.26.01.05.04.07.09.07,1.8.11,3.94-.02,6.43-.37.84-.11,1.73-.14,2.68-.09.32.02.64.12.91.3.64.42,1.36.71,2.16.87.34.07.57.27.69.6.46,1.23.73,2.55.83,3.96.05.7.65,1.22,1.35,1.17.3-.02.58-.15.8-.36,1.19-1.15,2.51-1.5,3.96-1.06,1.92.6,3.71.89,5.37.87,1.07-.01,2.18-.6,3.58-.18.22.07.42.03.6-.12.59-.48,1.2-.8,1.83-.97.98-.24,1.58-1.24,1.33-2.22-.01-.04-.02-.08-.04-.12l-1.86-5.76c-.13-.39-.48-.66-.89-.69-2.31-.16-4.05.45-5.25,1.83-.23.27-.53.45-.88.53-1.45.34-2.8.92-4.05,1.75-.28.19-.49.44-.62.74-.27.61-.73.99-1.36,1.15-.27.06-.49-.01-.67-.22-2.08-2.39-2.61-4.92-1.61-7.57.3-.79,1.09-1.27,1.91-1.18.03,0,.06-.01.08-.04.54-.76,1.34-1.29,2.41-1.61.92-.27,1.84-.11,2.74.5.27.18.59.3.92.32,1.64.13,3.23.26,4.8.39.32.03.63-.04.92-.19.34-.18.63-.42.89-.71,1.35-1.52,4.42-1.5,6.14-1.05.33.09.6.26.8.53,3.12,4.07,3.72,8.33,1.81,12.78-.84,1.95-.36,3.49,1.44,4.61.45.28.76.48.94.59,1.75,1.1,3.06.71,3.93-1.16,1.41-3.02,2.61-6.04,3.61-9.04.51-1.5.82-3.07.93-4.7.11-1.47.73-2.67,1.85-3.58.29-.24.66-.35,1.04-.3,1.6.18,2.59-.44,2.99-1.86.92-3.32,1.94-6.09,3.06-8.3" vector-effect="non-scaling-stroke"/>
      <path class="cls-5" d="M80.22,100.61c-3.62,2.01-6.58,4.58-8.89,7.71" vector-effect="non-scaling-stroke"/>
      <path class="cls-7" d="M71.33,108.32c-1.75,2.28-2.79,4.21-3.13,5.79-.3,1.41-1.15,2.21-2.55,2.41-1.27.19-2.38.67-3.32,1.45-.24.2-.52.29-.84.27-2.59-.14-5.2.33-7.81,1.42-.76.32-1.63.14-2.21-.45-.45-.47-.98-.7-1.6-.68-.05,0-.09-.02-.12-.06l-.25-.34c-.13-.18-.3-.3-.51-.36-1.85-.52-3.73-.67-5.64-.45-.28.03-.52.15-.72.35l-.37.37c-.25.25-.55.41-.89.47-1.68.33-3.28.33-4.8,0-.32-.07-.57-.23-.75-.49-.59-.81-1.33-1.42-2.23-1.83-.31-.13-.62-.15-.95-.06-1.55.45-2.7,1.33-3.45,2.64-.78,1.35-1.59,2.73-2.43,4.15-.18.3-.28.63-.3.99-.03.47-.17.89-.44,1.28-.19.26-.44.4-.75.42-2.51.13-4.83-.68-6.97-2.44-.59-.49-.68-1.36-.19-1.95.04-.05.08-.09.12-.13.69-.64,1.41-1.46,1.49-2.48.38-4.35,2.56-6.31,6.56-5.87,1.44.15,2.54-.69,3.42-1.74.24-.27.55-.46.89-.54,1.73-.4,2.99.2,3.77,1.82.17.36.45.57.84.62,1.94.29,4.27.51,6.99.66.7.04,1.22-.28,1.56-.96.21-.4.61-.67,1.06-.69.54-.03.77-.27.69-.71-.08-.5.12-.81.61-.93.62-.15,1-.52,1.16-1.1.09-.32.05-.63-.13-.91-2.53-4.08-3.82-8.42-3.85-13.01-.01-.78-.46-1.48-1.16-1.83l-4.44-2.17" vector-effect="non-scaling-stroke"/>
      <path class="cls-7" d="M55.67,147.11c-.74-.56-1.52-.82-2.34-.78-.36.02-.68.15-.95.39-1.4,1.28-2.14,2.41-4.04,3.19-1.27.53-2.54,1.08-3.8,1.66-1.13.52-2.09,1.19-2.9,1.99-.9.89-1.99,1.37-3.29,1.43-.39.01-.7.35-.69.75,0,.07.02.15.04.22.19.55.22,1.11.07,1.69-.11.44-.04.86.19,1.26.77,1.25,1.66,2.48,2.65,3.67.56.68.96,1.42,1.2,2.22.23.76.48,1.53.76,2.31.13.36.36.66.66.9.84.64,1.34,1.41,1.51,2.3.03.2.14.34.33.41.74.32,1.06.9.96,1.76-.07.59.34,1.13.93,1.2.22.03.44-.01.63-.12,2.61-1.37,4.41-3.46,5.38-6.26.27-.76.1-1.61-.43-2.22-.71-.81-.68-1.6.08-2.36.68-.68,1.79-.68,2.47,0,.03.03.07.07.1.11.86,1.02,1.39,2.16,1.57,3.42.05.33.17.62.36.88.61.81.71,1.71.29,2.68-.15.36-.42.55-.8.57l-1.77.13c-.3.02-.58.18-.74.44-.47.76-.72,1.57-.75,2.42,0,.34.14.66.39.87,1.31,1.1,2.69,1.9,3.88,3.15.63.66,1.49.88,2.58.66.55-.11,1.01-.51,1.19-1.05,1.32-3.92,1.52-7.79.59-11.62-.29-1.17-.89-2.27-1.8-3.32-1.04-1.19-1.81-2.74-2.3-4.63-.52-1.98-.98-3.77-1.38-5.39-.36-1.41-.5-2.35-.42-2.8" vector-effect="non-scaling-stroke"/>
      <path class="cls-7" d="M72.57,178.57c-.55-.66-1.08-1.3-1.59-1.94-.23-.29-.47-.45-.72-.47-.36-.05-.66.05-.91.3-.28.27-.42.61-.4,1.02.08,2.79-.94,5.17-3.07,7.12-.88.81-1.9,1.05-3.05.71-2.14-.63-4.23-.86-6.24-.69-.77.06-1.49-.39-1.79-1.11-.35-.86-.72-1.96-1.12-3.28-.2-.7-.92-1.32-2.15-1.86-.94-.42-1.92-.59-2.95-.5-2.67.21-4.7-.03-6.08-.73-1.35-.7-2.77-1.67-4.26-2.91-.53-.45-.79-.33-.77.37.03.9.19,1.89.48,2.97.19.68.61,1.18,1.26,1.48.73.35,1.67.62,2.8.82,1.03.18,1.7.49,2,.91.45.64.5,1.48.15,2.54" vector-effect="non-scaling-stroke"/>
      <path class="cls-9" d="M33.36,184.61c1.02-.02,1.94-.41,2.76-1.18.32-.3.7-.41,1.13-.33.65.13,1.29.23,1.92.31,1.05.13,1.63-.28,1.72-1.26.03-.28-.07-.5-.3-.65-1.48-1.03-2.99-1.73-4.52-2.11-.33-.08-.6-.25-.82-.51-1.01-1.21-1.65-2.1-1.9-2.68-1.36-3.14.53-5.63,3.88-5.38.37.03.66.19.86.49l1.16,1.66c.19.29.46.48.79.58.9.29,1.76.67,2.57,1.16.48.28.88.42,1.19.41.72-.03,1.17-.47,1.36-1.34.05-.27.04-.55-.04-.81-.76-2.57-2.47-4.12-5.11-4.63-.9-.18-1.54-.97-1.55-1.88,0-1.84-.43-3.52-1.28-5.04-.53-.96-1.74-1.3-2.69-.77-.08.05-.16.1-.24.16-1.43,1.1-3.18,2.03-5.03,2.32-1.82.29-3.55.78-5.18,1.47-1.05.44-1.55,1.21-1.51,2.32.02.68.32,1.21.9,1.61,1.2.8,2.42,1.44,3.66,1.92.45.17.8.47,1.06.89.43.68.32,1.29-.32,1.83-.18.16-.32.36-.39.59l-.91,2.86c-.11.34-.32.57-.64.71l-3.73,1.71" vector-effect="non-scaling-stroke"/>
      <path class="cls-7" d="M127.17,9.93c-.07-.87-.46-1.45-1.18-1.75-.49-.2-1.05-.01-1.32.44-.59,1.05-.92,1.9-1.8,2.81-1.09,1.15-2.16,2.54-3.24,4.17-.26.4-.18.71.25.93,1.41.72,1.77,1.79,1.07,3.2-.24.49-.83.69-1.33.44-.16-.08-.3-.2-.39-.35-1.35-2.08-3.12-3.31-5.32-3.7-.36-.07-.66-.23-.9-.48-.84-.86-1.54-1.83-2.09-2.91-.16-.31-.41-.48-.75-.52-.58-.06-1.04.16-1.4.67-.19.27-.25.57-.19.89.42,2.28-.35,4.19-2.32,5.72-1.21.95-1.93.66-2.16-.85-.06-.41-.1-.83-.12-1.27-.04-.8-.72-1.43-1.52-1.39-.08,0-.17.01-.25.03-.68.15-1.3.59-1.86,1.33-.2.27-.46.44-.78.52-2.08.55-6.18,1.44-7.51,3.23-.89,1.2-.18,2.47-1.59,3.54-.65.49-.79,1.41-.3,2.06.14.19.33.35.55.45.84.4,1.83.5,2.98.3.51-.09.91-.32,1.22-.7.38-.49.62-1.02.72-1.6.39-2.23,2.91-3.24,4.82-2.4,1.33.58,2.62.61,3.88.07,1.56-.66,3.34-.44,4.79.19,2.11.91,4.77.47,6.88.17.33-.05.61-.19.83-.42.86-.88,2.26-1.08,3.3-.35,1.23.85,2.62,1.08,4.17.69,1.06-.27,2.04-.67,2.94-1.22,1.5-.9,3.34-.9,5.04-.9.46,0,.84-.36.84-.82,0-.05,0-.09-.01-.14-.21-1.41.23-2.59,1.31-3.56,1.02-.92,1.01-1.86-.04-2.83-.44-.4-1.07-.52-1.62-.31-1.24.47-2.12,1.26-2.63,2.38-.21.45-.63.78-1.13.86-1.11.2-1.6-.19-1.47-1.18.13-1.05.36-2.09.67-3.14.21-.69.02-1.22-.57-1.59-.27-.17-.43-.42-.45-.74" vector-effect="non-scaling-stroke"/>
      <path class="cls-7" d="M53.43,101.1c.63.88.69,1.89.17,3.01-.31.66-1.02,2.02-2.14,4.08-.17.31-.13.59.11.84l3.04,3.27c.44.48,1.09.7,1.72.58,1.32-.23,2.07-.81,2.25-1.74.08-.44-.02-.93-.31-1.5-.32-.62-.7-1.22-1.14-1.78-.4-.52-.61-1.15-.63-1.87-.03-1.37.32-2.58,1.05-3.62.17-.25.4-.46.66-.62.66-.39.93-.97.82-1.75-.17-1.18-.62-2.36-1.34-3.55-.19-.33-.48-.46-.85-.4l-6.07.95c-.7.11-1.18.75-1.07,1.45.01.09.04.17.07.25.43,1.18,1.39,1.83,2.89,1.95.31.03.6.19.78.45" vector-effect="non-scaling-stroke"/>
      <path class="cls-2" d="M136.85,4.18c-.89,1.42-1.99,2.21-3.31,2.35-.34.03-.63.16-.87.37-.82.69-1.27,1.59-1.36,2.7-.03.36.12.61.43.77,2.39,1.24,4.72,2.85,7.01,4.84,1.05.92,1.77,2.04,2.16,3.36.54,1.85.94,3.66,1.21,5.44.05.34.25.5.58.5h6.99c.36,0,.59.17.67.52.15.54.28,1.08.41,1.61.19.8.06,1.44-.41,1.93-.46.49-1.04.72-1.74.7-.35-.01-.68-.16-.92-.42-1.51-1.61-3.27-2.14-5.28-1.6-.46.13-.73.6-.61,1.06.04.16.13.3.25.41.32.3.67.59,1.06.85.95.67,1.79.29,2.67,1.39.29.37.44.88.42,1.54-.08,4.25-.22,8.24-.42,11.98-.05,1.09-.55,1.75-1.5,1.98-.66.16-1.36.04-2.12-.37-1.39-.75-2.73-1.68-4-2.77-.46-.39-.56-1.06-.23-1.56.66-1.03,1.58-1.9,2.73-2.62.4-.25.54-.61.43-1.07l-1.08-4.33c-.09-.38-.41-.67-.79-.72-.39-.06-.73,0-1.02.17-.7.41-.9.99-.6,1.74.38.95.25,2.02-.36,3.24-.84,1.65-1.85,2.98-3.04,4-.72.62-1.8.54-2.42-.18-.11-.13-.2-.27-.26-.42-.58-1.29-1.32-2.57-2.23-3.84-.58-.81-.77-1.59-.57-2.33,1.02-3.79,2.13-7.31,3.35-10.54.41-1.09,1.62-1.64,2.7-1.23.29.11.56.28.77.51.6.62,1.3,1.07,2.1,1.37.57.2.84,0,.82-.6-.05-1.12-.62-1.91-1.71-2.37-1.74-.74-3.85-.82-6.33-.25-.68.15-1.31.4-1.9.72-.63.36-1.27.69-1.91,1.01-.86.42-1.79.56-2.8.44-1.78-.21-3.47-.57-5.06-1.06-.71-.22-1.47.18-1.68.89-.03.09-.05.18-.05.28l-.19,2.14c-.01.16-.07.31-.17.44-.61.8-.8,1.64-.57,2.53.12.49-.04,1-.41,1.34-.75.67-1.25,1.51-1.49,2.52-.13.55-.68.88-1.22.75-.29-.07-.53-.26-.67-.52-.76-1.53-1.09-3.07-.99-4.61.13-1.83-.6-3.53-2.17-5.11-.22-.22-.49-.36-.79-.4-1.15-.17-2.1-.14-2.88.11-1.55.51-3.02,1.12-4.64.5-1.47-.55-2.76-.35-3.88.6-.3.25-.52.59-.62.97-.4,1.44-1.22,2.32-2.45,2.63-1.7.44-3.73.72-6.09.85-.35.02-.58.19-.69.52-.11.33-.12.68-.01,1.07-1.7-.53-3.09-1.35-4.19-2.47l4.99-3.18c.26-.17.33-.39.21-.67-4.01-9.88,3.04-19.78,13.84-17.47.36.08.64-.04.82-.36,4.2-7.44,13.79-9.16,19.97-3.01.23.23.5.27.78.11,4.54-2.53,8.99-2.42,13.35.32ZM127.17,9.93c-.07-.87-.46-1.45-1.18-1.75-.49-.2-1.05-.01-1.32.44-.59,1.05-.92,1.9-1.8,2.81-1.09,1.15-2.16,2.54-3.24,4.17-.26.4-.18.71.25.93,1.41.72,1.77,1.79,1.07,3.2-.24.49-.83.69-1.33.44-.16-.08-.3-.2-.39-.35-1.35-2.08-3.12-3.31-5.32-3.7-.36-.07-.66-.23-.9-.48-.84-.86-1.54-1.83-2.09-2.91-.16-.31-.41-.48-.75-.52-.58-.06-1.04.16-1.4.67-.19.27-.25.57-.19.89.42,2.28-.35,4.19-2.32,5.72-1.21.95-1.93.66-2.16-.85-.06-.41-.1-.83-.12-1.27-.04-.8-.72-1.43-1.52-1.39-.08,0-.17.01-.25.03-.68.15-1.3.59-1.86,1.33-.2.27-.46.44-.78.52-2.08.55-6.18,1.44-7.51,3.23-.89,1.2-.18,2.47-1.59,3.54-.65.49-.79,1.41-.3,2.06.14.19.33.35.55.45.84.4,1.83.5,2.98.3.51-.09.91-.32,1.22-.7.38-.49.62-1.02.72-1.6.39-2.23,2.91-3.24,4.82-2.4,1.33.58,2.62.61,3.88.07,1.56-.66,3.34-.44,4.79.19,2.11.91,4.77.47,6.88.17.33-.05.61-.19.83-.42.86-.88,2.26-1.08,3.3-.35,1.23.85,2.62,1.08,4.17.69,1.06-.27,2.04-.67,2.94-1.22,1.5-.9,3.34-.9,5.04-.9.46,0,.84-.36.84-.82,0-.05,0-.09-.01-.14-.21-1.41.23-2.59,1.31-3.56,1.02-.92,1.01-1.86-.04-2.83-.44-.4-1.07-.52-1.62-.31-1.24.47-2.12,1.26-2.63,2.38-.21.45-.63.78-1.13.86-1.11.2-1.6-.19-1.47-1.18.13-1.05.36-2.09.67-3.14.21-.69.02-1.22-.57-1.59-.27-.17-.43-.42-.45-.74Z"/>
      <path class="cls-3" d="M136.85,4.18c2.29,1.58,3.84,3.63,4.65,6.16.1.32.32.52.64.58,1.94.41,3.95.76,5.58,1.91,5.85,4.12,7.27,9.66,4.24,16.65-.13.3-.09.58.12.82,1.21,1.37,2.14,2.92,2.77,4.62l-.03.81c0,.2.09.3.3.31.11,0,.23.01.34.04.19.05.36.15.48.31,1.57,1.91,3.5,3.05,5.8,3.42.46.07.72.34.78.79l.04.32c.05.34-.1.5-.43.49l-9.2-.14c-.41,0-.75.32-.75.73,0,.09.01.17.04.25.49,1.41.44,2.67-.16,3.78-.34.62-.64,1.28-.89,1.98-.66,1.8-1.82,3.35-3.48,4.66-.25.21-.54.26-.86.17-1.09-.3-1.75-.98-1.98-2.03-.07-.34-.28-.47-.61-.39-.27.05-.54.14-.79.27-1.73.83-3.34.48-4.21-1.33-1.31-2.68-3.49-3.84-6.54-3.49-2.16.25-4.17-.56-6-2.43-.98-1-2.14-1.49-3.49-1.47-.33,0-.61.23-.68.55-.48,2.09.23,3.56,2.11,4.4.92.42,1.89.82,2.9,1.22,1.27.51,1.83,1.46,1.69,2.87-.03.33.04.63.23.9.34.5.49,1.08.45,1.73-.01.27-.15.38-.42.32-.09-.02-.17,0-.24.07-.24.21-.46.19-.65-.06-1.11-1.48-2.51-2.22-4.18-2.2-.41,0-.81.18-1.09.49-2.04,2.34-4.84,3.5-8.4,3.48-.4,0-.74.14-1.03.43-.91.94-1.97,1.73-3.17,2.36-.76.4-1.27,1.37-1.55,2.92-.19,1.07-.51,2.11-.93,3.13-.46,1.11-.74,2.27-.83,3.48-.04.69.45,1.29,1.13,1.38l5.16.66c.43.06.72-.12.87-.53,1.09-2.96,2.41-5.18,3.94-6.66,1.14-1.11,2.36-1.12,3.66-.03.25.2.53.35.84.43,2.35.66,4.44.61,6.27-.15,1.91-.79,3.9-.68,5.98.34.3.14.54.39.68.69,1.36,2.89,1.88,5.94,1.55,9.17-.05.42-.19.81-.42,1.16-.61.89-.89,1.82-.85,2.79.02.5.28.72.78.66,1.35-.15,2.53.14,3.55.87.35.25.84.17,1.09-.18.11-.15.16-.34.14-.53-.13-1.25,0-2.43.4-3.54.4-1.1,1.65-1.22,3.75-.35.42.17.63.03.63-.42v-.42c0-.21-.11-.41-.29-.52l-3.07-1.94c-.28-.17-.43-.43-.43-.76,0-.29.09-.54.26-.76.19-.22.49-.37.9-.43.29-.05.59-.06.88-.01.54.08,1.04-.29,1.12-.83.03-.23-.01-.46-.13-.66-1.28-2.07-.09-2.88.86-4.42.17-.28.43-.43.76-.43,1.41-.03,2.77.26,4.08.85.3.14.62.2.95.19,1.74-.05,3.38.56,4.85.41,1.88-.19,3.55-.86,5.02-2.01,1.63-1.27,2.65-1.6,4.54-.98.32.1.64.13.97.08,1.73-.27,3.09-.69,4.81-.03,1.64.63,3.16,1.34,4.56,2.12.53.29.89.82.96,1.43.15,1.41-.51,2.18-1.99,2.3-.93.07-1.72-.16-2.36-.7-1.23-1.03-2.58-1.8-4.06-2.31-.96-.34-2.01.16-2.35,1.12-.07.19-.1.39-.11.59-.01,1.44-.52,2.71-1.52,3.81-.24.26-.36.57-.36.93v3.21c0,.36-.11.68-.32.97-.39.54-.62,1.21-.69,2.01-.37,3.94-.21,7.64.47,11.1.33,1.64.13,2.93-.6,3.87-.22.28-.57.44-.92.43l-12.19-.24c-.29,0-.57-.08-.82-.22-2.45-1.39-5.22-2.04-8.33-1.97-.32,0-.6-.1-.83-.31-.97-.88-2.12-1.38-3.44-1.49-.32-.03-.6.05-.84.24l-2.99,2.23c-.86.64-2.09.47-2.73-.4-.02-.03-.04-.05-.05-.08l-1.44-2.15c-.19-.29-.5-.48-.85-.52l-3.23-.41c-.62-.08-1.15-.52-1.34-1.12-.51-1.61-1.46-2.87-2.86-3.77-.87-.56-1.99-.49-2.78.16-2.55,2.1-4.48,2.03-7.63,2.24-.34.03-.63.15-.88.36-1.27,1.09-2.7,1.85-4.31,2.3-1.67.45-1.65,1.87-3.44,2.11-1.29.17-2.08-.4-2.37-1.71-.61-2.83-1.38-5.74-4.87-6.09-1-.1-1.79-.88-1.9-1.88-.16-1.46.22-2.94,1.15-4.42.64-1.03,1.58-1.63,2.84-1.81.35-.05.65-.2.9-.45l5.97-5.91c.82-.81,1.07-1.77.74-2.88l-2.03-6.96c.12-2.87.33-4.66.62-5.39,1.25-3.1,3.08-5.81,5.48-8.11.25-.23.55-.35.89-.34l1.74.06c.8.03,1.47-.6,1.5-1.39,0-.18-.02-.35-.08-.52-.38-1.09-.76-2.13-1.15-3.15-.35-.9-.95-1.81-1.8-2.73-1.19-1.29-2.34-2.63-3.45-4.01-.21-.26-.33-.56-.36-.88-.11-1.05-.49-2-1.14-2.85-.21-.27-.49-.4-.83-.36-.98.08-1.75.57-2.32,1.47-.47.75-1.25,1.25-2.13,1.35-3.57.42-6.88,1.4-9.93,2.94-.3.15-.6.14-.9-.01-.84-.44-1.46-1.13-1.84-2.08-.11-.38-.1-.74.01-1.07.11-.33.35-.5.69-.52,2.36-.13,4.39-.42,6.09-.85,1.23-.32,2.05-1.19,2.45-2.63.1-.38.32-.72.62-.97,1.12-.95,2.41-1.15,3.88-.6,1.63.61,3.1.01,4.64-.5.77-.25,1.73-.28,2.88-.11.31.05.57.18.79.4,1.58,1.58,2.3,3.28,2.17,5.11-.11,1.54.22,3.08.99,4.61.26.5.87.69,1.37.44.26-.14.45-.38.52-.67.24-1.01.74-1.85,1.49-2.52.38-.33.54-.85.41-1.34-.23-.89-.04-1.74.57-2.53.1-.13.16-.28.17-.44l.19-2.14c.07-.74.72-1.29,1.46-1.22.09,0,.19.03.28.05,1.59.49,3.27.84,5.06,1.06,1.01.12,1.95-.03,2.8-.44.64-.32,1.28-.65,1.91-1.01.59-.33,1.22-.57,1.9-.72,2.49-.57,4.6-.49,6.33.25,1.09.46,1.66,1.25,1.71,2.37.02.6-.25.8-.82.6-.8-.29-1.5-.75-2.1-1.37-.81-.83-2.14-.86-2.97-.05-.22.22-.4.48-.51.77-1.21,3.23-2.33,6.74-3.35,10.54-.19.74,0,1.52.57,2.33.91,1.27,1.66,2.55,2.23,3.84.38.86,1.4,1.25,2.26.86.15-.07.29-.16.42-.27,1.19-1.02,2.2-2.35,3.04-4,.62-1.21.74-2.29.36-3.24-.29-.75-.09-1.33.6-1.74.29-.17.63-.23,1.02-.17.39.06.7.34.79.72l1.08,4.33c.11.46-.04.81-.43,1.07-1.16.72-2.07,1.6-2.73,2.62-.33.5-.23,1.17.23,1.56,1.27,1.1,2.61,2.02,4,2.77.76.41,1.46.53,2.12.37.95-.23,1.44-.89,1.5-1.98.2-3.74.34-7.73.42-11.98.01-.66-.13-1.17-.42-1.54-.88-1.1-1.73-.71-2.67-1.39-.38-.27-.73-.55-1.06-.85-.35-.33-.37-.87-.04-1.22.11-.12.25-.2.41-.25,2-.54,3.76-.01,5.28,1.6.24.26.58.41.92.42.7.02,1.28-.21,1.74-.7.47-.49.61-1.13.41-1.93-.13-.53-.26-1.07-.41-1.61-.09-.35-.31-.52-.67-.52h-6.99c-.34,0-.53-.17-.58-.5-.27-1.78-.67-3.59-1.21-5.44-.39-1.32-1.11-2.44-2.16-3.36-2.29-1.98-4.62-3.6-7.01-4.84-.32-.16-.46-.42-.43-.77.09-1.11.54-2.01,1.36-2.7.25-.21.54-.34.87-.37,1.31-.15,2.42-.93,3.31-2.35Z"/>
      <path class="cls-1" d="M127.62,10.67c.59.37.78.9.57,1.59-.32,1.05-.54,2.09-.67,3.14-.13.99.36,1.38,1.47,1.18.5-.09.92-.41,1.13-.86.52-1.12,1.39-1.91,2.63-2.38.55-.21,1.18-.09,1.62.31,1.05.97,1.06,1.91.04,2.83-1.08.97-1.51,2.15-1.31,3.56.07.46-.24.88-.69.95-.05,0-.09.01-.14.01-1.7,0-3.54,0-5.04.9-.9.54-1.88.95-2.94,1.22-1.55.39-2.94.16-4.17-.69-1.04-.72-2.43-.53-3.3.35-.23.23-.51.38-.83.42-2.11.3-4.77.74-6.88-.17-1.45-.63-3.23-.85-4.79-.19-1.26.54-2.55.51-3.88-.07-1.91-.83-4.42.17-4.82,2.4-.1.58-.34,1.11-.72,1.6-.3.38-.71.62-1.22.7-1.15.19-2.14.09-2.98-.3-.74-.34-1.05-1.22-.7-1.96.1-.22.26-.41.45-.56,1.41-1.07.69-2.34,1.59-3.54,1.33-1.79,5.43-2.67,7.51-3.23.32-.08.58-.25.78-.52.56-.74,1.18-1.18,1.86-1.33.79-.17,1.56.32,1.74,1.11.02.08.03.16.03.25.02.44.06.86.12,1.27.23,1.51.96,1.8,2.16.85,1.97-1.53,2.74-3.44,2.32-5.72-.06-.32,0-.62.19-.89.36-.51.82-.73,1.4-.67.34.04.59.21.75.52.55,1.08,1.25,2.05,2.09,2.91.25.25.55.42.9.48,2.2.39,3.97,1.62,5.32,3.7.3.46.91.59,1.37.3.15-.1.27-.23.35-.39.7-1.41.35-2.47-1.07-3.2-.43-.22-.51-.53-.25-.93,1.07-1.64,2.15-3.03,3.24-4.17.87-.91,1.21-1.77,1.8-2.81.27-.46.83-.65,1.32-.44.72.29,1.11.88,1.18,1.75.03.32.18.57.45.74Z"/>
      <path class="cls-1" d="M102.78,56.93c-.21,1.74.03,3.39.72,4.94.66,1.46.91,2.56.75,3.31-.14.66-.54,1.09-1.19,1.29l-2.4.71c-.39.12-.8-.11-.91-.49-.04-.12-.04-.25-.01-.37l1.41-6.67c.18-.86-.33-1.71-1.17-1.96-1.73-.52-2.84,1.12-3.99,2.1-1,.84-2.08.58-2.91,1.98-.87,1.46-1.3,3.05-1.28,4.77,0,.33-.11.61-.35.83l-2.72,2.53c-.49.45-1.25.42-1.71-.07-.09-.09-.16-.2-.21-.31l-2.11-4.58c-.13-.28-.17-.57-.13-.87.08-.6.22-1.08.41-1.44.52-.98.14-2.19-.84-2.7-.1-.05-.2-.1-.31-.13-1.33-.44-2.26-.32-2.77.36-.27.36-.36,1-.25,1.94.07.67.11,1.35.1,2.05,0,.37-.16.64-.48.82-.28.16-.57.29-.87.38-1.84.54-1.87,1.19-.11,1.97.43.19.83.42,1.21.69.24.18.4.37.47.57.09.23.11.47.07.7-.06.34-.26.49-.6.45-1.98-.21-2.96.71-2.94,2.74,0,1.23-.98,2.24-2.22,2.25-.27,0-.53-.04-.78-.13l-2.82-1.04c-.62-.23-.94-.91-.72-1.53.04-.11.1-.22.17-.32,1.17-1.53,1.64-3.45,1.4-5.73-.07-.72-.26-1.39-.57-1.99-.36-.7-.58-1.45-.66-2.26-.03-.32-.18-.58-.43-.78-.29-.23-.52-.54-.7-.9-.14-.29-.37-.46-.69-.48-1.26-.11-2.5.08-3.73.56-1.47.58-2.66.87-3.56.87-1.77.01-3.48-.01-5.13-.07-.21,0-.43.07-.65.24-.26.19-.55.28-.87.27-.8-.01-1.49.21-2.08.67-.27.21-.44.48-.5.81l-.67,3.31c-.15.75.12,1.52.71,2,1.28,1.03,2.26.91,2.94-.35.17-.32.42-.53.75-.64,1.64-.57,3.21-1.46,4.72-2.67.27-.22.59-.33.93-.33h2.21c.39,0,.66.18.81.53l1.47,3.41c.14.34.38.58.7.74.64.31.77.88.39,1.72-.52,1.15-1.41,1.7-2.69,1.66-.29,0-.55.07-.77.24-1.19.87-2.56,1.05-4.12.53-1.35-.44-2.62-.9-3.83-1.39-1.09-.44-2.03-.21-2.81.66-.52.59-1.43.64-2.02.12-.22-.19-.37-.44-.44-.72-.33-1.3-.44-2.43-1.52-3.29-.9-.72-1.96-1-3.2-.84-1.97.24-3.95.53-5.93.87-.54.09-1.31.66-2.32,1.7-.23.25-.52.33-.85.24l-4.76-1.29c2.14-3.56,5.21-6.02,9.2-7.38.32-.1.41-.3.28-.61-3.37-7.84-2.33-14.43,3.13-19.78,4.16-4.08,9.36-5.45,15.6-4.11.3.06.55-.03.73-.28.96-1.32,1.75-2.85,2.8-3.95,4.32-4.5,11.35-6.94,17.59-4.45.28.11.53.07.73-.13,1.1,1.12,2.5,1.94,4.19,2.47.38.95,1,1.65,1.84,2.08.3.15.6.16.9.01,3.06-1.53,6.37-2.51,9.93-2.94.88-.1,1.66-.6,2.13-1.35.57-.9,1.34-1.39,2.32-1.47.35-.03.63.09.83.36.64.84,1.02,1.79,1.14,2.85.03.33.15.62.36.88,1.11,1.38,2.26,2.72,3.45,4.01.85.92,1.45,1.84,1.8,2.73.39,1.01.77,2.06,1.15,3.15.26.75-.14,1.57-.89,1.83-.17.06-.35.09-.52.08l-1.74-.06c-.34,0-.64.11-.89.34-2.4,2.31-4.23,5.01-5.48,8.11-.29.72-.5,2.52-.62,5.39Z"/>
      <path class="cls-2" d="M178.52,39.31l-1.2,2.62c-.17.38-.23.77-.2,1.19l.56,7.14c.03.32.16.62.38.86,1.1,1.2,1.85,2.69,2.26,4.47.07.29.2.56.4.78.82.96,1.15,2.06,1.01,3.32-.22,1.88.44,3.01,1.97,3.38,1.26.29,2.32.87,3.61.9,1.37.03,2.78.27,4.25.72,1,.3,1.64.01,1.91-.86.09-.31.3-.45.62-.42l1.62.13c.32.03.57.17.74.44.21.3.47.48.79.52.31.04.51-.09.59-.39.09-.32.35-.53.76-.65-.11,3.21-.92,6.07-2.45,8.58-.19.3-.17.59.05.87l.74.92c-.36-.12-.73.07-1.12.57-.2.27-.46.44-.78.51-.62.15-1.25.25-1.89.31-.58.05-1.21-.04-1.9-.28-1.84-.66-3.86-1.16-6.06-1.51-.93-.15-1.86.31-2.3,1.15l-2.45,4.65c-.17.32-.2.65-.11,1,.16.58.52.98,1.07,1.18.56.21,1.2.13,1.93-.24.82-.42,1.55-.94,2.21-1.57.25-.23.54-.35.88-.34l3.76.1c.33,0,.6.14.8.39.59.73.85,1.45.78,2.15-.16,1.77.91,3.37,2,4.72.43.54.9.58,1.41.12.41-.36.88-.74,1.42-1.15.27-.21.52-.32.76-.34.42-.04.7.1.84.43,1.04.21,2.12.25,3.25.14-.11,3.55-1.16,6.9-3.15,10.05-1.6,1.72-3.38,3.29-5.33,4.71-.5.36-1.35.78-2.56,1.25-1,.38-1.82.91-2.46,1.58-.09-1.99-.93-4.06-2.51-6.21-.58-.8-1.29-1.39-2.13-1.78-.48-.23-1.06-.02-1.28.47-.08.16-.1.34-.08.52.21,1.75.37,3.58.46,5.49.09,1.93-.6,2.99-2.07,3.19-4.08.52-7.94,1.35-11.6,2.49-.43.13-.76.47-.87.9-.25.94-.59,1.9-1.01,2.9-.29.71-.42,1.37-.4,1.97.05,1.02.6,1.63,1.66,1.83,2.65.5,4.79,1.34,6.4,2.5.59.42.73,1.25.3,1.84-.11.16-.26.29-.43.38-3.38,1.88-7.35.83-10.51-1.01-1.17-.68-2.49-1.13-3.95-1.35-.31-.05-.58.03-.82.22-1.11.92-2.09,2.12-2.93,3.61-.51.9-1.26,1.41-2.25,1.55-.98.13-1.9.37-2.76.69-6.86,2.61-13.11,1.16-18.75-4.33-.24-.23-.53-.39-.85-.45-3.28-.72-6.12-2.55-8.5-5.5-.62-.78-.94-1.66-.96-2.63,0-.46.22-.69.68-.69.91-.01,1.51.4,1.79,1.25.1.32.28.57.55.76,1.09.8,2.39,2.36,3.64,2.75.4.13.81.27,1.24.42.59.21,1.21.34,1.86.38,1.47.11,2.92.21,4.36.32,1,.08,1.78.91,1.79,1.91.04,2.33,1.92,2.98,3.89,2.93.93-.03,1.7.08,2.29.31,2.46.99,5.24.56,6.15-1.92.16-.43.38-.83.66-1.22.2-.27.3-.57.31-.89.03-.71.27-1.33.72-1.87.22-.25.5-.39.82-.43,1.33-.17,2.04-.5,2.55-1.85.27-.7.55-1.41.83-2.11.13-.32.36-.53.68-.61,1.94-.54,3.51-.05,4.71,1.48.27.36.56.36.84.01.8-.98,1.05-1.94.74-2.88-.17-.52-.54-.81-1.09-.85-2.83-.24-5.13-1.39-6.9-3.46-.27-.33-.26-.81.03-1.12,1.34-1.42,2.31-3.31,4.71-2.98.89.13,1.8.17,2.72.13,1.33-.06,2.7.26,4.09.96.29.15.6.2.92.16l4.02-.5c1.19-.14,2.01-.77,2.46-1.89.22-.55.36-1.12.41-1.71.12-1.37-.47-1.83-1.78-1.38-2.12.74-4.07.81-5.86.22-.97-.32-2.02-.48-3.16-.47-1.44,0-2.93.03-4.45.06-.37,0-.69.13-.98.38l-1.97,1.76c-.23.21-.5.33-.8.35-1.1.11-1.82.71-2.16,1.78-.1.32-.1.65-.01.98.17.62.22,1.26.13,1.92-.04.35-.23.58-.56.69-1.41.47-2.46-.01-3.15-1.45-1.05-2.22-1.5-4.57-3.29-6.35-.2-.2-.54-.2-.74,0-.06.06-.1.13-.13.2-.57,1.71.28,3.31.3,4.8.03,2.35.1,4.71.23,7.06.12,2.43-.54,4.74-.8,7.15-.08.68-.69,1.17-1.37,1.09-.2-.02-.39-.09-.55-.2-1.81-1.23-3.41-2.75-4.82-4.57-.21-.27-.26-.57-.17-.89.21-.7.56-1.18,1.07-1.45,1.4-.72,1.33-1.75,1.39-3.09.08-1.98.02-3.45-.19-4.42-.12-.55-.6-.94-1.16-.95l-2.42-.05c-.75,0-1.36.59-1.37,1.33,0,.16.02.32.08.47.64,1.82.64,3.42-.02,4.82-.45.93-.97,1.84-1.56,2.72-.36.53-1.07.67-1.6.32-.18-.12-.32-.28-.41-.48-.32-.72-.75-1.36-1.28-1.92-1.26-1.33-2.55-2.52-3.88-3.58-1.06-.84-1.48-2-2.2-3.12-.64-.99-.8-2.33-1.93-3.25-.26-.21-.56-.32-.9-.34-1.29-.07-2.03-.7-2.2-1.89-.05-.34.03-.64.23-.91.47-.64.73-1.32.77-2.06.05-.6-.16-1.11-.62-1.51-.58-.52-1.29-.78-2.11-.78-.66,0-1.01.33-1.05.99-.1,1.61.23,2.8-.47,4.33-.77,1.67-1.51,3.36-2.21,5.07-.26.62-.75,1.11-1.37,1.36-1.58.64-2.57,1.79-2.98,3.46-.15.64.07,1.31.58,1.74l1.77,1.45c.23.19.49.32.78.39.36.09.67.25.92.5.33.32.46.76.38,1.33-.15,1.09-.62,2.03-1.41,2.83-.65.67-1.72.67-2.39.02-.18-.17-.31-.39-.4-.62l-4.37-11.8c-.31-.86-.98-1.54-1.83-1.87-2.08-.83-4.03-1.92-5.84-3.28-.44-.32-.88-.32-1.31.01-.62.48-1.15,1.22-1.59,2.24-.4.92-1.43,1.39-2.38,1.09-4.48-1.41-8.76-1.11-12.86.92,1.21-1.27,2.59-2,4.15-2.19,2.03-.26,5.63-.28,7.79.61.67.27,1.35.38,2.03.3.36-.04.67-.26.82-.58l1.74-3.72c.15-.34.09-.63-.18-.87l-2.47-2.23c-.31-.28-.5-.66-.56-1.08-.19-1.4-.58-2.65-1.16-3.76-.66-1.27-2-2.05-3.44-2-3.85.14-7.79-.38-11.82-1.55-.84-.24-1.59-.66-2.22-1.26-.62-.58-1.56-.65-2.25-.15-1.86,1.35-3.94,3.33-6.39,1.63-1.07-.73-1.62-1.11-1.66-1.14-1.21-.63-2.49-1.3-3.84-2.02-.29-.16-.52-.39-.68-.67-.77-1.36-1.89-2.28-3.36-2.74-.34-.11-.67-.07-.98.11-3.28,1.93-4.91,1.2-8.09,1.47-.33.03-.6.17-.82.42-1.46,1.63-2.38,1.66-4.54,1.36-.75-.11-1.39.18-1.93.87-.21.26-.48.37-.8.31-.37-.06-.69-.22-.97-.48-.79-.76-.44-1.74-1.26-2.49-.38-.35-.5-.77-.36-1.27.33-1.21-.08-2.05-1.22-2.5-.59-.24-1.21-.24-1.86,0-.52.19-.98.1-1.38-.28-.41-.39-.92-.67-1.55-.84l1.85-4.73,4.76,1.29c.34.09.62,0,.85-.24,1.01-1.04,1.79-1.61,2.32-1.7,1.98-.34,3.96-.63,5.93-.87,1.23-.15,2.3.13,3.2.84,1.08.85,1.19,1.99,1.52,3.29.19.77.96,1.23,1.73,1.04.28-.07.53-.22.72-.44.78-.88,1.72-1.1,2.81-.66,1.21.48,2.48.95,3.83,1.39,1.56.52,2.94.34,4.12-.53.23-.17.49-.25.77-.24,1.28.04,2.18-.51,2.69-1.66.38-.84.25-1.41-.39-1.72-.33-.16-.56-.41-.7-.74l-1.47-3.41c-.15-.36-.43-.53-.81-.53h-2.21c-.35,0-.66.11-.93.33-1.5,1.21-3.07,2.1-4.72,2.67-.34.11-.59.33-.75.64-.68,1.26-1.66,1.38-2.94.35-.59-.48-.87-1.25-.71-2l.67-3.31c.07-.34.23-.61.5-.81.59-.46,1.28-.69,2.08-.67.32,0,.61-.08.87-.27.22-.17.44-.25.65-.24,1.65.06,3.36.08,5.13.07.9,0,2.08-.29,3.56-.87,1.23-.48,2.47-.67,3.73-.56.32.03.55.19.69.48.18.37.42.67.7.9.25.2.4.46.43.78.08.81.3,1.57.66,2.26.31.6.5,1.27.57,1.99.24,2.29-.22,4.2-1.4,5.73-.4.53-.3,1.28.23,1.68.1.07.2.13.32.17l2.82,1.04c1.16.42,2.44-.17,2.86-1.33.09-.25.14-.51.13-.78-.02-2.04.96-2.95,2.94-2.74.34.04.54-.11.6-.45.04-.23.02-.47-.07-.7-.07-.2-.23-.39-.47-.57-.38-.27-.78-.51-1.21-.69-1.76-.78-1.73-1.43.11-1.97.3-.09.59-.22.87-.38.32-.18.48-.46.48-.82,0-.7-.03-1.38-.1-2.05-.11-.94-.02-1.59.25-1.94.52-.68,1.44-.8,2.77-.36,1.05.34,1.62,1.47,1.28,2.52-.04.11-.08.21-.13.31-.19.36-.33.84-.41,1.44-.04.3,0,.59.13.87l2.11,4.58c.29.61,1.01.87,1.61.59.11-.05.22-.12.31-.21l2.72-2.53c.24-.23.36-.51.35-.83-.02-1.72.41-3.3,1.28-4.77.82-1.4,1.91-1.14,2.91-1.98,1.16-.99,2.26-2.62,3.99-2.1.84.25,1.35,1.1,1.17,1.96l-1.41,6.67c-.09.4.16.79.55.88.12.03.25.02.37-.01l2.4-.71c.65-.19,1.05-.62,1.19-1.29.15-.74-.1-1.85-.75-3.31-.69-1.55-.93-3.19-.72-4.94l2.03,6.96c.32,1.11.07,2.06-.74,2.88l-5.97,5.91c-.25.25-.56.4-.9.45-1.25.18-2.2.78-2.84,1.81-.92,1.49-1.31,2.96-1.15,4.42.11,1,.9,1.78,1.9,1.88,3.49.35,4.25,3.27,4.87,6.09.29,1.31,1.08,1.88,2.37,1.71,1.79-.24,1.77-1.66,3.44-2.11,1.61-.45,3.05-1.22,4.31-2.3.25-.21.55-.34.88-.36,3.15-.21,5.08-.14,7.63-2.24.79-.65,1.92-.72,2.78-.16,1.39.9,2.35,2.16,2.86,3.77.19.6.71,1.04,1.34,1.12l3.23.41c.35.04.66.24.85.52l1.44,2.15c.6.89,1.81,1.13,2.71.53.03-.02.05-.04.08-.05l2.99-2.23c.25-.19.53-.27.84-.24,1.32.11,2.47.6,3.44,1.49.23.21.51.32.83.31,3.11-.07,5.89.58,8.33,1.97.25.14.53.21.82.22l12.19.24c.36.01.7-.15.92-.43.73-.95.93-2.24.6-3.87-.68-3.46-.84-7.16-.47-11.1.07-.8.3-1.47.69-2.01.21-.29.32-.61.32-.97v-3.21c0-.36.12-.67.36-.93,1-1.1,1.5-2.37,1.52-3.81.01-1.02.85-1.83,1.87-1.81.2,0,.4.04.59.11,1.48.52,2.84,1.29,4.06,2.31.64.54,1.43.78,2.36.7,1.48-.12,2.14-.89,1.99-2.3-.07-.61-.43-1.14-.96-1.43-1.41-.78-2.93-1.49-4.56-2.12-1.72-.66-3.08-.24-4.81.03-.33.05-.65.02-.97-.08-1.89-.62-2.92-.29-4.54.98-1.47,1.15-3.14,1.82-5.02,2.01-1.47.15-3.11-.46-4.85-.41-.33.01-.64-.05-.95-.19-1.31-.6-2.67-.88-4.08-.85-.34,0-.59.15-.76.43-.96,1.55-2.14,2.35-.86,4.42.28.46.14,1.07-.33,1.35-.2.12-.43.17-.66.13-.29-.05-.59-.04-.88.01-.42.07-.72.21-.9.43-.17.22-.26.48-.26.76,0,.34.15.59.43.76l3.07,1.94c.18.11.29.31.29.52v.42c0,.46-.21.6-.63.42-2.1-.86-3.35-.75-3.75.35-.4,1.11-.54,2.29-.4,3.54.04.43-.27.81-.7.86-.19.02-.38-.03-.53-.14-1.02-.74-2.2-1.03-3.55-.87-.5.06-.76-.16-.78-.66-.04-.97.24-1.9.85-2.79.23-.35.38-.73.42-1.16.33-3.22-.19-6.28-1.55-9.17-.14-.31-.38-.55-.68-.69-2.08-1.02-4.07-1.13-5.98-.34-1.84.76-3.93.81-6.27.15-.32-.09-.6-.23-.84-.43-1.3-1.09-2.52-1.08-3.66.03-1.53,1.47-2.85,3.69-3.94,6.66-.15.42-.45.59-.87.53l-5.16-.66c-.68-.08-1.17-.69-1.13-1.38.09-1.21.37-2.37.83-3.48.43-1.01.74-2.05.93-3.13.27-1.54.79-2.51,1.55-2.92,1.2-.64,2.26-1.42,3.17-2.36.28-.29.62-.44,1.03-.43,3.57.02,6.37-1.14,8.4-3.48.28-.31.67-.49,1.09-.49,1.68-.01,3.07.72,4.18,2.2.19.25.41.27.65.06.07-.07.15-.09.24-.07.27.06.41-.05.42-.32.03-.65-.12-1.23-.45-1.73-.19-.27-.26-.58-.23-.9.14-1.4-.42-2.36-1.69-2.87-1.01-.4-1.97-.8-2.9-1.22-1.88-.84-2.59-2.31-2.11-4.4.07-.32.35-.55.68-.55,1.35-.02,2.51.47,3.49,1.47,1.84,1.88,3.84,2.69,6,2.43,3.06-.36,5.24.81,6.54,3.49.87,1.81,2.48,2.16,4.21,1.33.25-.13.52-.22.79-.27.34-.07.54.06.61.39.23,1.05.89,1.73,1.98,2.03.32.09.61.04.86-.17,1.66-1.31,2.82-2.87,3.48-4.66.25-.7.55-1.36.89-1.98.6-1.11.65-2.37.16-3.78-.13-.39.07-.81.46-.95.08-.03.17-.04.25-.04l9.2.14c.34,0,.48-.16.43-.49l-.04-.32c-.07-.46-.33-.72-.78-.79-2.3-.37-4.23-1.51-5.8-3.42-.13-.16-.29-.26-.48-.31-.11-.03-.23-.04-.34-.04-.21,0-.31-.11-.3-.31l.03-.81c0,.1.03.19.08.26.12.17.27.21.46.1,3.75-2.23,7.67-3.06,11.76-2.48,4.69.66,8.48,2.82,11.35,6.49Z"/>
      <path class="cls-3" d="M178.52,39.31c1.37,1.75,2.34,3.59,2.93,5.52.09.32.31.52.64.59,1.63.37,3.35.51,4.83,1.1,7.59,3,11.49,8.65,11.7,16.95-.42.12-.67.34-.76.65-.09.3-.28.43-.59.39-.32-.05-.59-.22-.79-.52-.17-.27-.42-.42-.74-.44l-1.62-.13c-.32-.03-.53.11-.62.42-.27.88-.91,1.17-1.91.86-1.47-.45-2.89-.69-4.25-.72-1.29-.03-2.35-.61-3.61-.9-1.53-.37-2.19-1.49-1.97-3.38.15-1.25-.19-2.36-1.01-3.32-.2-.23-.34-.49-.4-.78-.41-1.78-1.16-3.27-2.26-4.47-.22-.24-.36-.55-.38-.86l-.56-7.14c-.03-.42.03-.81.2-1.19l1.2-2.62Z"/>
      <path class="cls-3" d="M196.96,73.84c3.02,3.36,4.52,7.36,4.5,11.99-1.13.11-2.21.07-3.25-.14-.14-.33-.42-.47-.84-.43-.24.02-.5.13-.76.34-.54.41-1.01.79-1.42,1.15-.51.46-.98.42-1.41-.12-1.09-1.35-2.16-2.95-2-4.72.07-.7-.19-1.42-.78-2.15-.21-.25-.48-.39-.8-.39l-3.76-.1c-.34,0-.64.11-.88.34-.66.63-1.39,1.15-2.21,1.57-.73.38-1.37.46-1.93.24-.55-.2-.9-.59-1.07-1.18-.09-.35-.06-.68.11-1l2.45-4.65c.44-.83,1.37-1.3,2.3-1.15,2.2.35,4.22.85,6.06,1.51.69.24,1.32.34,1.9.28.64-.06,1.27-.16,1.89-.31.32-.07.58-.24.78-.51.38-.5.75-.69,1.12-.57Z"/>
      <path class="cls-1" d="M30.96,73.86c.62.17,1.14.46,1.55.84.4.38.86.48,1.38.28.65-.24,1.27-.24,1.86,0,1.14.46,1.54,1.29,1.22,2.5-.14.5-.02.92.36,1.27.81.75.46,1.73,1.26,2.49.27.26.6.42.97.48.33.05.6-.05.8-.31.54-.69,1.18-.98,1.93-.87,2.16.3,3.09.27,4.54-1.36.22-.25.5-.39.82-.42,3.19-.27,4.82.46,8.09-1.47.31-.18.63-.22.98-.11,1.47.47,2.59,1.38,3.36,2.74.16.29.39.51.68.67,1.35.72,2.63,1.39,3.84,2.02.04.03.59.41,1.66,1.14,2.45,1.7,4.53-.28,6.39-1.63.69-.5,1.63-.43,2.25.15.64.6,1.38,1.02,2.22,1.26,4.03,1.17,7.97,1.69,11.82,1.55,1.44-.05,2.77.73,3.44,2,.58,1.11.96,2.36,1.16,3.76.06.42.26.8.56,1.08l2.47,2.23c.27.25.34.54.18.87l-1.74,3.72c-.16.32-.47.54-.82.58-.68.07-1.36-.03-2.03-.3-2.16-.89-5.76-.87-7.79-.61-1.56.19-2.95.92-4.15,2.19-3.62,2.01-6.58,4.58-8.89,7.71-1.75,2.28-2.79,4.21-3.13,5.79-.3,1.41-1.15,2.21-2.55,2.41-1.27.19-2.38.67-3.32,1.45-.24.2-.52.29-.84.27-2.59-.14-5.2.33-7.81,1.42-.76.32-1.63.14-2.21-.45-.45-.47-.98-.7-1.6-.68-.05,0-.09-.02-.12-.06l-.25-.34c-.13-.18-.3-.3-.51-.36-1.85-.52-3.73-.67-5.64-.45-.28.03-.52.15-.72.35l-.37.37c-.25.25-.55.41-.89.47-1.68.33-3.28.33-4.8,0-.32-.07-.57-.23-.75-.49-.59-.81-1.33-1.42-2.23-1.83-.31-.13-.62-.15-.95-.06-1.55.45-2.7,1.33-3.45,2.64-.78,1.35-1.59,2.73-2.43,4.15-.18.3-.28.63-.3.99-.03.47-.17.89-.44,1.28-.19.26-.44.4-.75.42-2.51.13-4.83-.68-6.97-2.44-.59-.49-.68-1.36-.19-1.95.04-.05.08-.09.12-.13.69-.64,1.41-1.46,1.49-2.48.38-4.35,2.56-6.31,6.56-5.87,1.44.15,2.54-.69,3.42-1.74.24-.27.55-.46.89-.54,1.73-.4,2.99.2,3.77,1.82.17.36.45.57.84.62,1.94.29,4.27.51,6.99.66.7.04,1.22-.28,1.56-.96.21-.4.61-.67,1.06-.69.54-.03.77-.27.69-.71-.08-.5.12-.81.61-.93.62-.15,1-.52,1.16-1.1.09-.32.05-.63-.13-.91-2.53-4.08-3.82-8.42-3.85-13.01-.01-.78-.46-1.48-1.16-1.83l-4.44-2.17c-5.81-4.57-8.05-10.36-6.72-17.37ZM53.43,101.1c.63.88.69,1.89.17,3.01-.31.66-1.02,2.02-2.14,4.08-.17.31-.13.59.11.84l3.04,3.27c.44.48,1.09.7,1.72.58,1.32-.23,2.07-.81,2.25-1.74.08-.44-.02-.93-.31-1.5-.32-.62-.7-1.22-1.14-1.78-.4-.52-.61-1.15-.63-1.87-.03-1.37.32-2.58,1.05-3.62.17-.25.4-.46.66-.62.66-.39.93-.97.82-1.75-.17-1.18-.62-2.36-1.34-3.55-.19-.33-.48-.46-.85-.4l-6.07.95c-.7.11-1.18.75-1.07,1.45.01.09.04.17.07.25.43,1.18,1.39,1.83,2.89,1.95.31.03.6.19.78.45Z"/>
      <path class="cls-3" d="M187.96,103.42c-.86,4.91-2.62,8.98-5.29,12.22-.75.91-1.84,1.78-3.26,2.61-1.21.71-1.55,1.62-.93,2.88-.03.95.18,2.38.63,4.3.48,2.06-.5,4.04-.59,6.12-.06,1.35-.59,2.51-1.59,3.49-.94.93-.99,2.43-.1,3.41,2.01,2.21,3.54,4.91,4.59,8.11.96,2.9,1.03,6,.22,9.32-.36,1.63-.77,3.28-1.26,4.95-.27.95-.62,1.77-1.06,2.47-.63,1.02-1.2,1.72-1.72,2.1-2.55,1.9-5.05,3.67-7.48,5.31-.83.56-1.74,1.01-2.72,1.35-.34.11-.57.33-.7.65-.8,2-1.23,4.01-1.28,6.05-1.43,2.86-2.44,4.72-3.05,5.57-2.58,3.6-6.21,6.13-10.89,7.58-5.6,1.27-10.7.71-15.29-1.68l-1.44-.87c-.27-.16-.62-.13-.86.07-2.61,2.15-4.86,3.97-6.73,5.45-2.43,1.92-5.61,2.9-9.54,2.93-6.25.03-11.46-2.08-15.63-6.35-.24-.24-.53-.3-.85-.19l-4.22,1.48c-5.99,1.1-11.62.09-16.9-3.04l-5.04-5.91-2.42-5.22c-.27-1.49-.53-2.46-.54-4.19-.01-1.66-.7-2.91-2.07-3.77-.45-.28-.9-.57-1.37-.85-1.27-.79-1.87-2-3.05-2.89-1.55-1.16-2.43-2.77-3.37-4.39-.17-.28-.39-.5-.67-.66-.3-.17-.49-.43-.55-.76-.07-.33-.22-.61-.45-.85-1.18-1.2-2.03-2.64-2.56-4.32-.69-2.18-1.3-4.39-1.84-6.62l-.42-2.14c.07-.7-.1-1.33-.52-1.88-.25-.32-.57-.47-.98-.43-1.62.13-2.96.93-4.02,2.42-.82,1.13-2.39,1.38-3.52.57-.08-.06-.15-.12-.23-.18-.44-.4-.89-.78-1.38-1.13-.96-.69-2.14-1.14-3.56-1.36-.34-.05-.66-.18-.95-.39l-2.37-1.74c-.26-.19-.43-.44-.51-.74-.07-.25-.21-.44-.42-.57-1.47-.93-2.88-2.88-4.83-2.53-.82.14-1.54.52-2.16,1.13-.23.23-.5.43-.79.58l-2.16,1.14c-.27.14-.56.2-.87.18l-4.8-.33c-.34-.02-.64.09-.89.33-.65.62-1.4,1.12-2.26,1.49-.32.14-.64.19-.98.14l-3.63-.48c-.3-.04-.5.08-.59.37l-.94,2.91c-.18.54-.76.84-1.3.67-.33-.11-.58-.37-.68-.7l-.62-2.11c-.09-.32-.24-.61-.45-.87-.92-1.19-1.12-2.52-.6-4,.33-.95-.16-1.99-1.11-2.32-.23-.08-.47-.11-.71-.1-1.4.07-2.86.19-4.38.35-1.14.12-1.6-.39-1.39-1.54.52-2.2,1.48-4.34,2.87-6.43,1.15.92,2.24,1.35,3.27,1.28.34-.02.59-.18.75-.47,1.03-1.81,2.62-2.64,4.79-2.5.05,0,.06.03.02.08-.05.06-.06.15-.04.26.01.05.04.07.09.07,1.8.11,3.94-.02,6.43-.37.84-.11,1.73-.14,2.68-.09.32.02.64.12.91.3.64.42,1.36.71,2.16.87.34.07.57.27.69.6.46,1.23.73,2.55.83,3.96.05.7.65,1.22,1.35,1.17.3-.02.58-.15.8-.36,1.19-1.15,2.51-1.5,3.96-1.06,1.92.6,3.71.89,5.37.87,1.07-.01,2.18-.6,3.58-.18.22.07.42.03.6-.12.59-.48,1.2-.8,1.83-.97.98-.24,1.58-1.24,1.33-2.22-.01-.04-.02-.08-.04-.12l-1.86-5.76c-.13-.39-.48-.66-.89-.69-2.31-.16-4.05.45-5.25,1.83-.23.27-.53.45-.88.53-1.45.34-2.8.92-4.05,1.75-.28.19-.49.44-.62.74-.27.61-.73.99-1.36,1.15-.27.06-.49-.01-.67-.22-2.08-2.39-2.61-4.92-1.61-7.57.3-.79,1.09-1.27,1.91-1.18.03,0,.06-.01.08-.04.54-.76,1.34-1.29,2.41-1.61.92-.27,1.84-.11,2.74.5.27.18.59.3.92.32,1.64.13,3.23.26,4.8.39.32.03.63-.04.92-.19.34-.18.63-.42.89-.71,1.35-1.52,4.42-1.5,6.14-1.05.33.09.6.26.8.53,3.12,4.07,3.72,8.33,1.81,12.78-.84,1.95-.36,3.49,1.44,4.61.45.28.76.48.94.59,1.75,1.1,3.06.71,3.93-1.16,1.41-3.02,2.61-6.04,3.61-9.04.51-1.5.82-3.07.93-4.7.11-1.47.73-2.67,1.85-3.58.29-.24.66-.35,1.04-.3,1.6.18,2.59-.44,2.99-1.86.92-3.32,1.94-6.09,3.06-8.3,2.31-3.13,5.27-5.7,8.89-7.71,4.1-2.03,8.38-2.34,12.86-.92.95.3,1.98-.17,2.38-1.09.44-1.02.97-1.77,1.59-2.24.43-.33.86-.33,1.31-.01,1.81,1.35,3.76,2.45,5.84,3.28.85.33,1.52,1.01,1.83,1.87l4.37,11.8c.33.88,1.3,1.33,2.18,1,.23-.09.44-.22.62-.4.79-.8,1.26-1.74,1.41-2.83.07-.57-.05-1.01-.38-1.33-.25-.25-.56-.42-.92-.5-.29-.07-.56-.2-.78-.39l-1.77-1.45c-.51-.43-.74-1.1-.58-1.74.41-1.67,1.4-2.82,2.98-3.46.62-.25,1.11-.74,1.37-1.36.7-1.71,1.44-3.4,2.21-5.07.7-1.53.37-2.72.47-4.33.04-.66.39-.99,1.05-.99.82,0,1.53.27,2.11.78.46.4.67.9.62,1.51-.05.74-.3,1.42-.77,2.06-.2.27-.28.58-.23.91.17,1.19.91,1.82,2.2,1.89.34.02.64.13.9.34,1.13.91,1.29,2.26,1.93,3.25.72,1.12,1.15,2.27,2.2,3.12,1.33,1.06,2.62,2.25,3.88,3.58.53.56.96,1.2,1.28,1.92.27.58.95.83,1.53.57.19-.09.36-.23.48-.41.59-.88,1.11-1.79,1.56-2.72.66-1.39.66-3,.02-4.82-.25-.7.12-1.47.83-1.72.15-.05.31-.08.47-.08l2.42.05c.56,0,1.04.4,1.16.95.21.97.27,2.45.19,4.42-.06,1.34.01,2.36-1.39,3.09-.5.27-.86.75-1.07,1.45-.09.33-.04.63.17.89,1.4,1.82,3.01,3.35,4.82,4.57.57.38,1.33.23,1.72-.33.11-.16.18-.35.2-.55.26-2.41.92-4.72.8-7.15-.13-2.35-.2-4.71-.23-7.06-.02-1.49-.87-3.09-.3-4.8.09-.27.39-.42.66-.33.08.03.14.07.2.13,1.79,1.78,2.24,4.13,3.29,6.35.68,1.43,1.73,1.92,3.15,1.45.34-.11.52-.35.56-.69.09-.66.04-1.3-.13-1.92-.09-.33-.09-.65.01-.98.34-1.07,1.06-1.67,2.16-1.78.31-.03.58-.14.8-.35l1.97-1.76c.28-.25.61-.38.98-.38,1.53-.03,3.01-.05,4.45-.06,1.13,0,2.18.15,3.16.47,1.79.59,3.74.52,5.86-.22,1.31-.45,1.9.01,1.78,1.38-.05.59-.19,1.16-.41,1.71-.45,1.12-1.27,1.75-2.46,1.89l-4.02.5c-.32.04-.63-.01-.92-.16-1.39-.7-2.76-1.02-4.09-.96-.92.04-1.83,0-2.72-.13-2.39-.33-3.37,1.56-4.71,2.98-.29.31-.3.79-.03,1.12,1.77,2.06,4.07,3.22,6.9,3.46.55.05.91.33,1.09.85.31.94.06,1.9-.74,2.88-.29.35-.57.35-.84-.01-1.2-1.53-2.77-2.02-4.71-1.48-.33.09-.56.29-.68.61-.29.7-.57,1.41-.83,2.11-.51,1.35-1.23,1.68-2.55,1.85-.33.04-.6.18-.82.43-.46.54-.7,1.16-.72,1.87,0,.33-.11.63-.31.89-.28.38-.5.79-.66,1.22-.91,2.48-3.69,2.91-6.15,1.92-.6-.23-1.36-.34-2.29-.31-1.97.05-3.85-.59-3.89-2.93-.01-1-.79-1.83-1.79-1.91-1.44-.11-2.9-.21-4.36-.32-.65-.05-1.27-.17-1.86-.38-.42-.15-.83-.29-1.24-.42-1.25-.39-2.55-1.95-3.64-2.75-.27-.19-.45-.45-.55-.76-.28-.84-.88-1.26-1.79-1.25-.46,0-.69.24-.68.69.01.98.33,1.86.96,2.63,2.38,2.95,5.21,4.78,8.5,5.5.33.07.61.22.85.45,5.64,5.5,11.89,6.94,18.75,4.33.86-.33,1.79-.56,2.76-.69.99-.13,1.74-.65,2.25-1.55.84-1.49,1.81-2.69,2.93-3.61.24-.19.52-.27.82-.22,1.46.21,2.78.66,3.95,1.35,3.16,1.84,7.13,2.89,10.51,1.01.64-.35.87-1.15.51-1.79-.09-.17-.23-.32-.38-.43-1.62-1.17-3.75-2-6.4-2.5-1.06-.2-1.61-.81-1.66-1.83-.02-.6.11-1.26.4-1.97.42-.99.75-1.96,1.01-2.9.11-.43.44-.77.87-.9,3.66-1.14,7.53-1.97,11.6-2.49,1.47-.19,2.16-1.26,2.07-3.19-.09-1.91-.25-3.74-.46-5.49-.06-.53.32-1.01.85-1.07.18-.02.36,0,.52.08.84.39,1.55.98,2.13,1.78,1.58,2.15,2.42,4.22,2.51,6.21Z"/>
      <path class="cls-2" d="M37.67,91.23l4.44,2.17c.7.35,1.14,1.05,1.16,1.83.03,4.59,1.32,8.93,3.85,13.01.18.29.22.59.13.91-.15.58-.54.94-1.16,1.1-.49.12-.69.43-.61.93.08.44-.15.68-.69.71-.45.02-.85.29-1.06.69-.34.68-.85,1-1.56.96-2.72-.15-5.05-.38-6.99-.66-.4-.05-.68-.26-.84-.62-.78-1.62-2.04-2.22-3.77-1.82-.35.08-.66.27-.89.54-.87,1.05-1.98,1.89-3.42,1.74-4-.44-6.19,1.52-6.56,5.87-.08,1.03-.79,1.84-1.49,2.48-.56.53-.58,1.4-.06,1.96.04.04.08.08.13.12,2.14,1.76,4.46,2.58,6.97,2.44.32-.02.57-.16.75-.42.27-.38.42-.81.44-1.28.02-.36.12-.68.3-.99.84-1.42,1.66-2.8,2.43-4.15.75-1.31,1.9-2.2,3.45-2.64.32-.09.64-.07.95.06.9.41,1.64,1.02,2.23,1.83.19.26.44.43.75.49,1.51.33,3.11.33,4.8,0,.34-.07.64-.22.89-.47l.37-.37c.2-.2.44-.32.72-.35,1.91-.21,3.79-.06,5.64.45.21.06.39.18.51.36l.25.34s.07.06.12.06c.62-.01,1.15.21,1.6.68.58.59,1.45.77,2.21.45,2.61-1.09,5.22-1.56,7.81-1.42.32.02.6-.07.84-.27.94-.78,2.04-1.26,3.32-1.45,1.4-.2,2.25-1.01,2.55-2.41.34-1.58,1.38-3.51,3.13-5.79-1.12,2.21-2.14,4.98-3.06,8.3-.4,1.42-1.39,2.04-2.99,1.86-.37-.04-.75.06-1.04.3-1.12.91-1.74,2.1-1.85,3.58-.11,1.63-.43,3.19-.93,4.7-1,3-2.2,6.02-3.61,9.04-.87,1.87-2.18,2.26-3.93,1.16-.17-.11-.49-.31-.94-.59-1.8-1.13-2.28-2.66-1.44-4.61,1.91-4.45,1.31-8.71-1.81-12.78-.21-.27-.48-.45-.8-.53-1.72-.45-4.8-.47-6.14,1.05-.26.29-.56.53-.89.71-.29.15-.6.22-.92.19-1.56-.13-3.16-.26-4.8-.39-.34-.03-.65-.14-.92-.32-.9-.61-1.82-.78-2.74-.5-1.07.32-1.88.85-2.41,1.61-.02.03-.05.04-.08.04-.82-.1-1.61.39-1.91,1.18-1.01,2.65-.47,5.18,1.61,7.57.18.21.41.28.67.22.63-.15,1.08-.54,1.36-1.15.13-.31.34-.56.62-.74,1.25-.83,2.6-1.41,4.05-1.75.36-.08.65-.26.88-.53,1.19-1.38,2.94-1.99,5.25-1.83.41.03.77.3.89.69l1.86,5.76c.31.96-.21,1.99-1.17,2.31-.04.01-.08.03-.12.04-.63.16-1.24.48-1.83.97-.18.15-.38.19-.6.12-1.4-.42-2.51.17-3.58.18-1.66.01-3.45-.28-5.37-.87-1.45-.45-2.77-.1-3.96,1.06-.5.49-1.3.48-1.79-.02-.21-.21-.34-.5-.36-.8-.1-1.41-.38-2.73-.83-3.96-.12-.33-.35-.53-.69-.6-.8-.17-1.52-.46-2.16-.87-.28-.18-.59-.28-.91-.3-.95-.05-1.85-.02-2.68.09-2.49.36-4.64.48-6.43.37-.05,0-.08-.02-.09-.07-.02-.11,0-.2.04-.26.04-.05.03-.08-.02-.08-2.16-.14-3.76.69-4.79,2.5-.17.29-.42.45-.75.47-1.03.07-2.12-.35-3.27-1.28,2.41-3.54,6.09-6.26,11.02-8.15.15-.05.22-.22.16-.38,0,0,0-.02,0-.02-3.73-7.81-3.38-14.98,1.05-21.5,4.85-7.14,13.05-9.96,21.53-8.23Z"/>
      <path class="cls-1" d="M198.32,95.89c4.27,1.18,7.51,3.53,9.73,7.06-1.19.93-1.61,2.03-1.25,3.3,0,.02.32.55.92,1.59.43.73.36,1.5-.21,2.3-.9,1.27-.88,2.36.07,3.25.22.2.38.45.46.73.57,1.88,1.42,3.6,2.56,5.18.54.74.72,1.41.56,2.01-.17.62.14,1.27.72,1.53,1.29.57,2.61,1.12,3.98,1.64,1.18.45,2.03.02,2.54-1.28.5-1.25.38-2.43-.36-3.56-.6-.92-.5-1.9.3-2.95.26-.35.4-.78.38-1.22-.03-.76-.23-1.43-.6-1.99-.18-.27-.25-.6-.19-.91l.48-2.52c2.87,1.86,4.91,4.22,6.11,7.08,2.21,5.25,1.86,10.54-1.07,15.88-1.44,2.7-3.59,3.05-6.45,1.05-.44-.31-.93-.46-1.47-.46-.3,0-.58-.16-.74-.41-.38-.59-.86-1.06-1.44-1.4-.47-.28-1.07-.12-1.35.34-.02.03-.03.06-.05.09l-3.17,6.77c-.16.34-.18.69-.06,1.06.48,1.41,1.43,2.13,2.86,2.16.39,0,.73-.12,1.02-.37,1.41-1.21,3.03-1.87,4.87-1.99.37-.03.67.1.91.37.5.57.77,1.23.81,1.97.01.33.1.64.27.93.71,1.27,1.2,2.59,1.48,3.98.01.07.04.14.09.2.68.89,1.31,1.42,1.9,1.59.36.1.57-.03.65-.38.18-.77.22-1.5.12-2.2-.08-.57.31-1.1.89-1.19.14-.02.27-.01.41.02l3.6.9c-.92,7.79-5.1,12.79-12.54,15.01-.28.09-.43.27-.45.56-1.16,13.67-14.2,20.22-25.98,13.29-.29-.17-.55-.13-.76.14-5.13,6.43-11.73,8.35-19.8,5.75-1.07-.92-2.29-1.6-3.67-2.03.05-2.04.47-4.05,1.28-6.05.13-.32.37-.54.7-.65.99-.34,1.89-.79,2.72-1.35,2.43-1.64,4.93-3.41,7.48-5.31.52-.38,1.09-1.08,1.72-2.1.44-.7.79-1.53,1.06-2.47.48-1.67.9-3.32,1.26-4.95l1.27-5.49c.08-.32.27-.42.57-.29,1.37.56,2.95.92,4.72,1.09,1.82.18,3.54-.24,5.16-1.27.59-.38.82-1.12.56-1.77-.82-2.08-.07-4.68-.17-6.5-.07-1.43-.16-2.82-.26-4.16-.06-.9.13-1.62.58-2.17.19-.23.28-.52.26-.81-.09-1.75.24-3.44,1.02-5.08.38-.79.64-1.45.78-1.97.19-.68.41-1.36.63-2.05.1-.32.32-.52.65-.58,2.13-.45,4.17.25,6.1,2.1.56.54,1.45.53,1.99-.03.28-.29.43-.69.39-1.1-.07-.87-.58-1.53-1.55-1.98-2.48-1.16-4.8-1.47-6.97-.95-.29.07-.58.03-.84-.12-.65-.38-1.39-.54-2.22-.5-.34.01-.63.14-.87.38l-2.28,2.32c-.19.19-.45.31-.73.33-.71.05-1.26.61-1.66,1.66-.37.98-.67,1.98-.9,3.01-.25,1.11-.62,2.07-1.11,2.89-.6,1.03-1.28,1.99-2.04,2.91-.46.55-1.25.67-1.85.27-.52-.34-1.01-.72-1.45-1.15-.13-.13-.21-.28-.22-.47-.08-1.05-.44-1.97-1.08-2.77-.21-.25-.33-.54-.37-.86l-1.28-9.62c-.61-1.26-.27-2.16.93-2.88,1.42-.83,2.51-1.7,3.26-2.61,2.67-3.24,4.43-7.31,5.29-12.22.64-.67,1.46-1.2,2.46-1.58,1.21-.47,2.07-.88,2.56-1.25,1.95-1.41,3.73-2.98,5.33-4.71Z"/>
      <path class="cls-2" d="M52.64,100.64c-1.49-.12-2.46-.77-2.89-1.95-.25-.66.09-1.39.75-1.63.08-.03.17-.05.25-.07l6.07-.95c.38-.06.66.07.85.4.72,1.19,1.16,2.37,1.34,3.55.11.78-.17,1.36-.82,1.75-.26.16-.49.37-.66.62-.73,1.04-1.08,2.25-1.05,3.62.02.72.23,1.35.63,1.87.44.56.81,1.16,1.14,1.78.29.56.39,1.06.31,1.5-.18.93-.93,1.51-2.25,1.74-.63.11-1.28-.11-1.72-.58l-3.04-3.27c-.24-.25-.28-.54-.11-.84,1.12-2.06,1.83-3.42,2.14-4.08.52-1.12.46-2.12-.17-3.01-.18-.26-.47-.43-.78-.45Z"/>
      <path class="cls-2" d="M208.05,102.95l1.98,4.05c.14.29.37.45.69.47,2.79.23,5.36,1.09,7.71,2.57l-.48,2.52c-.06.32.01.64.19.91.38.56.58,1.23.6,1.99.01.44-.12.86-.38,1.22-.8,1.05-.9,2.03-.3,2.95.74,1.13.86,2.31.36,3.56-.52,1.3-1.36,1.73-2.54,1.28-1.37-.52-2.69-1.07-3.98-1.64-.59-.26-.89-.91-.72-1.53.16-.6-.03-1.27-.56-2.01-1.14-1.58-1.99-3.3-2.56-5.18-.09-.29-.24-.53-.46-.73-.95-.89-.98-1.97-.07-3.25.57-.8.64-1.57.21-2.3-.61-1.04-.92-1.57-.92-1.59-.36-1.27.05-2.37,1.25-3.3Z"/>
      <path class="cls-2" d="M178.48,121.12l1.28,9.62c.04.32.16.61.37.86.64.8,1,1.73,1.08,2.77.01.19.09.35.22.47.44.43.92.81,1.45,1.15.6.4,1.39.28,1.85-.27.76-.91,1.44-1.88,2.04-2.91.48-.82.85-1.78,1.11-2.89.23-1.03.54-2.03.9-3.01.4-1.05.95-1.61,1.66-1.66.28-.02.54-.14.73-.33l2.28-2.32c.24-.24.53-.37.87-.38.83-.04,1.57.13,2.22.5.27.15.55.19.84.12,2.16-.53,4.49-.21,6.97.95.97.45,1.48,1.11,1.55,1.98.06.77-.51,1.45-1.29,1.52-.4.03-.8-.11-1.1-.39-1.94-1.85-3.97-2.55-6.1-2.1-.34.07-.55.26-.65.58-.23.69-.44,1.37-.63,2.05-.15.52-.41,1.18-.78,1.97-.77,1.64-1.11,3.33-1.02,5.08.02.3-.07.59-.26.81-.45.55-.64,1.27-.58,2.17.1,1.35.19,2.73.26,4.16.1,1.82-.65,4.42.17,6.5.26.65.02,1.39-.56,1.77-1.62,1.03-3.33,1.45-5.16,1.27-1.77-.17-3.34-.53-4.72-1.09-.3-.13-.49-.03-.57.29l-1.27,5.49c.81-3.32.74-6.42-.22-9.32-1.05-3.2-2.58-5.91-4.59-8.11-.89-.97-.84-2.48.1-3.41,1-.98,1.53-2.14,1.59-3.49.09-2.08,1.08-4.06.59-6.12-.45-1.92-.66-3.36-.63-4.3Z"/>
      <path class="cls-2" d="M223.48,133.01c3.65,3.59,5.36,7.94,5.15,13.03l-3.6-.9c-.57-.14-1.14.2-1.28.76-.03.13-.04.27-.02.4.1.7.06,1.43-.12,2.2-.08.36-.3.48-.65.38-.59-.17-1.22-.7-1.9-1.59-.05-.06-.08-.13-.09-.2-.27-1.39-.77-2.71-1.48-3.98-.17-.29-.26-.61-.27-.93-.04-.74-.31-1.4-.81-1.97-.24-.27-.55-.4-.91-.37-1.84.12-3.46.78-4.87,1.99-.29.25-.63.38-1.02.37-1.43-.03-2.38-.75-2.86-2.16-.12-.36-.1-.71.06-1.06l3.17-6.77c.23-.49.81-.71,1.31-.48.03.01.06.03.09.05.58.34,1.06.81,1.44,1.4.16.26.44.41.74.41.54,0,1.03.15,1.47.46,2.86,2,5.01,1.66,6.45-1.05Z"/>
      <path class="cls-2" d="M1.06,135.96c-.21,1.15.25,1.66,1.39,1.54,1.52-.16,2.98-.28,4.38-.35,1-.06,1.86.71,1.92,1.71.01.24-.02.48-.1.71-.52,1.48-.32,2.81.6,4,.21.26.36.55.45.87l.62,2.11c.16.55.73.87,1.28.71.33-.1.59-.35.7-.68l.94-2.91c.09-.29.29-.41.59-.37l3.63.48c.34.05.66,0,.98-.14.86-.37,1.61-.86,2.26-1.49.25-.24.55-.35.89-.33l4.8.33c.32.02.61-.04.87-.18l2.16-1.14c.29-.15.56-.35.79-.58.62-.61,1.34-.99,2.16-1.13,1.95-.34,3.36,1.6,4.83,2.53.21.13.36.33.42.57.08.31.25.56.51.74l2.37,1.74c.29.21.6.34.95.39,1.41.21,2.6.67,3.56,1.36.48.35.94.72,1.38,1.13,1.03.94,2.62.87,3.57-.16.07-.07.13-.15.18-.23,1.06-1.49,2.4-2.3,4.02-2.42.4-.03.73.11.98.43.42.55.6,1.18.52,1.88-.74-.56-1.52-.82-2.34-.78-.36.02-.68.15-.95.39-1.4,1.28-2.14,2.41-4.04,3.19-1.27.53-2.54,1.08-3.8,1.66-1.13.52-2.09,1.19-2.9,1.99-.9.89-1.99,1.37-3.29,1.43-.39.01-.7.35-.69.75,0,.07.02.15.04.22.19.55.22,1.11.07,1.69-.11.44-.04.86.19,1.26.77,1.25,1.66,2.48,2.65,3.67.56.68.96,1.42,1.2,2.22.23.76.48,1.53.76,2.31.13.36.36.66.66.9.84.64,1.34,1.41,1.51,2.3.03.2.14.34.33.41.74.32,1.06.9.96,1.76-.07.59.34,1.13.93,1.2.22.03.44-.01.63-.12,2.61-1.37,4.41-3.46,5.38-6.26.27-.76.1-1.61-.43-2.22-.71-.81-.68-1.6.08-2.36.68-.68,1.79-.68,2.47,0,.03.03.07.07.1.11.86,1.02,1.39,2.16,1.57,3.42.05.33.17.62.36.88.61.81.71,1.71.29,2.68-.15.36-.42.55-.8.57l-1.77.13c-.3.02-.58.18-.74.44-.47.76-.72,1.57-.75,2.42,0,.34.14.66.39.87,1.31,1.1,2.69,1.9,3.88,3.15.63.66,1.49.88,2.58.66.55-.11,1.01-.51,1.19-1.05,1.32-3.92,1.52-7.79.59-11.62-.29-1.17-.89-2.27-1.8-3.32-1.04-1.19-1.81-2.74-2.3-4.63-.52-1.98-.98-3.77-1.38-5.39-.36-1.41-.5-2.35-.42-2.8.54,2.23,1.15,4.43,1.84,6.62.53,1.68,1.38,3.12,2.56,4.32.23.24.39.53.45.85.07.34.25.59.55.76.28.16.51.38.67.66.93,1.62,1.82,3.24,3.37,4.39,1.18.88,1.78,2.09,3.05,2.89.46.29.92.57,1.37.85,1.37.86,2.06,2.11,2.07,3.77.01,1.73.27,2.7.54,4.19-.55-.66-1.08-1.3-1.59-1.94-.23-.29-.47-.45-.72-.47-.36-.05-.66.05-.91.3-.28.27-.42.61-.4,1.02.08,2.79-.94,5.17-3.07,7.12-.88.81-1.9,1.05-3.05.71-2.14-.63-4.23-.86-6.24-.69-.77.06-1.49-.39-1.79-1.11-.35-.86-.72-1.96-1.12-3.28-.2-.7-.92-1.32-2.15-1.86-.94-.42-1.92-.59-2.95-.5-2.67.21-4.7-.03-6.08-.73-1.35-.7-2.77-1.67-4.26-2.91-.53-.45-.79-.33-.77.37.03.9.19,1.89.48,2.97.19.68.61,1.18,1.26,1.48.73.35,1.67.62,2.8.82,1.03.18,1.7.49,2,.91.45.64.5,1.48.15,2.54-3.33,1.35-6.93,1.78-10.8,1.29,1.02-.02,1.94-.41,2.76-1.18.32-.3.7-.41,1.13-.33.65.13,1.29.23,1.92.31,1.05.13,1.63-.28,1.72-1.26.03-.28-.07-.5-.3-.65-1.48-1.03-2.99-1.73-4.52-2.11-.33-.08-.6-.25-.82-.51-1.01-1.21-1.65-2.1-1.9-2.68-1.36-3.14.53-5.63,3.88-5.38.37.03.66.19.86.49l1.16,1.66c.19.29.46.48.79.58.9.29,1.76.67,2.57,1.16.48.28.88.42,1.19.41.72-.03,1.17-.47,1.36-1.34.05-.27.04-.55-.04-.81-.76-2.57-2.47-4.12-5.11-4.63-.9-.18-1.54-.97-1.55-1.88,0-1.84-.43-3.52-1.28-5.04-.53-.96-1.74-1.3-2.69-.77-.08.05-.16.1-.24.16-1.43,1.1-3.18,2.03-5.03,2.32-1.82.29-3.55.78-5.18,1.47-1.05.44-1.55,1.21-1.51,2.32.02.68.32,1.21.9,1.61,1.2.8,2.42,1.44,3.66,1.92.45.17.8.47,1.06.89.43.68.32,1.29-.32,1.83-.18.16-.32.36-.39.59l-.91,2.86c-.11.34-.32.57-.64.71l-3.73,1.71c-4.79-4.87-6.69-10.84-5.72-17.9.05-.33-.09-.53-.41-.61-11.14-2.84-17.51-13.37-14.97-24.57Z"/>
      <path class="cls-1" d="M55.67,147.11l.42,2.14c-.08.46.06,1.39.42,2.8.4,1.62.86,3.41,1.38,5.39.5,1.9,1.26,3.44,2.3,4.63.91,1.05,1.51,2.15,1.8,3.32.92,3.83.73,7.7-.59,11.62-.18.54-.63.93-1.19,1.05-1.09.22-1.95,0-2.58-.66-1.19-1.25-2.57-2.05-3.88-3.15-.25-.22-.4-.54-.39-.87.03-.86.28-1.67.75-2.42.16-.26.44-.42.74-.44l1.77-.13c.38-.03.65-.22.8-.57.42-.98.32-1.87-.29-2.68-.19-.26-.32-.56-.36-.88-.18-1.26-.7-2.4-1.57-3.42-.62-.74-1.73-.83-2.46-.21-.04.03-.07.07-.11.1-.76.76-.79,1.55-.08,2.36.53.61.7,1.46.43,2.22-.97,2.81-2.76,4.9-5.38,6.26-.52.28-1.17.08-1.44-.45-.1-.2-.14-.42-.12-.64.11-.86-.21-1.44-.96-1.76-.19-.07-.3-.21-.33-.41-.17-.89-.67-1.66-1.51-2.3-.31-.24-.53-.54-.66-.9-.28-.78-.54-1.55-.76-2.31-.24-.8-.64-1.54-1.2-2.22-1-1.19-1.88-2.42-2.65-3.67-.23-.4-.3-.81-.19-1.26.15-.58.12-1.14-.07-1.69-.13-.38.06-.79.43-.92.07-.02.14-.04.21-.04,1.29-.06,2.39-.54,3.29-1.43.8-.8,1.77-1.47,2.9-1.99,1.26-.58,2.53-1.13,3.8-1.66,1.9-.77,2.64-1.91,4.04-3.19.27-.24.58-.37.95-.39.82-.04,1.6.22,2.34.78Z"/>
      <path class="cls-3" d="M33.36,184.61c-4.3-.63-8.03-2.49-11.2-5.57l3.73-1.71c.32-.14.54-.38.64-.71l.91-2.86c.07-.23.21-.44.39-.59.64-.54.75-1.15.32-1.83-.25-.42-.61-.72-1.06-.89-1.24-.48-2.46-1.12-3.66-1.92-.58-.4-.88-.93-.9-1.61-.04-1.11.46-1.89,1.51-2.32,1.63-.68,3.35-1.17,5.18-1.47,1.85-.29,3.6-1.23,5.03-2.32.86-.66,2.1-.5,2.77.37.06.08.11.16.16.24.84,1.51,1.27,3.19,1.28,5.04,0,.91.65,1.7,1.55,1.88,2.64.52,4.34,2.06,5.11,4.63.08.26.09.54.04.81-.19.86-.64,1.31-1.36,1.34-.31,0-.7-.13-1.19-.41-.81-.48-1.67-.87-2.57-1.16-.34-.1-.6-.29-.79-.58l-1.16-1.66c-.21-.3-.5-.47-.86-.49-3.35-.25-5.24,2.24-3.88,5.38.25.58.89,1.48,1.9,2.68.22.26.5.43.82.51,1.53.38,3.04,1.09,4.52,2.11.23.15.33.37.3.65-.09.97-.67,1.39-1.72,1.26-.63-.08-1.27-.18-1.92-.31-.43-.08-.8.03-1.13.33-.82.76-1.75,1.16-2.76,1.18Z"/>
      <path class="cls-1" d="M72.57,178.57l2.42,5.22c-8.41,7.75-20.96,7.48-28.96-.78-.23-.24-.49-.29-.79-.16l-1.08.48c.35-1.06.3-1.91-.15-2.54-.3-.43-.97-.73-2-.91-1.14-.2-2.07-.48-2.8-.82-.64-.3-1.06-.79-1.26-1.48-.29-1.07-.46-2.06-.48-2.97-.01-.7.24-.82.77-.37,1.49,1.24,2.92,2.21,4.26,2.91,1.38.7,3.41.95,6.08.73,1.03-.09,2.01.08,2.95.5,1.23.54,1.95,1.16,2.15,1.86.4,1.32.77,2.41,1.12,3.28.29.72,1.02,1.17,1.79,1.11,2.02-.17,4.1.06,6.24.69,1.15.34,2.16.1,3.05-.71,2.12-1.95,3.15-4.32,3.07-7.12-.01-.4.12-.74.4-1.02.25-.25.56-.35.91-.3.25.03.5.18.72.47.51.64,1.04,1.28,1.59,1.94Z"/>
      <path class="cls-4" d="M165.43,178.76c1.38.43,2.6,1.11,3.67,2.03-2.23,17.42-16.8,27.08-33.17,29.31-.33.05-.5.24-.51.57-.05,1.44-.04,2.85.05,4.22.68,11.23.23,21.63,1.02,34.04.38,5.95,1.3,11.32,2.76,16.1.64,2.09,1.96,4.51,4.53,4.52.5,0,.52.1.07.31-.46.21-.9.22-1.33.01-.28-.13-.57-.2-.87-.2h-32.61c-1.05.01-1.11-.24-.19-.75,5.12-2.83,6.72-21.69,7.08-27.12.64-9.56,1.08-19.46,1.34-29.72.01-.42-.32-.78-.74-.79-15.23-.61-30.63-6.34-36.49-21.58,5.28,3.12,10.91,4.14,16.9,3.04,5.67,5.35,12.34,8.09,20.01,8.22.35,0,.53-.16.55-.51l.15-2.64c3.93-.03,7.11-1,9.54-2.93,1.87-1.48,4.11-3.3,6.73-5.45.25-.21.59-.23.86-.07l1.44.87-.6,8.93c-.02.28.2.53.48.55.04,0,.08,0,.12,0,6.23-.97,11.32-3.56,15.29-7.79,4.68-1.45,8.31-3.98,10.89-7.58.6-.85,1.62-2.71,3.05-5.57Z"/>
    </g>
  </g>
</svg>