<?xml version="1.0" encoding="UTF-8"?>
<svg id="_レイヤー_2" data-name="レイヤー 2" xmlns="http://www.w3.org/2000/svg" viewBox="0 0 227.65 268.59">
  <defs>
    <style>
      .cls-1 {
        stroke: #8ec86c;
      }

      .cls-1, .cls-2, .cls-3, .cls-4, .cls-5 {
        fill: none;
        stroke-width: 2px;
      }

      .cls-2 {
        stroke: #b4b47c;
      }

      .cls-3 {
        stroke: #9caa68;
      }

      .cls-4 {
        stroke: #9cce79;
      }

      .cls-6 {
        fill: #afaf8c;
      }

      .cls-6, .cls-7, .cls-8, .cls-9 {
        stroke-width: 0px;
      }

      .cls-7 {
        fill: #96cb73;
      }

      .cls-8 {
        fill: #84c463;
      }

      .cls-5 {
        stroke: #a5d180;
      }

      .cls-9 {
        fill: #b3d68d;
      }
    </style>
  </defs>
  <g id="_レイヤー_1-2" data-name="レイヤー 1">
    <g id="_木前" data-name="木前">
      <path class="cls-5" d="M136.12,4.16c-.89,1.41-1.98,2.19-3.29,2.34-.33.03-.62.16-.87.37-.81.69-1.26,1.58-1.35,2.69-.03.35.12.61.43.77,2.37,1.23,4.7,2.84,6.97,4.81,1.05.91,1.76,2.03,2.15,3.34.53,1.84.93,3.64,1.2,5.41.05.33.25.5.58.5h6.95c.36,0,.58.17.67.52.15.54.28,1.07.41,1.6.19.79.06,1.43-.41,1.92-.45.49-1.03.72-1.73.7-.35-.01-.68-.16-.92-.42-1.51-1.6-3.26-2.13-5.25-1.59-.46.12-.73.6-.6,1.06.04.16.13.3.24.4.32.3.67.58,1.05.85.94.67,1.78.29,2.66,1.38.29.37.43.88.42,1.53-.08,4.23-.22,8.2-.42,11.92-.05,1.09-.55,1.74-1.49,1.97-.65.16-1.36.04-2.11-.37-1.39-.75-2.71-1.67-3.98-2.76-.46-.39-.56-1.05-.23-1.55.66-1.02,1.57-1.89,2.72-2.61.39-.25.54-.61.43-1.06l-1.07-4.31c-.09-.38-.4-.66-.79-.72-.39-.06-.72,0-1.01.17-.69.41-.89.98-.6,1.73.37.94.25,2.01-.36,3.22-.83,1.64-1.84,2.97-3.02,3.98-.72.61-1.79.54-2.41-.18-.11-.12-.2-.26-.26-.41-.57-1.28-1.31-2.55-2.22-3.82-.57-.81-.76-1.58-.57-2.32,1.01-3.77,2.12-7.27,3.33-10.48.4-1.08,1.61-1.63,2.69-1.22.29.11.55.28.77.5.59.61,1.29,1.07,2.09,1.36.57.2.84,0,.82-.6-.05-1.11-.61-1.9-1.7-2.36-1.73-.73-3.83-.82-6.3-.25-.67.15-1.3.39-1.89.72-.63.35-1.26.69-1.9,1-.85.41-1.78.56-2.79.44-1.77-.21-3.45-.56-5.03-1.05-.71-.22-1.46.18-1.68.88-.03.09-.05.18-.05.28l-.19,2.13c-.01.16-.07.31-.17.44-.61.79-.8,1.63-.57,2.52.12.49-.04,1-.41,1.33-.75.67-1.24,1.5-1.48,2.51-.13.54-.67.88-1.22.75-.29-.07-.53-.26-.66-.52-.76-1.53-1.09-3.06-.98-4.59.13-1.82-.59-3.51-2.16-5.08-.22-.22-.48-.35-.79-.4-1.14-.17-2.09-.14-2.86.11-1.54.51-3,1.11-4.62.5-1.46-.55-2.75-.35-3.86.6-.3.25-.52.58-.62.96-.4,1.43-1.21,2.31-2.44,2.62-1.69.43-3.71.72-6.06.85-.35.02-.58.19-.69.52-.11.33-.12.68,0,1.06" vector-effect="non-scaling-stroke"/>
      <path class="cls-1" d="M86.61,30.75c-1.69-.53-3.08-1.35-4.17-2.46" vector-effect="non-scaling-stroke"/>
      <path class="cls-5" d="M154.04,34.75l-.03.81c0,.2.09.3.3.31.11,0,.23.01.34.04.19.05.35.15.48.31,1.56,1.9,3.48,3.03,5.77,3.4.45.07.71.34.78.79l.04.32c.05.33-.1.5-.43.49l-9.15-.14c-.41,0-.74.32-.75.73,0,.09.01.17.04.25.49,1.41.43,2.66-.16,3.76-.34.62-.64,1.28-.89,1.97-.66,1.79-1.81,3.33-3.46,4.64-.25.21-.54.26-.86.17-1.09-.3-1.74-.97-1.97-2.02-.07-.33-.28-.46-.61-.39-.27.05-.54.14-.79.27-1.72.83-3.32.48-4.19-1.32-1.3-2.67-3.47-3.82-6.51-3.47-2.15.25-4.14-.55-5.97-2.42-.97-.99-2.13-1.48-3.47-1.46-.33,0-.61.23-.68.55-.47,2.08.23,3.54,2.1,4.38.92.41,1.88.82,2.88,1.21,1.26.51,1.82,1.46,1.68,2.85-.03.33.04.63.23.9.33.5.48,1.07.45,1.72-.01.27-.15.38-.42.32-.09-.02-.17,0-.24.07-.24.21-.46.19-.65-.06-1.11-1.47-2.49-2.2-4.16-2.19-.41,0-.81.18-1.08.49-2.03,2.33-4.81,3.48-8.36,3.46-.4,0-.74.14-1.02.43-.91.93-1.96,1.72-3.15,2.35-.75.4-1.27,1.37-1.54,2.9-.19,1.07-.5,2.1-.93,3.11-.46,1.1-.74,2.25-.83,3.46-.04.69.45,1.29,1.12,1.37l5.13.66c.43.06.72-.12.87-.53,1.09-2.95,2.39-5.15,3.92-6.62,1.13-1.1,2.35-1.11,3.64-.03.25.2.53.34.84.43,2.33.65,4.41.6,6.24-.15,1.9-.79,3.88-.67,5.95.34.3.14.54.39.68.69,1.35,2.87,1.87,5.91,1.54,9.12-.05.42-.19.8-.42,1.15-.61.89-.89,1.81-.85,2.78.02.5.28.72.78.66,1.34-.15,2.52.14,3.53.87.35.25.84.17,1.09-.18.11-.15.16-.34.14-.53-.13-1.24,0-2.41.4-3.52.39-1.09,1.64-1.21,3.73-.35.42.17.63.03.63-.42v-.42c0-.21-.11-.41-.29-.52l-3.05-1.93c-.28-.17-.42-.43-.43-.76,0-.29.09-.54.26-.76.19-.22.49-.36.9-.43.29-.05.59-.06.88,0,.54.08,1.03-.29,1.11-.83.03-.23-.01-.46-.13-.65-1.27-2.06-.09-2.86.86-4.4.17-.28.43-.42.76-.43,1.41-.03,2.76.26,4.06.85.3.14.61.2.94.19,1.73-.05,3.36.56,4.82.41,1.87-.19,3.53-.86,4.99-2,1.62-1.26,2.64-1.59,4.52-.97.31.1.63.13.96.08,1.72-.27,3.07-.69,4.78-.03,1.63.63,3.14,1.33,4.54,2.11.53.29.88.82.95,1.42.15,1.41-.51,2.17-1.98,2.29-.93.07-1.71-.16-2.35-.7-1.22-1.02-2.57-1.79-4.04-2.3-.95-.34-2,.16-2.34,1.12-.07.19-.1.39-.1.58-.01,1.43-.52,2.7-1.51,3.79-.24.26-.36.57-.36.93v3.19c0,.35-.11.67-.32.96-.39.53-.62,1.2-.69,2-.37,3.92-.21,7.6.47,11.04.33,1.63.13,2.91-.6,3.85-.22.28-.56.44-.92.43l-12.13-.24c-.29,0-.57-.08-.82-.22-2.43-1.38-5.2-2.03-8.29-1.96-.32,0-.6-.1-.83-.31-.97-.88-2.11-1.37-3.42-1.48-.31-.03-.59.05-.84.24l-2.97,2.22c-.86.64-2.07.47-2.72-.39-.02-.03-.04-.05-.05-.08l-1.43-2.14c-.19-.29-.5-.48-.85-.52l-3.21-.41c-.62-.08-1.14-.51-1.33-1.11-.51-1.6-1.45-2.85-2.84-3.75-.86-.55-1.98-.49-2.77.16-2.54,2.09-4.46,2.02-7.59,2.23-.33.03-.63.15-.88.36-1.26,1.08-2.69,1.84-4.29,2.29-1.66.45-1.64,1.86-3.42,2.1-1.29.17-2.07-.4-2.36-1.7-.61-2.81-1.37-5.71-4.84-6.06-1-.1-1.79-.88-1.89-1.87-.16-1.45.22-2.92,1.14-4.4.63-1.02,1.57-1.62,2.82-1.8.35-.05.65-.2.9-.45l5.94-5.88c.81-.81,1.06-1.76.74-2.86l-2.02-6.92" vector-effect="non-scaling-stroke"/>
      <path class="cls-4" d="M102.23,56.63c.12-2.85.33-4.64.62-5.36,1.25-3.09,3.06-5.78,5.45-8.07.25-.23.55-.35.89-.34l1.73.06c.79.03,1.46-.59,1.49-1.38,0-.18-.02-.35-.08-.52-.37-1.08-.75-2.12-1.14-3.13-.35-.89-.94-1.8-1.79-2.72-1.19-1.29-2.33-2.62-3.43-3.99-.21-.26-.33-.55-.36-.88-.11-1.05-.49-1.99-1.13-2.83-.21-.27-.48-.39-.83-.36-.97.08-1.74.57-2.31,1.46-.47.75-1.25,1.24-2.12,1.34-3.55.42-6.84,1.39-9.88,2.92-.3.15-.6.14-.9-.01-.84-.43-1.45-1.12-1.83-2.07" vector-effect="non-scaling-stroke"/>
      <path class="cls-1" d="M102.23,56.63c-.21,1.73.03,3.37.72,4.91.65,1.45.9,2.55.75,3.29-.14.66-.53,1.09-1.18,1.28l-2.39.71c-.39.11-.79-.11-.91-.49-.04-.12-.04-.25-.01-.37l1.4-6.63c.18-.85-.32-1.7-1.16-1.95-1.72-.52-2.82,1.11-3.97,2.09-.99.84-2.07.58-2.89,1.97-.87,1.45-1.29,3.03-1.27,4.74,0,.33-.11.6-.35.83l-2.71,2.52c-.49.45-1.25.42-1.7-.07-.09-.09-.16-.2-.21-.31l-2.1-4.56c-.13-.28-.17-.57-.13-.87.08-.59.22-1.07.41-1.43.51-.97.14-2.18-.83-2.69-.1-.05-.2-.1-.31-.13-1.33-.43-2.25-.31-2.76.36-.27.35-.36,1-.25,1.93.07.67.11,1.35.1,2.04,0,.37-.16.64-.48.82-.28.16-.57.29-.87.38-1.83.53-1.86,1.19-.11,1.96.43.19.83.42,1.2.69.24.18.4.37.47.57.09.23.11.47.07.7-.06.34-.26.49-.6.45-1.97-.21-2.94.7-2.92,2.73,0,1.23-.98,2.23-2.21,2.23-.26,0-.53-.04-.77-.13l-2.8-1.03c-.62-.22-.94-.91-.71-1.52.04-.11.1-.22.17-.32,1.17-1.53,1.63-3.43,1.39-5.7-.07-.72-.26-1.38-.57-1.98-.36-.69-.58-1.44-.66-2.25-.03-.32-.18-.58-.43-.78-.29-.23-.52-.53-.7-.9-.14-.29-.37-.45-.69-.48-1.25-.11-2.49.08-3.71.56-1.47.58-2.65.87-3.54.87-1.76.01-3.46-.01-5.1-.07-.21,0-.43.07-.65.24-.26.19-.55.28-.87.27-.79-.01-1.48.21-2.07.67-.27.21-.43.48-.5.81l-.67,3.29c-.15.74.12,1.51.71,1.99,1.27,1.02,2.25.9,2.92-.35.17-.31.42-.53.75-.64,1.63-.57,3.2-1.45,4.69-2.66.27-.22.58-.33.93-.33h2.2c.39,0,.66.18.81.53l1.46,3.39c.14.33.37.58.7.74.64.31.77.88.39,1.71-.51,1.14-1.41,1.69-2.68,1.65-.29,0-.54.07-.77.24-1.18.87-2.55,1.04-4.1.53-1.34-.44-2.61-.9-3.81-1.38-1.09-.43-2.02-.21-2.8.66-.52.59-1.42.64-2,.12-.21-.19-.37-.44-.44-.72-.33-1.29-.44-2.42-1.51-3.27-.89-.71-1.95-.99-3.18-.84-1.96.24-3.93.53-5.9.87-.53.09-1.3.66-2.31,1.69-.23.25-.52.33-.85.24l-4.73-1.28" vector-effect="non-scaling-stroke"/>
      <path class="cls-5" d="M177.57,39.1l-1.19,2.61c-.17.37-.23.77-.2,1.18l.56,7.1c.03.32.16.62.38.86,1.09,1.19,1.84,2.68,2.25,4.45.07.29.2.55.4.78.81.95,1.15,2.05,1,3.3-.22,1.87.43,2.99,1.96,3.36,1.25.29,2.31.87,3.59.9,1.36.03,2.77.27,4.23.72.99.3,1.63.01,1.9-.86.09-.31.3-.45.62-.42l1.61.13c.32.03.57.17.74.44.21.3.47.47.79.52.31.04.5-.09.59-.39.09-.31.35-.53.76-.65" vector-effect="non-scaling-stroke"/>
      <path class="cls-5" d="M195.91,73.45c-.36-.12-.73.07-1.11.57-.2.27-.46.44-.78.51-.62.15-1.25.25-1.88.31-.57.05-1.2-.04-1.89-.28-1.83-.65-3.84-1.15-6.03-1.5-.93-.15-1.85.31-2.29,1.14l-2.44,4.63c-.17.31-.2.64-.11.99.16.58.51.97,1.06,1.17.55.21,1.19.13,1.92-.24.81-.41,1.55-.93,2.2-1.56.25-.23.54-.35.88-.34l3.74.1c.33,0,.59.14.8.39.59.73.85,1.44.78,2.14-.16,1.76.91,3.35,1.99,4.69.43.53.89.57,1.4.12.41-.35.88-.73,1.41-1.14.27-.21.52-.32.76-.34.42-.04.7.1.84.43,1.03.21,2.11.25,3.23.14" vector-effect="non-scaling-stroke"/>
      <path class="cls-1" d="M197.26,95.38c-1.59,1.71-3.36,3.27-5.3,4.68-.49.36-1.34.77-2.55,1.24-.99.38-1.81.9-2.45,1.57" vector-effect="non-scaling-stroke"/>
      <path class="cls-5" d="M186.96,102.87c-.09-1.98-.93-4.04-2.5-6.18-.57-.79-1.28-1.38-2.12-1.77-.48-.22-1.05-.02-1.28.46-.08.16-.1.34-.08.52.21,1.74.37,3.56.46,5.46.09,1.92-.6,2.98-2.06,3.17-4.05.52-7.9,1.35-11.54,2.48-.43.13-.76.47-.87.9-.25.93-.59,1.89-1,2.88-.29.71-.42,1.36-.4,1.96.05,1.01.6,1.62,1.65,1.82,2.64.5,4.76,1.33,6.37,2.49.59.42.72,1.24.3,1.83-.11.16-.26.29-.43.38-3.36,1.87-7.31.83-10.45-1-1.17-.68-2.48-1.13-3.93-1.34-.31-.05-.58.03-.82.22-1.11.91-2.08,2.11-2.91,3.59-.51.89-1.25,1.41-2.24,1.54-.97.13-1.89.36-2.75.69-6.82,2.59-13.04,1.16-18.65-4.31-.24-.23-.52-.38-.85-.45-3.27-.71-6.08-2.54-8.45-5.47-.62-.77-.94-1.65-.95-2.62,0-.45.22-.68.68-.69.91-.01,1.5.4,1.78,1.24.1.31.28.57.55.76,1.08.8,2.38,2.35,3.62,2.74.4.13.81.27,1.23.42.59.21,1.2.33,1.85.38,1.46.11,2.91.21,4.34.32,1,.08,1.77.9,1.78,1.9.04,2.32,1.91,2.96,3.87,2.91.93-.03,1.69.08,2.28.31,2.45.98,5.21.56,6.12-1.91.16-.43.38-.83.66-1.21.2-.27.3-.56.31-.89.03-.71.27-1.33.72-1.86.22-.25.49-.39.82-.43,1.32-.17,2.03-.5,2.54-1.84.27-.7.54-1.4.83-2.1.13-.32.35-.52.68-.61,1.93-.54,3.49-.05,4.68,1.47.27.35.55.36.84,0,.8-.97,1.05-1.93.74-2.86-.17-.52-.53-.8-1.08-.85-2.81-.24-5.1-1.39-6.86-3.44-.27-.33-.26-.8.03-1.11,1.33-1.41,2.3-3.29,4.68-2.96.89.13,1.79.17,2.71.13,1.33-.06,2.68.26,4.07.95.29.15.6.2.92.16l4-.5c1.19-.14,2-.77,2.45-1.88.22-.55.36-1.11.41-1.7.12-1.36-.47-1.82-1.77-1.37-2.11.73-4.05.81-5.83.22-.97-.32-2.01-.48-3.14-.47-1.43,0-2.91.03-4.43.06-.37,0-.69.13-.97.38l-1.96,1.75c-.23.21-.49.32-.8.35-1.09.11-1.81.7-2.15,1.77-.1.32-.1.64-.01.97.17.62.22,1.26.13,1.91-.04.35-.23.58-.56.69-1.41.47-2.45-.01-3.13-1.44-1.04-2.21-1.49-4.55-3.27-6.32-.2-.2-.53-.2-.74,0-.06.06-.1.12-.12.2-.57,1.7.28,3.29.3,4.77.03,2.34.1,4.68.23,7.02.12,2.42-.54,4.71-.8,7.11-.08.67-.69,1.16-1.36,1.08-.2-.02-.38-.09-.55-.2-1.8-1.22-3.4-2.74-4.79-4.55-.21-.27-.26-.56-.17-.89.21-.69.56-1.17,1.06-1.44,1.39-.72,1.32-1.74,1.38-3.07.08-1.97.02-3.43-.19-4.4-.12-.54-.59-.93-1.15-.94l-2.41-.05c-.75,0-1.36.59-1.37,1.33,0,.16.02.32.08.46.64,1.81.63,3.4-.02,4.79-.45.93-.96,1.83-1.55,2.71-.35.53-1.07.67-1.6.31-.18-.12-.32-.28-.4-.47-.32-.71-.74-1.35-1.27-1.91-1.25-1.32-2.54-2.51-3.86-3.56-1.05-.84-1.47-1.99-2.19-3.1-.64-.98-.8-2.32-1.92-3.23-.26-.21-.56-.32-.9-.34-1.29-.07-2.02-.69-2.19-1.88-.05-.33.03-.64.23-.91.47-.63.72-1.32.77-2.05.05-.6-.16-1.1-.62-1.5-.58-.51-1.28-.77-2.1-.78-.65,0-1,.33-1.04.98-.1,1.6.23,2.79-.47,4.31-.77,1.66-1.5,3.34-2.2,5.04-.26.61-.75,1.1-1.36,1.35-1.57.63-2.55,1.78-2.96,3.44-.15.64.07,1.31.58,1.73l1.76,1.44c.23.19.49.32.78.39.36.09.67.25.92.5.33.31.45.75.38,1.32-.15,1.08-.61,2.02-1.4,2.81-.65.66-1.71.67-2.38.02-.18-.17-.31-.38-.4-.62l-4.35-11.74c-.31-.85-.97-1.53-1.82-1.86-2.07-.83-4.01-1.91-5.81-3.26-.44-.32-.87-.32-1.3,0-.61.47-1.14,1.22-1.58,2.23-.4.91-1.42,1.38-2.37,1.08-4.45-1.41-8.72-1.1-12.79.92" vector-effect="non-scaling-stroke"/>
      <path class="cls-1" d="M79.79,100.08c1.2-1.26,2.58-1.99,4.13-2.18,2.02-.26,5.6-.28,7.75.61.67.27,1.34.37,2.02.3.36-.04.67-.26.82-.58l1.73-3.7c.15-.33.09-.62-.18-.87l-2.46-2.22c-.3-.28-.5-.66-.56-1.07-.19-1.39-.58-2.64-1.15-3.74-.66-1.26-1.99-2.04-3.42-1.99-3.83.14-7.75-.37-11.76-1.54-.84-.24-1.58-.66-2.21-1.25-.61-.58-1.55-.64-2.24-.15-1.85,1.34-3.92,3.31-6.36,1.62-1.06-.73-1.61-1.1-1.65-1.13-1.21-.63-2.48-1.3-3.82-2.01-.29-.16-.52-.38-.68-.67-.77-1.35-1.88-2.26-3.34-2.73-.34-.11-.66-.07-.97.11-3.26,1.92-4.88,1.19-8.05,1.46-.33.03-.6.17-.82.42-1.45,1.62-2.37,1.65-4.52,1.35-.75-.11-1.39.18-1.92.87-.21.26-.47.36-.8.31-.37-.06-.69-.22-.96-.48-.79-.76-.44-1.73-1.25-2.48-.38-.35-.5-.77-.36-1.26.33-1.21-.08-2.04-1.21-2.49-.59-.24-1.2-.24-1.85,0-.51.19-.97.1-1.37-.28-.41-.39-.92-.67-1.54-.84" vector-effect="non-scaling-stroke"/>
      <path class="cls-1" d="M206.94,102.4c-1.19.93-1.6,2.02-1.24,3.28,0,.02.31.55.92,1.58.43.73.36,1.49-.21,2.29-.9,1.27-.88,2.34.07,3.23.22.2.37.44.46.73.57,1.87,1.42,3.58,2.55,5.15.53.74.72,1.41.56,2-.17.61.14,1.26.72,1.52,1.28.57,2.6,1.11,3.96,1.63,1.17.45,2.02.02,2.53-1.27.49-1.24.37-2.42-.36-3.54-.59-.91-.49-1.89.3-2.93.26-.35.39-.78.38-1.21-.03-.76-.23-1.42-.6-1.98-.18-.27-.25-.6-.19-.91l.48-2.51" vector-effect="non-scaling-stroke"/>
      <path class="cls-1" d="M222.29,132.3c-1.43,2.69-3.57,3.03-6.42,1.04-.44-.31-.93-.46-1.46-.46-.3,0-.58-.15-.74-.41-.38-.59-.86-1.05-1.43-1.39-.47-.28-1.07-.12-1.34.34-.02.03-.03.06-.05.09l-3.15,6.73c-.16.34-.18.69-.06,1.05.47,1.4,1.42,2.12,2.84,2.15.39,0,.72-.12,1.01-.37,1.4-1.2,3.01-1.86,4.84-1.98.37-.03.67.1.91.37.5.57.77,1.22.81,1.96.01.33.1.64.27.93.71,1.26,1.2,2.58,1.47,3.96.01.07.04.14.09.2.67.89,1.3,1.41,1.89,1.58.35.1.57-.03.65-.38.18-.77.22-1.5.12-2.19-.08-.57.31-1.1.89-1.18.13-.02.27-.01.4.02l3.58.9" vector-effect="non-scaling-stroke"/>
      <path class="cls-3" d="M168.2,179.83c-1.06-.92-2.28-1.59-3.65-2.02" vector-effect="non-scaling-stroke"/>
      <path class="cls-1" d="M180.68,155.05l1.26-5.46c.08-.32.27-.42.57-.29,1.37.55,2.93.91,4.69,1.08,1.81.18,3.52-.24,5.13-1.26.58-.38.82-1.11.56-1.76-.82-2.07-.07-4.66-.17-6.47-.07-1.42-.16-2.8-.26-4.14-.06-.89.13-1.61.58-2.16.19-.23.28-.51.26-.81-.09-1.74.24-3.42,1.01-5.05.37-.79.63-1.44.78-1.96.19-.67.4-1.35.63-2.04.1-.32.32-.51.65-.58,2.12-.45,4.14.25,6.07,2.09.55.54,1.44.52,1.98-.03.28-.29.42-.69.39-1.09-.07-.87-.58-1.52-1.54-1.97-2.47-1.15-4.78-1.47-6.93-.94-.29.07-.57.03-.84-.12-.65-.37-1.38-.54-2.21-.5-.34.01-.63.14-.87.38l-2.27,2.31c-.19.19-.45.31-.73.33-.71.05-1.26.6-1.65,1.65-.37.97-.67,1.97-.9,2.99-.25,1.1-.62,2.06-1.1,2.87-.6,1.02-1.28,1.98-2.03,2.89-.45.55-1.25.66-1.84.27-.52-.33-1-.71-1.44-1.14-.13-.13-.21-.28-.22-.47-.08-1.04-.44-1.96-1.07-2.76-.21-.25-.33-.54-.37-.86l-1.27-9.57" vector-effect="non-scaling-stroke"/>
      <path class="cls-4" d="M186.96,102.87c-.85,4.88-2.61,8.93-5.26,12.15-.75.91-1.83,1.77-3.24,2.6-1.2.71-1.54,1.61-.93,2.86" vector-effect="non-scaling-stroke"/>
      <path class="cls-5" d="M177.53,120.48c-.03.94.18,2.37.63,4.28.48,2.05-.5,4.02-.59,6.09-.06,1.34-.59,2.5-1.58,3.47-.94.92-.98,2.42-.1,3.39,2,2.19,3.52,4.88,4.57,8.07.95,2.88,1.03,5.97.22,9.27" vector-effect="non-scaling-stroke"/>
      <path class="cls-4" d="M180.68,155.05c-.35,1.62-.77,3.26-1.25,4.92-.27.94-.62,1.76-1.05,2.46-.63,1.01-1.2,1.71-1.71,2.09-2.54,1.89-5.02,3.65-7.44,5.28-.83.55-1.73,1-2.71,1.34-.33.11-.57.33-.7.65-.8,1.99-1.22,3.99-1.27,6.02" vector-effect="non-scaling-stroke"/>
      <path class="cls-2" d="M164.55,177.81c-1.42,2.85-2.43,4.69-3.03,5.54-2.57,3.58-6.18,6.09-10.83,7.54" vector-effect="non-scaling-stroke"/>
      <path class="cls-2" d="M135.48,189.22l-1.43-.87c-.27-.16-.61-.13-.86.07-2.6,2.14-4.83,3.95-6.69,5.42-2.42,1.91-5.58,2.88-9.49,2.91" vector-effect="non-scaling-stroke"/>
      <path class="cls-2" d="M96.41,191.71c-5.95,1.09-11.56.09-16.81-3.02" vector-effect="non-scaling-stroke"/>
      <path class="cls-4" d="M74.59,182.81l-2.41-5.19" vector-effect="non-scaling-stroke"/>
      <path class="cls-5" d="M72.18,177.62c-.27-1.48-.53-2.45-.54-4.17-.01-1.65-.7-2.9-2.06-3.75-.45-.28-.9-.56-1.36-.85-1.26-.79-1.86-1.99-3.03-2.87-1.54-1.15-2.42-2.76-3.35-4.37-.17-.28-.39-.5-.67-.66-.3-.17-.48-.43-.55-.76-.07-.33-.22-.61-.45-.85-1.17-1.19-2.02-2.63-2.55-4.3-.69-2.17-1.3-4.37-1.83-6.58" vector-effect="non-scaling-stroke"/>
      <path class="cls-4" d="M55.79,148.46l-.42-2.13" vector-effect="non-scaling-stroke"/>
      <path class="cls-5" d="M55.37,146.33c.07-.7-.1-1.32-.52-1.87-.25-.32-.57-.46-.97-.43-1.61.13-2.95.93-4,2.41-.81,1.12-2.38,1.38-3.5.56-.08-.06-.15-.12-.23-.18-.43-.4-.89-.77-1.37-1.12-.95-.69-2.13-1.14-3.54-1.35-.34-.05-.65-.18-.94-.39l-2.36-1.73c-.26-.19-.43-.43-.51-.74-.07-.25-.21-.44-.42-.57-1.46-.93-2.86-2.86-4.8-2.52-.82.14-1.54.51-2.15,1.12-.23.23-.5.43-.79.58l-2.15,1.13c-.27.14-.56.2-.87.18l-4.77-.33c-.34-.02-.64.09-.89.33-.65.62-1.4,1.11-2.25,1.48-.31.14-.64.19-.97.14l-3.61-.48c-.3-.04-.5.08-.59.37l-.93,2.89c-.17.54-.75.84-1.3.66-.33-.11-.58-.37-.67-.69l-.62-2.1c-.09-.32-.24-.61-.45-.87-.91-1.18-1.11-2.51-.6-3.98.33-.94-.16-1.98-1.1-2.31-.23-.08-.47-.11-.71-.1-1.39.07-2.85.19-4.36.35-1.13.12-1.59-.39-1.38-1.53" vector-effect="non-scaling-stroke"/>
      <path class="cls-5" d="M3.9,128.84c1.14.92,2.22,1.34,3.25,1.27.33-.02.58-.18.75-.47,1.02-1.8,2.61-2.63,4.76-2.49.05,0,.06.03.02.08-.05.06-.06.15-.04.26.01.05.04.07.09.07,1.79.11,3.92-.02,6.4-.37.83-.11,1.72-.14,2.67-.09.32.02.63.12.91.3.64.41,1.36.7,2.15.87.34.07.57.27.69.6.45,1.23.73,2.54.83,3.94.05.69.65,1.22,1.35,1.17.3-.02.58-.15.79-.36,1.18-1.15,2.49-1.5,3.94-1.05,1.91.59,3.69.88,5.34.87,1.06,0,2.17-.6,3.56-.18.22.07.42.03.6-.12.59-.48,1.19-.8,1.82-.96.98-.24,1.57-1.23,1.33-2.21-.01-.04-.02-.08-.04-.12l-1.85-5.73c-.13-.39-.48-.66-.89-.69-2.29-.16-4.03.45-5.22,1.82-.23.27-.53.45-.88.53-1.44.33-2.78.91-4.03,1.74-.28.19-.49.43-.62.74-.27.61-.72.99-1.35,1.14-.27.06-.49-.01-.67-.22-2.07-2.38-2.6-4.89-1.6-7.53.3-.78,1.08-1.27,1.9-1.17.03,0,.06-.01.08-.04.53-.75,1.33-1.29,2.4-1.6.92-.27,1.83-.11,2.73.5.27.18.59.29.92.32,1.63.13,3.22.26,4.77.39.32.03.63-.04.92-.19.33-.18.63-.42.89-.71,1.34-1.51,4.4-1.49,6.11-1.04.33.09.59.26.8.53,3.1,4.05,3.7,8.28,1.8,12.71-.83,1.94-.36,3.47,1.43,4.59.45.28.76.48.93.59,1.74,1.09,3.04.71,3.91-1.15,1.4-3.01,2.6-6,3.59-8.99.51-1.49.82-3.05.93-4.67.11-1.47.73-2.65,1.84-3.56.29-.24.66-.34,1.03-.3,1.59.18,2.58-.44,2.97-1.85.91-3.31,1.93-6.06,3.04-8.26" vector-effect="non-scaling-stroke"/>
      <path class="cls-4" d="M79.79,100.08c-3.6,2-6.55,4.56-8.84,7.67" vector-effect="non-scaling-stroke"/>
      <path class="cls-1" d="M70.95,107.75c-1.74,2.27-2.78,4.19-3.11,5.76-.3,1.4-1.15,2.2-2.54,2.4-1.27.19-2.37.67-3.3,1.44-.24.2-.52.29-.84.27-2.58-.14-5.17.33-7.77,1.41-.75.31-1.63.14-2.2-.45-.45-.47-.98-.69-1.59-.68-.05,0-.09-.02-.12-.06l-.25-.34c-.13-.18-.3-.3-.51-.36-1.84-.51-3.71-.66-5.61-.45-.28.03-.52.15-.72.35l-.37.37c-.25.25-.55.4-.89.47-1.67.33-3.26.33-4.77,0-.31-.07-.56-.23-.75-.49-.59-.81-1.33-1.41-2.22-1.82-.31-.13-.62-.15-.94-.06-1.54.45-2.68,1.32-3.43,2.63-.77,1.34-1.58,2.72-2.42,4.13-.18.3-.28.63-.3.98-.03.47-.17.89-.44,1.27-.19.26-.44.4-.75.42-2.49.13-4.8-.68-6.93-2.43-.59-.48-.67-1.35-.19-1.94.04-.05.08-.09.12-.13.69-.64,1.4-1.45,1.48-2.47.37-4.33,2.55-6.27,6.53-5.84,1.43.15,2.53-.69,3.4-1.73.23-.27.55-.46.89-.54,1.72-.4,2.97.2,3.75,1.81.17.36.45.57.84.62,1.93.29,4.24.51,6.95.66.7.04,1.22-.28,1.55-.95.21-.4.61-.67,1.05-.69.54-.03.77-.27.69-.71-.08-.5.12-.81.61-.93.61-.15,1-.52,1.15-1.09.09-.32.05-.62-.13-.91-2.52-4.06-3.8-8.37-3.83-12.94-.01-.77-.46-1.48-1.15-1.82l-4.42-2.16" vector-effect="non-scaling-stroke"/>
      <path class="cls-1" d="M55.37,146.33c-.74-.56-1.52-.82-2.33-.78-.36.02-.67.15-.94.39-1.39,1.27-2.13,2.4-4.02,3.17-1.27.53-2.53,1.08-3.78,1.65-1.12.52-2.08,1.18-2.88,1.98-.89.89-1.98,1.36-3.27,1.42-.39.01-.7.35-.68.74,0,.07.02.15.04.22.19.55.22,1.11.07,1.68-.11.44-.04.86.19,1.25.77,1.25,1.65,2.46,2.64,3.65.55.67.95,1.41,1.19,2.21.23.76.48,1.53.76,2.3.13.36.35.66.66.9.83.64,1.33,1.4,1.5,2.29.03.2.14.34.33.41.74.31,1.06.9.95,1.75-.07.59.34,1.12.92,1.2.22.03.43-.01.63-.12,2.6-1.36,4.38-3.44,5.35-6.23.27-.76.1-1.61-.43-2.21-.71-.81-.68-1.59.08-2.35.68-.68,1.78-.68,2.46,0,.03.03.07.07.1.11.86,1.01,1.38,2.15,1.56,3.4.05.33.17.62.36.88.61.81.7,1.7.29,2.67-.15.35-.42.54-.8.57l-1.76.13c-.3.02-.58.18-.74.44-.47.75-.72,1.56-.75,2.41,0,.33.14.65.39.87,1.3,1.09,2.68,1.89,3.86,3.13.63.66,1.48.88,2.57.66.55-.11,1-.51,1.18-1.04,1.31-3.9,1.51-7.75.59-11.56-.29-1.16-.88-2.26-1.79-3.3-1.03-1.19-1.8-2.72-2.29-4.61-.51-1.97-.97-3.75-1.37-5.36-.36-1.41-.5-2.34-.42-2.79" vector-effect="non-scaling-stroke"/>
      <path class="cls-1" d="M72.18,177.62c-.55-.65-1.07-1.3-1.58-1.93-.23-.29-.47-.44-.72-.47-.35-.05-.66.05-.91.3-.28.27-.41.61-.4,1.01.08,2.78-.94,5.14-3.05,7.08-.88.81-1.89,1.04-3.03.71-2.13-.63-4.2-.86-6.21-.69-.77.06-1.49-.38-1.78-1.1-.35-.86-.72-1.95-1.11-3.26-.2-.69-.91-1.31-2.14-1.85-.93-.42-1.91-.59-2.93-.5-2.66.21-4.68-.03-6.05-.73-1.34-.69-2.75-1.66-4.24-2.89-.53-.45-.78-.32-.77.37.03.9.19,1.88.48,2.95.19.68.61,1.17,1.25,1.47.73.35,1.66.62,2.79.82,1.03.18,1.69.48,1.99.91.45.63.5,1.48.15,2.53" vector-effect="non-scaling-stroke"/>
      <path class="cls-5" d="M33.18,183.63c1.01-.02,1.93-.41,2.75-1.17.32-.3.69-.41,1.12-.33.65.13,1.28.23,1.91.31,1.05.13,1.62-.28,1.71-1.25.03-.28-.07-.5-.3-.65-1.47-1.02-2.97-1.72-4.5-2.1-.33-.08-.6-.25-.82-.51-1.01-1.2-1.64-2.09-1.89-2.67-1.35-3.12.53-5.6,3.86-5.35.37.03.65.19.86.49l1.15,1.65c.19.29.46.48.79.58.9.29,1.75.67,2.56,1.15.48.28.87.42,1.18.41.71-.03,1.16-.47,1.35-1.33.05-.27.04-.55-.04-.81-.76-2.56-2.45-4.1-5.08-4.61-.89-.18-1.53-.96-1.54-1.87,0-1.83-.43-3.5-1.27-5.01-.53-.95-1.73-1.29-2.67-.77-.08.05-.16.1-.24.16-1.42,1.09-3.16,2.02-5,2.31-1.81.29-3.53.78-5.15,1.46-1.04.43-1.54,1.2-1.5,2.31.02.67.32,1.21.9,1.6,1.19.8,2.41,1.44,3.64,1.91.45.17.8.47,1.05.89.43.67.32,1.28-.32,1.82-.18.16-.32.36-.39.59l-.91,2.84c-.11.33-.32.57-.64.71l-3.71,1.7" vector-effect="non-scaling-stroke"/>
      <path class="cls-1" d="M126.49,9.88c-.07-.87-.46-1.45-1.17-1.74-.49-.2-1.04-.01-1.31.44-.59,1.04-.92,1.89-1.79,2.8-1.08,1.14-2.15,2.52-3.22,4.15-.26.4-.18.71.25.93,1.41.72,1.76,1.78,1.06,3.18-.24.49-.83.68-1.32.44-.16-.08-.29-.2-.39-.35-1.34-2.07-3.1-3.29-5.29-3.68-.35-.07-.65-.23-.9-.48-.84-.85-1.53-1.82-2.08-2.89-.16-.31-.41-.48-.75-.52-.57-.06-1.04.16-1.39.67-.19.27-.25.57-.19.89.42,2.27-.35,4.16-2.31,5.69-1.2.94-1.92.66-2.15-.85-.06-.41-.1-.83-.12-1.26-.04-.8-.71-1.42-1.51-1.38-.08,0-.16.01-.25.03-.68.15-1.3.59-1.85,1.32-.2.27-.46.44-.78.52-2.07.55-6.15,1.43-7.47,3.21-.89,1.19-.18,2.46-1.58,3.52-.65.49-.78,1.41-.3,2.05.14.19.33.35.55.45.83.39,1.82.49,2.96.3.51-.09.91-.32,1.21-.7.38-.49.62-1.02.72-1.59.39-2.22,2.89-3.22,4.79-2.39,1.32.58,2.61.6,3.86.07,1.55-.66,3.32-.44,4.76.19,2.1.91,4.74.47,6.84.17.33-.05.6-.19.83-.42.86-.88,2.25-1.07,3.28-.35,1.23.85,2.61,1.08,4.15.69,1.05-.27,2.03-.67,2.92-1.21,1.49-.9,3.32-.9,5.01-.9.46,0,.83-.36.84-.82,0-.05,0-.09-.01-.14-.21-1.4.23-2.58,1.3-3.54,1.01-.91,1-1.85-.04-2.81-.44-.4-1.06-.52-1.61-.31-1.23.47-2.11,1.26-2.62,2.37-.21.45-.63.77-1.12.86-1.1.2-1.59-.19-1.46-1.17.13-1.04.36-2.08.67-3.12.21-.69.02-1.21-.57-1.58-.27-.17-.42-.42-.45-.74" vector-effect="non-scaling-stroke"/>
      <path class="cls-1" d="M53.14,100.56c.63.88.68,1.88.17,2.99-.31.66-1.02,2.01-2.13,4.06-.17.31-.13.59.11.84l3.02,3.25c.44.47,1.08.69,1.71.58,1.31-.23,2.06-.8,2.24-1.73.08-.43-.02-.93-.31-1.49-.32-.62-.7-1.21-1.13-1.77-.4-.52-.61-1.14-.63-1.86-.03-1.37.31-2.57,1.04-3.6.17-.25.4-.46.66-.62.65-.39.93-.97.82-1.74-.17-1.17-.62-2.35-1.33-3.53-.19-.33-.48-.46-.85-.4l-6.04.94c-.69.11-1.17.75-1.07,1.44.01.09.04.17.07.25.43,1.17,1.38,1.82,2.87,1.94.31.03.6.19.78.45" vector-effect="non-scaling-stroke"/>
      <path class="cls-7" d="M136.12,4.16c-.89,1.41-1.98,2.19-3.29,2.34-.33.03-.62.16-.87.37-.81.69-1.26,1.58-1.35,2.69-.03.35.12.61.43.77,2.37,1.23,4.7,2.84,6.97,4.81,1.05.91,1.76,2.03,2.15,3.34.53,1.84.93,3.64,1.2,5.41.05.33.25.5.58.5h6.95c.36,0,.58.17.67.52.15.54.28,1.07.41,1.6.19.79.06,1.43-.41,1.92-.45.49-1.03.72-1.73.7-.35-.01-.68-.16-.92-.42-1.51-1.6-3.26-2.13-5.25-1.59-.46.12-.73.6-.6,1.06.04.16.13.3.24.4.32.3.67.58,1.05.85.94.67,1.78.29,2.66,1.38.29.37.43.88.42,1.53-.08,4.23-.22,8.2-.42,11.92-.05,1.09-.55,1.74-1.49,1.97-.65.16-1.36.04-2.11-.37-1.39-.75-2.71-1.67-3.98-2.76-.46-.39-.56-1.05-.23-1.55.66-1.02,1.57-1.89,2.72-2.61.39-.25.54-.61.43-1.06l-1.07-4.31c-.09-.38-.4-.66-.79-.72-.39-.06-.72,0-1.01.17-.69.41-.89.98-.6,1.73.37.94.25,2.01-.36,3.22-.83,1.64-1.84,2.97-3.02,3.98-.72.61-1.79.54-2.41-.18-.11-.12-.2-.26-.26-.41-.57-1.28-1.31-2.55-2.22-3.82-.57-.81-.76-1.58-.57-2.32,1.01-3.77,2.12-7.27,3.33-10.48.4-1.08,1.61-1.63,2.69-1.22.29.11.55.28.77.5.59.61,1.29,1.07,2.09,1.36.57.2.84,0,.82-.6-.05-1.11-.61-1.9-1.7-2.36-1.73-.73-3.83-.82-6.3-.25-.67.15-1.3.39-1.89.72-.63.35-1.26.69-1.9,1-.85.41-1.78.56-2.79.44-1.77-.21-3.45-.56-5.03-1.05-.71-.22-1.46.18-1.68.88-.03.09-.05.18-.05.28l-.19,2.13c-.01.16-.07.31-.17.44-.61.79-.8,1.63-.57,2.52.12.49-.04,1-.41,1.33-.75.67-1.24,1.5-1.48,2.51-.13.54-.67.88-1.22.75-.29-.07-.53-.26-.66-.52-.76-1.53-1.09-3.06-.98-4.59.13-1.82-.59-3.51-2.16-5.08-.22-.22-.48-.35-.79-.4-1.14-.17-2.09-.14-2.86.11-1.54.51-3,1.11-4.62.5-1.46-.55-2.75-.35-3.86.6-.3.25-.52.58-.62.96-.4,1.43-1.21,2.31-2.44,2.62-1.69.43-3.71.72-6.06.85-.35.02-.58.19-.69.52-.11.33-.12.68,0,1.06-1.69-.53-3.08-1.35-4.17-2.46l4.96-3.16c.26-.17.33-.39.21-.67-3.99-9.83,3.02-19.67,13.77-17.38.36.08.63-.04.82-.36,4.18-7.4,13.72-9.11,19.86-2.99.23.23.49.27.78.11,4.52-2.51,8.95-2.41,13.28.32ZM126.49,9.88c-.07-.87-.46-1.45-1.17-1.74-.49-.2-1.04-.01-1.31.44-.59,1.04-.92,1.89-1.79,2.8-1.08,1.14-2.15,2.52-3.22,4.15-.26.4-.18.71.25.93,1.41.72,1.76,1.78,1.06,3.18-.24.49-.83.68-1.32.44-.16-.08-.29-.2-.39-.35-1.34-2.07-3.1-3.29-5.29-3.68-.35-.07-.65-.23-.9-.48-.84-.85-1.53-1.82-2.08-2.89-.16-.31-.41-.48-.75-.52-.57-.06-1.04.16-1.39.67-.19.27-.25.57-.19.89.42,2.27-.35,4.16-2.31,5.69-1.2.94-1.92.66-2.15-.85-.06-.41-.1-.83-.12-1.26-.04-.8-.71-1.42-1.51-1.38-.08,0-.16.01-.25.03-.68.15-1.3.59-1.85,1.32-.2.27-.46.44-.78.52-2.07.55-6.15,1.43-7.47,3.21-.89,1.19-.18,2.46-1.58,3.52-.65.49-.78,1.41-.3,2.05.14.19.33.35.55.45.83.39,1.82.49,2.96.3.51-.09.91-.32,1.21-.7.38-.49.62-1.02.72-1.59.39-2.22,2.89-3.22,4.79-2.39,1.32.58,2.61.6,3.86.07,1.55-.66,3.32-.44,4.76.19,2.1.91,4.74.47,6.84.17.33-.05.6-.19.83-.42.86-.88,2.25-1.07,3.28-.35,1.23.85,2.61,1.08,4.15.69,1.05-.27,2.03-.67,2.92-1.21,1.49-.9,3.32-.9,5.01-.9.46,0,.83-.36.84-.82,0-.05,0-.09-.01-.14-.21-1.4.23-2.58,1.3-3.54,1.01-.91,1-1.85-.04-2.81-.44-.4-1.06-.52-1.61-.31-1.23.47-2.11,1.26-2.62,2.37-.21.45-.63.77-1.12.86-1.1.2-1.59-.19-1.46-1.17.13-1.04.36-2.08.67-3.12.21-.69.02-1.21-.57-1.58-.27-.17-.42-.42-.45-.74Z"/>
      <path class="cls-9" d="M136.12,4.16c2.28,1.57,3.82,3.61,4.63,6.13.1.32.31.51.64.58,1.93.41,3.93.76,5.55,1.9,5.82,4.09,7.23,9.61,4.22,16.56-.13.3-.09.57.12.82,1.21,1.37,2.13,2.9,2.76,4.6l-.03.81c0,.2.09.3.3.31.11,0,.23.01.34.04.19.05.35.15.48.31,1.56,1.9,3.48,3.03,5.77,3.4.45.07.71.34.78.79l.04.32c.05.33-.1.5-.43.49l-9.15-.14c-.41,0-.74.32-.75.73,0,.09.01.17.04.25.49,1.41.43,2.66-.16,3.76-.34.62-.64,1.28-.89,1.97-.66,1.79-1.81,3.33-3.46,4.64-.25.21-.54.26-.86.17-1.09-.3-1.74-.97-1.97-2.02-.07-.33-.28-.46-.61-.39-.27.05-.54.14-.79.27-1.72.83-3.32.48-4.19-1.32-1.3-2.67-3.47-3.82-6.51-3.47-2.15.25-4.14-.55-5.97-2.42-.97-.99-2.13-1.48-3.47-1.46-.33,0-.61.23-.68.55-.47,2.08.23,3.54,2.1,4.38.92.41,1.88.82,2.88,1.21,1.26.51,1.82,1.46,1.68,2.85-.03.33.04.63.23.9.33.5.48,1.07.45,1.72-.01.27-.15.38-.42.32-.09-.02-.17,0-.24.07-.24.21-.46.19-.65-.06-1.11-1.47-2.49-2.2-4.16-2.19-.41,0-.81.18-1.08.49-2.03,2.33-4.81,3.48-8.36,3.46-.4,0-.74.14-1.02.43-.91.93-1.96,1.72-3.15,2.35-.75.4-1.27,1.37-1.54,2.9-.19,1.07-.5,2.1-.93,3.11-.46,1.1-.74,2.25-.83,3.46-.04.69.45,1.29,1.12,1.37l5.13.66c.43.06.72-.12.87-.53,1.09-2.95,2.39-5.15,3.92-6.62,1.13-1.1,2.35-1.11,3.64-.03.25.2.53.34.84.43,2.33.65,4.41.6,6.24-.15,1.9-.79,3.88-.67,5.95.34.3.14.54.39.68.69,1.35,2.87,1.87,5.91,1.54,9.12-.05.42-.19.8-.42,1.15-.61.89-.89,1.81-.85,2.78.02.5.28.72.78.66,1.34-.15,2.52.14,3.53.87.35.25.84.17,1.09-.18.11-.15.16-.34.14-.53-.13-1.24,0-2.41.4-3.52.39-1.09,1.64-1.21,3.73-.35.42.17.63.03.63-.42v-.42c0-.21-.11-.41-.29-.52l-3.05-1.93c-.28-.17-.42-.43-.43-.76,0-.29.09-.54.26-.76.19-.22.49-.36.9-.43.29-.05.59-.06.88,0,.54.08,1.03-.29,1.11-.83.03-.23-.01-.46-.13-.65-1.27-2.06-.09-2.86.86-4.4.17-.28.43-.42.76-.43,1.41-.03,2.76.26,4.06.85.3.14.61.2.94.19,1.73-.05,3.36.56,4.82.41,1.87-.19,3.53-.86,4.99-2,1.62-1.26,2.64-1.59,4.52-.97.31.1.63.13.96.08,1.72-.27,3.07-.69,4.78-.03,1.63.63,3.14,1.33,4.54,2.11.53.29.88.82.95,1.42.15,1.41-.51,2.17-1.98,2.29-.93.07-1.71-.16-2.35-.7-1.22-1.02-2.57-1.79-4.04-2.3-.95-.34-2,.16-2.34,1.12-.07.19-.1.39-.1.58-.01,1.43-.52,2.7-1.51,3.79-.24.26-.36.57-.36.93v3.19c0,.35-.11.67-.32.96-.39.53-.62,1.2-.69,2-.37,3.92-.21,7.6.47,11.04.33,1.63.13,2.91-.6,3.85-.22.28-.56.44-.92.43l-12.13-.24c-.29,0-.57-.08-.82-.22-2.43-1.38-5.2-2.03-8.29-1.96-.32,0-.6-.1-.83-.31-.97-.88-2.11-1.37-3.42-1.48-.31-.03-.59.05-.84.24l-2.97,2.22c-.86.64-2.07.47-2.72-.39-.02-.03-.04-.05-.05-.08l-1.43-2.14c-.19-.29-.5-.48-.85-.52l-3.21-.41c-.62-.08-1.14-.51-1.33-1.11-.51-1.6-1.45-2.85-2.84-3.75-.86-.55-1.98-.49-2.77.16-2.54,2.09-4.46,2.02-7.59,2.23-.33.03-.63.15-.88.36-1.26,1.08-2.69,1.84-4.29,2.29-1.66.45-1.64,1.86-3.42,2.1-1.29.17-2.07-.4-2.36-1.7-.61-2.81-1.37-5.71-4.84-6.06-1-.1-1.79-.88-1.89-1.87-.16-1.45.22-2.92,1.14-4.4.63-1.02,1.57-1.62,2.82-1.8.35-.05.65-.2.9-.45l5.94-5.88c.81-.81,1.06-1.76.74-2.86l-2.02-6.92c.12-2.85.33-4.64.62-5.36,1.25-3.09,3.06-5.78,5.45-8.07.25-.23.55-.35.89-.34l1.73.06c.79.03,1.46-.59,1.49-1.38,0-.18-.02-.35-.08-.52-.37-1.08-.75-2.12-1.14-3.13-.35-.89-.94-1.8-1.79-2.72-1.19-1.29-2.33-2.62-3.43-3.99-.21-.26-.33-.55-.36-.88-.11-1.05-.49-1.99-1.13-2.83-.21-.27-.48-.39-.83-.36-.97.08-1.74.57-2.31,1.46-.47.75-1.25,1.24-2.12,1.34-3.55.42-6.84,1.39-9.88,2.92-.3.15-.6.14-.9-.01-.84-.43-1.45-1.12-1.83-2.07-.11-.38-.1-.73,0-1.06.11-.33.34-.5.69-.52,2.35-.13,4.37-.42,6.06-.85,1.23-.31,2.04-1.19,2.44-2.62.1-.38.32-.71.62-.96,1.11-.95,2.4-1.15,3.86-.6,1.62.61,3.08,0,4.62-.5.77-.25,1.72-.28,2.86-.11.31.05.57.18.79.4,1.57,1.57,2.29,3.26,2.16,5.08-.11,1.53.22,3.06.98,4.59.26.5.87.69,1.36.43.26-.14.45-.38.52-.66.24-1.01.73-1.84,1.48-2.51.37-.33.53-.84.41-1.33-.23-.89-.04-1.73.57-2.52.1-.13.16-.28.17-.44l.19-2.13c.07-.74.72-1.28,1.45-1.21.09,0,.19.03.28.05,1.58.49,3.26.84,5.03,1.05,1.01.12,1.94-.03,2.79-.44.64-.31,1.27-.65,1.9-1,.59-.33,1.22-.57,1.89-.72,2.47-.57,4.57-.48,6.3.25,1.09.46,1.65,1.25,1.7,2.36.02.6-.25.8-.82.6-.8-.29-1.5-.75-2.09-1.36-.8-.83-2.13-.85-2.96-.05-.22.22-.4.48-.5.77-1.21,3.21-2.32,6.71-3.33,10.48-.19.74,0,1.51.57,2.32.91,1.27,1.65,2.54,2.22,3.82.38.86,1.39,1.24,2.25.85.15-.07.29-.16.42-.26,1.18-1.01,2.19-2.34,3.02-3.98.61-1.21.73-2.28.36-3.22-.29-.75-.09-1.32.6-1.73.29-.17.62-.23,1.01-.17.39.06.7.34.79.72l1.07,4.31c.11.45-.04.81-.43,1.06-1.15.72-2.06,1.59-2.72,2.61-.33.5-.23,1.16.23,1.55,1.27,1.09,2.59,2.01,3.98,2.76.75.41,1.46.53,2.11.37.94-.23,1.44-.88,1.49-1.97.2-3.72.34-7.69.42-11.92.01-.65-.13-1.16-.42-1.53-.88-1.09-1.72-.71-2.66-1.38-.38-.27-.73-.55-1.05-.85-.35-.32-.37-.87-.04-1.22.11-.12.25-.2.4-.24,1.99-.54,3.74-.01,5.25,1.59.24.26.57.41.92.42.7.02,1.28-.21,1.73-.7.47-.49.6-1.13.41-1.92-.13-.53-.26-1.06-.41-1.6-.09-.35-.31-.52-.67-.52h-6.95c-.33,0-.53-.17-.58-.5-.27-1.77-.67-3.57-1.2-5.41-.39-1.31-1.1-2.43-2.15-3.34-2.27-1.97-4.6-3.58-6.97-4.81-.31-.16-.46-.42-.43-.77.09-1.11.54-2,1.35-2.69.25-.21.54-.34.87-.37,1.31-.15,2.4-.93,3.29-2.34Z"/>
      <path class="cls-8" d="M126.94,10.62c.59.37.78.89.57,1.58-.31,1.04-.54,2.08-.67,3.12-.13.98.36,1.37,1.46,1.17.49-.09.91-.41,1.12-.86.51-1.11,1.39-1.9,2.62-2.37.55-.21,1.17-.09,1.61.31,1.04.96,1.05,1.9.04,2.81-1.07.96-1.51,2.14-1.3,3.54.07.45-.24.88-.69.95-.05,0-.09.01-.14.01-1.69,0-3.52,0-5.01.9-.89.54-1.87.94-2.92,1.21-1.54.39-2.92.16-4.15-.69-1.03-.72-2.42-.53-3.28.35-.23.23-.5.37-.83.42-2.1.3-4.74.74-6.84-.17-1.44-.63-3.21-.85-4.76-.19-1.25.53-2.54.51-3.86-.07-1.9-.83-4.4.17-4.79,2.39-.1.57-.34,1.1-.72,1.59-.3.38-.7.61-1.21.7-1.14.19-2.13.09-2.96-.3-.73-.34-1.04-1.21-.7-1.95.1-.22.26-.41.45-.55,1.4-1.06.69-2.33,1.58-3.52,1.32-1.78,5.4-2.66,7.47-3.21.32-.08.58-.25.78-.52.55-.73,1.17-1.17,1.85-1.32.78-.17,1.56.32,1.73,1.1.02.08.03.16.03.25.02.43.06.85.12,1.26.23,1.51.95,1.79,2.15.85,1.96-1.53,2.73-3.42,2.31-5.69-.06-.32,0-.62.19-.89.35-.51.82-.73,1.39-.67.34.04.59.21.75.52.55,1.07,1.24,2.04,2.08,2.89.25.25.55.41.9.48,2.19.39,3.95,1.61,5.29,3.68.3.46.91.59,1.36.3.15-.1.27-.23.35-.39.7-1.4.35-2.46-1.06-3.18-.43-.22-.51-.53-.25-.93,1.07-1.63,2.14-3.01,3.22-4.15.87-.91,1.2-1.76,1.79-2.8.27-.45.82-.64,1.31-.44.71.29,1.1.87,1.17,1.74.03.32.18.57.45.74Z"/>
      <path class="cls-8" d="M102.23,56.63c-.21,1.73.03,3.37.72,4.91.65,1.45.9,2.55.75,3.29-.14.66-.53,1.09-1.18,1.28l-2.39.71c-.39.11-.79-.11-.91-.49-.04-.12-.04-.25-.01-.37l1.4-6.63c.18-.85-.32-1.7-1.16-1.95-1.72-.52-2.82,1.11-3.97,2.09-.99.84-2.07.58-2.89,1.97-.87,1.45-1.29,3.03-1.27,4.74,0,.33-.11.6-.35.83l-2.71,2.52c-.49.45-1.25.42-1.7-.07-.09-.09-.16-.2-.21-.31l-2.1-4.56c-.13-.28-.17-.57-.13-.87.08-.59.22-1.07.41-1.43.51-.97.14-2.18-.83-2.69-.1-.05-.2-.1-.31-.13-1.33-.43-2.25-.31-2.76.36-.27.35-.36,1-.25,1.93.07.67.11,1.35.1,2.04,0,.37-.16.64-.48.82-.28.16-.57.29-.87.38-1.83.53-1.86,1.19-.11,1.96.43.19.83.42,1.2.69.24.18.4.37.47.57.09.23.11.47.07.7-.06.34-.26.49-.6.45-1.97-.21-2.94.7-2.92,2.73,0,1.23-.98,2.23-2.21,2.23-.26,0-.53-.04-.77-.13l-2.8-1.03c-.62-.22-.94-.91-.71-1.52.04-.11.1-.22.17-.32,1.17-1.53,1.63-3.43,1.39-5.7-.07-.72-.26-1.38-.57-1.98-.36-.69-.58-1.44-.66-2.25-.03-.32-.18-.58-.43-.78-.29-.23-.52-.53-.7-.9-.14-.29-.37-.45-.69-.48-1.25-.11-2.49.08-3.71.56-1.47.58-2.65.87-3.54.87-1.76.01-3.46-.01-5.1-.07-.21,0-.43.07-.65.24-.26.19-.55.28-.87.27-.79-.01-1.48.21-2.07.67-.27.21-.43.48-.5.81l-.67,3.29c-.15.74.12,1.51.71,1.99,1.27,1.02,2.25.9,2.92-.35.17-.31.42-.53.75-.64,1.63-.57,3.2-1.45,4.69-2.66.27-.22.58-.33.93-.33h2.2c.39,0,.66.18.81.53l1.46,3.39c.14.33.37.58.7.74.64.31.77.88.39,1.71-.51,1.14-1.41,1.69-2.68,1.65-.29,0-.54.07-.77.24-1.18.87-2.55,1.04-4.1.53-1.34-.44-2.61-.9-3.81-1.38-1.09-.43-2.02-.21-2.8.66-.52.59-1.42.64-2,.12-.21-.19-.37-.44-.44-.72-.33-1.29-.44-2.42-1.51-3.27-.89-.71-1.95-.99-3.18-.84-1.96.24-3.93.53-5.9.87-.53.09-1.3.66-2.31,1.69-.23.25-.52.33-.85.24l-4.73-1.28c2.13-3.54,5.18-5.99,9.15-7.34.31-.1.41-.3.28-.61-3.35-7.8-2.32-14.36,3.11-19.67,4.14-4.05,9.31-5.42,15.52-4.09.3.06.54-.03.73-.28.95-1.31,1.74-2.83,2.79-3.93,4.3-4.48,11.29-6.9,17.5-4.43.28.11.52.07.73-.13,1.09,1.11,2.48,1.93,4.17,2.46.38.95.99,1.64,1.83,2.07.3.15.6.16.9.01,3.04-1.53,6.33-2.5,9.88-2.92.87-.1,1.65-.59,2.12-1.34.57-.89,1.34-1.38,2.31-1.46.35-.03.62.09.83.36.64.84,1.02,1.78,1.13,2.83.03.33.15.62.36.88,1.1,1.37,2.24,2.7,3.43,3.99.85.92,1.44,1.83,1.79,2.72.39,1.01.77,2.05,1.14,3.13.26.75-.14,1.56-.89,1.82-.17.06-.34.08-.52.08l-1.73-.06c-.34,0-.64.11-.89.34-2.39,2.29-4.2,4.98-5.45,8.07-.29.72-.5,2.51-.62,5.36Z"/>
      <path class="cls-7" d="M177.57,39.1l-1.19,2.61c-.17.37-.23.77-.2,1.18l.56,7.1c.03.32.16.62.38.86,1.09,1.19,1.84,2.68,2.25,4.45.07.29.2.55.4.78.81.95,1.15,2.05,1,3.3-.22,1.87.43,2.99,1.96,3.36,1.25.29,2.31.87,3.59.9,1.36.03,2.77.27,4.23.72.99.3,1.63.01,1.9-.86.09-.31.3-.45.62-.42l1.61.13c.32.03.57.17.74.44.21.3.47.47.79.52.31.04.5-.09.59-.39.09-.31.35-.53.76-.65-.11,3.19-.92,6.04-2.44,8.53-.19.3-.17.59.05.87l.74.92c-.36-.12-.73.07-1.11.57-.2.27-.46.44-.78.51-.62.15-1.25.25-1.88.31-.57.05-1.2-.04-1.89-.28-1.83-.65-3.84-1.15-6.03-1.5-.93-.15-1.85.31-2.29,1.14l-2.44,4.63c-.17.31-.2.64-.11.99.16.58.51.97,1.06,1.17.55.21,1.19.13,1.92-.24.81-.41,1.55-.93,2.2-1.56.25-.23.54-.35.88-.34l3.74.1c.33,0,.59.14.8.39.59.73.85,1.44.78,2.14-.16,1.76.91,3.35,1.99,4.69.43.53.89.57,1.4.12.41-.35.88-.73,1.41-1.14.27-.21.52-.32.76-.34.42-.04.7.1.84.43,1.03.21,2.11.25,3.23.14-.11,3.53-1.16,6.87-3.13,10-1.59,1.71-3.36,3.27-5.3,4.68-.49.36-1.34.77-2.55,1.24-.99.38-1.81.9-2.45,1.57-.09-1.98-.93-4.04-2.5-6.18-.57-.79-1.28-1.38-2.12-1.77-.48-.22-1.05-.02-1.28.46-.08.16-.1.34-.08.52.21,1.74.37,3.56.46,5.46.09,1.92-.6,2.98-2.06,3.17-4.05.52-7.9,1.35-11.54,2.48-.43.13-.76.47-.87.9-.25.93-.59,1.89-1,2.88-.29.71-.42,1.36-.4,1.96.05,1.01.6,1.62,1.65,1.82,2.64.5,4.76,1.33,6.37,2.49.59.42.72,1.24.3,1.83-.11.16-.26.29-.43.38-3.36,1.87-7.31.83-10.45-1-1.17-.68-2.48-1.13-3.93-1.34-.31-.05-.58.03-.82.22-1.11.91-2.08,2.11-2.91,3.59-.51.89-1.25,1.41-2.24,1.54-.97.13-1.89.36-2.75.69-6.82,2.59-13.04,1.16-18.65-4.31-.24-.23-.52-.38-.85-.45-3.27-.71-6.08-2.54-8.45-5.47-.62-.77-.94-1.65-.95-2.62,0-.45.22-.68.68-.69.91-.01,1.5.4,1.78,1.24.1.31.28.57.55.76,1.08.8,2.38,2.35,3.62,2.74.4.13.81.27,1.23.42.59.21,1.2.33,1.85.38,1.46.11,2.91.21,4.34.32,1,.08,1.77.9,1.78,1.9.04,2.32,1.91,2.96,3.87,2.91.93-.03,1.69.08,2.28.31,2.45.98,5.21.56,6.12-1.91.16-.43.38-.83.66-1.21.2-.27.3-.56.31-.89.03-.71.27-1.33.72-1.86.22-.25.49-.39.82-.43,1.32-.17,2.03-.5,2.54-1.84.27-.7.54-1.4.83-2.1.13-.32.35-.52.68-.61,1.93-.54,3.49-.05,4.68,1.47.27.35.55.36.84,0,.8-.97,1.05-1.93.74-2.86-.17-.52-.53-.8-1.08-.85-2.81-.24-5.1-1.39-6.86-3.44-.27-.33-.26-.8.03-1.11,1.33-1.41,2.3-3.29,4.68-2.96.89.13,1.79.17,2.71.13,1.33-.06,2.68.26,4.07.95.29.15.6.2.92.16l4-.5c1.19-.14,2-.77,2.45-1.88.22-.55.36-1.11.41-1.7.12-1.36-.47-1.82-1.77-1.37-2.11.73-4.05.81-5.83.22-.97-.32-2.01-.48-3.14-.47-1.43,0-2.91.03-4.43.06-.37,0-.69.13-.97.38l-1.96,1.75c-.23.21-.49.32-.8.35-1.09.11-1.81.7-2.15,1.77-.1.32-.1.64-.01.97.17.62.22,1.26.13,1.91-.04.35-.23.58-.56.69-1.41.47-2.45-.01-3.13-1.44-1.04-2.21-1.49-4.55-3.27-6.32-.2-.2-.53-.2-.74,0-.06.06-.1.12-.12.2-.57,1.7.28,3.29.3,4.77.03,2.34.1,4.68.23,7.02.12,2.42-.54,4.71-.8,7.11-.08.67-.69,1.16-1.36,1.08-.2-.02-.38-.09-.55-.2-1.8-1.22-3.4-2.74-4.79-4.55-.21-.27-.26-.56-.17-.89.21-.69.56-1.17,1.06-1.44,1.39-.72,1.32-1.74,1.38-3.07.08-1.97.02-3.43-.19-4.4-.12-.54-.59-.93-1.15-.94l-2.41-.05c-.75,0-1.36.59-1.37,1.33,0,.16.02.32.08.46.64,1.81.63,3.4-.02,4.79-.45.93-.96,1.83-1.55,2.71-.35.53-1.07.67-1.6.31-.18-.12-.32-.28-.4-.47-.32-.71-.74-1.35-1.27-1.91-1.25-1.32-2.54-2.51-3.86-3.56-1.05-.84-1.47-1.99-2.19-3.1-.64-.98-.8-2.32-1.92-3.23-.26-.21-.56-.32-.9-.34-1.29-.07-2.02-.69-2.19-1.88-.05-.33.03-.64.23-.91.47-.63.72-1.32.77-2.05.05-.6-.16-1.1-.62-1.5-.58-.51-1.28-.77-2.1-.78-.65,0-1,.33-1.04.98-.1,1.6.23,2.79-.47,4.31-.77,1.66-1.5,3.34-2.2,5.04-.26.61-.75,1.1-1.36,1.35-1.57.63-2.55,1.78-2.96,3.44-.15.64.07,1.31.58,1.73l1.76,1.44c.23.19.49.32.78.39.36.09.67.25.92.5.33.31.45.75.38,1.32-.15,1.08-.61,2.02-1.4,2.81-.65.66-1.71.67-2.38.02-.18-.17-.31-.38-.4-.62l-4.35-11.74c-.31-.85-.97-1.53-1.82-1.86-2.07-.83-4.01-1.91-5.81-3.26-.44-.32-.87-.32-1.3,0-.61.47-1.14,1.22-1.58,2.23-.4.91-1.42,1.38-2.37,1.08-4.45-1.41-8.72-1.1-12.79.92,1.2-1.26,2.58-1.99,4.13-2.18,2.02-.26,5.6-.28,7.75.61.67.27,1.34.37,2.02.3.36-.04.67-.26.82-.58l1.73-3.7c.15-.33.09-.62-.18-.87l-2.46-2.22c-.3-.28-.5-.66-.56-1.07-.19-1.39-.58-2.64-1.15-3.74-.66-1.26-1.99-2.04-3.42-1.99-3.83.14-7.75-.37-11.76-1.54-.84-.24-1.58-.66-2.21-1.25-.61-.58-1.55-.64-2.24-.15-1.85,1.34-3.92,3.31-6.36,1.62-1.06-.73-1.61-1.1-1.65-1.13-1.21-.63-2.48-1.3-3.82-2.01-.29-.16-.52-.38-.68-.67-.77-1.35-1.88-2.26-3.34-2.73-.34-.11-.66-.07-.97.11-3.26,1.92-4.88,1.19-8.05,1.46-.33.03-.6.17-.82.42-1.45,1.62-2.37,1.65-4.52,1.35-.75-.11-1.39.18-1.92.87-.21.26-.47.36-.8.31-.37-.06-.69-.22-.96-.48-.79-.76-.44-1.73-1.25-2.48-.38-.35-.5-.77-.36-1.26.33-1.21-.08-2.04-1.21-2.49-.59-.24-1.2-.24-1.85,0-.51.19-.97.1-1.37-.28-.41-.39-.92-.67-1.54-.84l1.84-4.7,4.73,1.28c.33.09.62,0,.85-.24,1.01-1.03,1.78-1.6,2.31-1.69,1.97-.34,3.94-.63,5.9-.87,1.23-.15,2.29.13,3.18.84,1.07.85,1.18,1.98,1.51,3.27.19.76.96,1.22,1.72,1.04.28-.07.53-.22.72-.44.78-.87,1.71-1.09,2.8-.66,1.2.48,2.47.94,3.81,1.38,1.55.51,2.92.34,4.1-.53.23-.17.48-.25.77-.24,1.27.04,2.17-.51,2.68-1.65.38-.83.25-1.4-.39-1.71-.33-.16-.56-.41-.7-.74l-1.46-3.39c-.15-.35-.42-.53-.81-.53h-2.2c-.35,0-.66.11-.93.33-1.49,1.21-3.06,2.09-4.69,2.66-.33.11-.58.33-.75.64-.67,1.25-1.65,1.37-2.92.35-.59-.48-.86-1.25-.71-1.99l.67-3.29c.07-.33.23-.6.5-.81.59-.46,1.28-.68,2.07-.67.32,0,.61-.08.87-.27.22-.17.44-.25.65-.24,1.64.06,3.34.08,5.1.07.89,0,2.07-.29,3.54-.87,1.22-.48,2.46-.67,3.71-.56.32.03.55.19.69.48.18.37.41.67.7.9.25.2.4.46.43.78.08.81.3,1.56.66,2.25.31.6.5,1.26.57,1.98.24,2.27-.22,4.17-1.39,5.7-.4.52-.3,1.27.22,1.67.1.07.2.13.32.17l2.8,1.03c1.15.42,2.43-.17,2.85-1.33.09-.25.14-.51.13-.77-.02-2.03.95-2.94,2.92-2.73.34.04.54-.11.6-.45.04-.23.02-.47-.07-.7-.07-.2-.23-.39-.47-.57-.37-.27-.77-.5-1.2-.69-1.75-.77-1.72-1.43.11-1.96.3-.09.59-.22.87-.38.32-.18.48-.45.48-.82,0-.69-.03-1.37-.1-2.04-.11-.93-.02-1.58.25-1.93.51-.67,1.43-.79,2.76-.36,1.04.34,1.61,1.47,1.27,2.51-.03.11-.08.21-.13.31-.19.36-.33.84-.41,1.43-.04.3,0,.59.13.87l2.1,4.56c.28.6,1,.87,1.6.59.11-.05.22-.12.31-.21l2.71-2.52c.24-.23.36-.5.35-.83-.02-1.71.4-3.29,1.27-4.74.82-1.39,1.9-1.13,2.89-1.97,1.15-.98,2.25-2.61,3.97-2.09.84.25,1.34,1.1,1.16,1.95l-1.4,6.63c-.09.39.16.78.55.87.12.03.25.02.37-.01l2.39-.71c.65-.19,1.04-.62,1.18-1.28.15-.74-.1-1.84-.75-3.29-.69-1.54-.93-3.18-.72-4.91l2.02,6.92c.32,1.1.07,2.05-.74,2.86l-5.94,5.88c-.25.25-.55.4-.9.45-1.25.18-2.19.78-2.82,1.8-.92,1.48-1.3,2.95-1.14,4.4.1.99.89,1.77,1.89,1.87,3.47.35,4.23,3.25,4.84,6.06.29,1.3,1.07,1.87,2.36,1.7,1.78-.24,1.76-1.65,3.42-2.1,1.6-.45,3.03-1.21,4.29-2.29.25-.21.55-.33.88-.36,3.13-.21,5.05-.14,7.59-2.23.79-.65,1.91-.71,2.77-.16,1.39.9,2.33,2.15,2.84,3.75.19.6.71,1.03,1.33,1.11l3.21.41c.35.04.66.23.85.52l1.43,2.14c.6.89,1.8,1.12,2.69.52.03-.02.05-.04.08-.05l2.97-2.22c.25-.19.53-.27.84-.24,1.31.11,2.45.6,3.42,1.48.23.21.51.32.83.31,3.09-.07,5.86.58,8.29,1.96.25.14.53.21.82.22l12.13.24c.36.01.7-.15.92-.43.73-.94.93-2.22.6-3.85-.68-3.44-.84-7.12-.47-11.04.07-.8.3-1.47.69-2,.21-.29.32-.61.32-.96v-3.19c0-.36.12-.67.36-.93.99-1.09,1.5-2.36,1.51-3.79.01-1.01.84-1.82,1.86-1.8.2,0,.4.04.58.1,1.47.51,2.82,1.28,4.04,2.3.64.54,1.42.77,2.35.7,1.47-.12,2.13-.88,1.98-2.29-.07-.6-.42-1.13-.95-1.42-1.4-.78-2.91-1.48-4.54-2.11-1.71-.66-3.06-.24-4.78.03-.33.05-.65.02-.96-.08-1.88-.62-2.9-.29-4.52.97-1.46,1.14-3.12,1.81-4.99,2-1.46.15-3.09-.46-4.82-.41-.33.01-.64-.05-.94-.19-1.3-.59-2.65-.88-4.06-.85-.33,0-.59.15-.76.43-.95,1.54-2.13,2.34-.86,4.4.28.46.14,1.07-.33,1.35-.2.12-.43.17-.65.13-.29-.05-.59-.04-.88,0-.41.07-.71.21-.9.43-.17.22-.26.47-.26.76,0,.33.15.59.43.76l3.05,1.93c.18.11.29.31.29.52v.42c0,.45-.21.59-.63.42-2.09-.86-3.34-.74-3.73.35-.4,1.11-.53,2.28-.4,3.52.04.43-.27.81-.7.85-.19.02-.38-.03-.53-.14-1.01-.73-2.19-1.02-3.53-.87-.5.06-.76-.16-.78-.66-.04-.97.24-1.89.85-2.78.23-.35.37-.73.42-1.15.33-3.21-.19-6.25-1.54-9.12-.14-.3-.38-.55-.68-.69-2.07-1.01-4.05-1.13-5.95-.34-1.83.75-3.91.8-6.24.15-.31-.09-.59-.23-.84-.43-1.29-1.08-2.51-1.07-3.64.03-1.53,1.47-2.83,3.67-3.92,6.62-.15.41-.44.59-.87.53l-5.13-.66c-.67-.08-1.16-.68-1.12-1.37.09-1.21.37-2.36.83-3.46.43-1.01.74-2.04.93-3.11.27-1.53.79-2.5,1.54-2.9,1.19-.63,2.24-1.42,3.15-2.35.28-.29.62-.44,1.02-.43,3.55.02,6.33-1.13,8.36-3.46.27-.31.67-.49,1.08-.49,1.67-.01,3.05.72,4.16,2.19.19.25.41.27.65.06.07-.07.15-.09.24-.07.27.06.41-.05.42-.32.03-.65-.12-1.22-.45-1.72-.19-.27-.26-.57-.23-.9.14-1.39-.42-2.34-1.68-2.85-1-.39-1.96-.8-2.88-1.21-1.87-.84-2.57-2.3-2.1-4.38.07-.32.35-.54.68-.55,1.34-.02,2.5.47,3.47,1.46,1.83,1.87,3.82,2.67,5.97,2.42,3.04-.35,5.21.8,6.51,3.47.87,1.8,2.47,2.15,4.19,1.32.25-.13.52-.22.79-.27.33-.07.54.06.61.39.23,1.05.88,1.72,1.97,2.02.32.09.61.04.86-.17,1.65-1.31,2.8-2.85,3.46-4.64.25-.69.55-1.35.89-1.97.59-1.1.65-2.35.16-3.76-.13-.39.07-.81.46-.94.08-.03.17-.04.25-.04l9.15.14c.33,0,.48-.16.43-.49l-.04-.32c-.07-.45-.33-.72-.78-.79-2.29-.37-4.21-1.5-5.77-3.4-.13-.16-.29-.26-.48-.31-.11-.03-.23-.04-.34-.04-.21,0-.31-.11-.3-.31l.03-.81c0,.1.03.19.08.26.12.17.27.21.46.1,3.73-2.22,7.63-3.04,11.7-2.47,4.67.65,8.43,2.81,11.29,6.46Z"/>
      <path class="cls-9" d="M177.57,39.1c1.36,1.74,2.33,3.57,2.91,5.49.09.32.31.52.64.59,1.62.37,3.33.51,4.8,1.09,7.55,2.99,11.43,8.61,11.64,16.86-.41.12-.67.34-.76.65-.09.3-.28.43-.59.39-.32-.05-.58-.22-.79-.52-.17-.27-.42-.41-.74-.44l-1.61-.13c-.32-.03-.53.11-.62.42-.27.87-.91,1.16-1.9.86-1.46-.45-2.87-.69-4.23-.72-1.28-.03-2.34-.61-3.59-.9-1.53-.37-2.18-1.49-1.96-3.36.15-1.25-.19-2.35-1-3.3-.2-.23-.33-.49-.4-.78-.41-1.77-1.16-3.26-2.25-4.45-.22-.24-.35-.54-.38-.86l-.56-7.1c-.03-.41.03-.81.2-1.18l1.19-2.61Z"/>
      <path class="cls-9" d="M195.91,73.45c3.01,3.35,4.5,7.32,4.48,11.93-1.12.11-2.2.07-3.23-.14-.14-.33-.42-.47-.84-.43-.24.02-.49.13-.76.34-.53.41-1,.79-1.41,1.14-.51.45-.97.41-1.4-.12-1.08-1.34-2.15-2.93-1.99-4.69.07-.7-.19-1.41-.78-2.14-.21-.25-.47-.38-.8-.39l-3.74-.1c-.34,0-.63.11-.88.34-.65.63-1.39,1.15-2.2,1.56-.73.37-1.37.45-1.92.24-.55-.2-.9-.59-1.06-1.17-.09-.35-.06-.68.11-.99l2.44-4.63c.44-.83,1.36-1.29,2.29-1.14,2.19.35,4.2.85,6.03,1.5.69.24,1.32.33,1.89.28.63-.06,1.26-.16,1.88-.31.32-.07.58-.24.78-.51.38-.5.75-.69,1.11-.57Z"/>
      <path class="cls-8" d="M30.79,73.47c.62.17,1.13.45,1.54.84.4.38.86.47,1.37.28.65-.24,1.26-.24,1.85,0,1.13.45,1.54,1.28,1.21,2.49-.14.49-.02.91.36,1.26.81.75.46,1.72,1.25,2.48.27.26.59.42.96.48.33.05.59-.05.8-.31.53-.69,1.17-.98,1.92-.87,2.15.3,3.07.27,4.52-1.35.22-.25.49-.39.82-.42,3.17-.27,4.79.46,8.05-1.46.31-.18.63-.22.97-.11,1.46.47,2.57,1.38,3.34,2.73.16.29.39.51.68.67,1.34.71,2.61,1.38,3.82,2.01.04.03.59.4,1.65,1.13,2.44,1.69,4.51-.28,6.36-1.62.69-.49,1.63-.43,2.24.15.63.59,1.37,1.01,2.21,1.25,4.01,1.17,7.93,1.68,11.76,1.54,1.43-.05,2.76.73,3.42,1.99.57,1.1.96,2.35,1.15,3.74.06.41.26.79.56,1.07l2.46,2.22c.27.25.33.54.18.87l-1.73,3.7c-.15.32-.46.54-.82.58-.68.07-1.35-.03-2.02-.3-2.15-.89-5.73-.87-7.75-.61-1.55.19-2.93.92-4.13,2.18-3.6,2-6.55,4.56-8.84,7.67-1.74,2.27-2.78,4.19-3.11,5.76-.3,1.4-1.15,2.2-2.54,2.4-1.27.19-2.37.67-3.3,1.44-.24.2-.52.29-.84.27-2.58-.14-5.17.33-7.77,1.41-.75.31-1.63.14-2.2-.45-.45-.47-.98-.69-1.59-.68-.05,0-.09-.02-.12-.06l-.25-.34c-.13-.18-.3-.3-.51-.36-1.84-.51-3.71-.66-5.61-.45-.28.03-.52.15-.72.35l-.37.37c-.25.25-.55.4-.89.47-1.67.33-3.26.33-4.77,0-.31-.07-.56-.23-.75-.49-.59-.81-1.33-1.41-2.22-1.82-.31-.13-.62-.15-.94-.06-1.54.45-2.68,1.32-3.43,2.63-.77,1.34-1.58,2.72-2.42,4.13-.18.3-.28.63-.3.98-.03.47-.17.89-.44,1.27-.19.26-.44.4-.75.42-2.49.13-4.8-.68-6.93-2.43-.59-.48-.67-1.35-.19-1.94.04-.05.08-.09.12-.13.69-.64,1.4-1.45,1.48-2.47.37-4.33,2.55-6.27,6.53-5.84,1.43.15,2.53-.69,3.4-1.73.23-.27.55-.46.89-.54,1.72-.4,2.97.2,3.75,1.81.17.36.45.57.84.62,1.93.29,4.24.51,6.95.66.7.04,1.22-.28,1.55-.95.21-.4.61-.67,1.05-.69.54-.03.77-.27.69-.71-.08-.5.12-.81.61-.93.61-.15,1-.52,1.15-1.09.09-.32.05-.62-.13-.91-2.52-4.06-3.8-8.37-3.83-12.94-.01-.77-.46-1.48-1.15-1.82l-4.42-2.16c-5.78-4.55-8.01-10.31-6.68-17.28ZM53.14,100.56c.63.88.68,1.88.17,2.99-.31.66-1.02,2.01-2.13,4.06-.17.31-.13.59.11.84l3.02,3.25c.44.47,1.08.69,1.71.58,1.31-.23,2.06-.8,2.24-1.73.08-.43-.02-.93-.31-1.49-.32-.62-.7-1.21-1.13-1.77-.4-.52-.61-1.14-.63-1.86-.03-1.37.31-2.57,1.04-3.6.17-.25.4-.46.66-.62.65-.39.93-.97.82-1.74-.17-1.17-.62-2.35-1.33-3.53-.19-.33-.48-.46-.85-.4l-6.04.94c-.69.11-1.17.75-1.07,1.44.01.09.04.17.07.25.43,1.17,1.38,1.82,2.87,1.94.31.03.6.19.78.45Z"/>
      <path class="cls-9" d="M186.96,102.87c-.85,4.88-2.61,8.93-5.26,12.15-.75.91-1.83,1.77-3.24,2.6-1.2.71-1.54,1.61-.93,2.86-.03.94.18,2.37.63,4.28.48,2.05-.5,4.02-.59,6.09-.06,1.34-.59,2.5-1.58,3.47-.94.92-.98,2.42-.1,3.39,2,2.19,3.52,4.88,4.57,8.07.95,2.88,1.03,5.97.22,9.27-.35,1.62-.77,3.26-1.25,4.92-.27.94-.62,1.76-1.05,2.46-.63,1.01-1.2,1.71-1.71,2.09-2.54,1.89-5.02,3.65-7.44,5.28-.83.55-1.73,1-2.71,1.34-.33.11-.57.33-.7.65-.8,1.99-1.22,3.99-1.27,6.02-1.42,2.85-2.43,4.69-3.03,5.54-2.57,3.58-6.18,6.09-10.83,7.54-5.57,1.27-10.64.71-15.21-1.67l-1.43-.87c-.27-.16-.61-.13-.86.07-2.6,2.14-4.83,3.95-6.69,5.42-2.42,1.91-5.58,2.88-9.49,2.91-6.22.03-11.4-2.07-15.55-6.32-.24-.24-.52-.3-.85-.19l-4.2,1.47c-5.95,1.09-11.56.09-16.81-3.02l-5.01-5.88-2.41-5.19c-.27-1.48-.53-2.45-.54-4.17-.01-1.65-.7-2.9-2.06-3.75-.45-.28-.9-.56-1.36-.85-1.26-.79-1.86-1.99-3.03-2.87-1.54-1.15-2.42-2.76-3.35-4.37-.17-.28-.39-.5-.67-.66-.3-.17-.48-.43-.55-.76-.07-.33-.22-.61-.45-.85-1.17-1.19-2.02-2.63-2.55-4.3-.69-2.17-1.3-4.37-1.83-6.58l-.42-2.13c.07-.7-.1-1.32-.52-1.87-.25-.32-.57-.46-.97-.43-1.61.13-2.95.93-4,2.41-.81,1.12-2.38,1.38-3.5.56-.08-.06-.15-.12-.23-.18-.43-.4-.89-.77-1.37-1.12-.95-.69-2.13-1.14-3.54-1.35-.34-.05-.65-.18-.94-.39l-2.36-1.73c-.26-.19-.43-.43-.51-.74-.07-.25-.21-.44-.42-.57-1.46-.93-2.86-2.86-4.8-2.52-.82.14-1.54.51-2.15,1.12-.23.23-.5.43-.79.58l-2.15,1.13c-.27.14-.56.2-.87.18l-4.77-.33c-.34-.02-.64.09-.89.33-.65.62-1.4,1.11-2.25,1.48-.31.14-.64.19-.97.14l-3.61-.48c-.3-.04-.5.08-.59.37l-.93,2.89c-.17.54-.75.84-1.3.66-.33-.11-.58-.37-.67-.69l-.62-2.1c-.09-.32-.24-.61-.45-.87-.91-1.18-1.11-2.51-.6-3.98.33-.94-.16-1.98-1.1-2.31-.23-.08-.47-.11-.71-.1-1.39.07-2.85.19-4.36.35-1.13.12-1.59-.39-1.38-1.53.52-2.19,1.47-4.32,2.85-6.4,1.14.92,2.22,1.34,3.25,1.27.33-.02.58-.18.75-.47,1.02-1.8,2.61-2.63,4.76-2.49.05,0,.06.03.02.08-.05.06-.06.15-.04.26.01.05.04.07.09.07,1.79.11,3.92-.02,6.4-.37.83-.11,1.72-.14,2.67-.09.32.02.63.12.91.3.64.41,1.36.7,2.15.87.34.07.57.27.69.6.45,1.23.73,2.54.83,3.94.05.69.65,1.22,1.35,1.17.3-.02.58-.15.79-.36,1.18-1.15,2.49-1.5,3.94-1.05,1.91.59,3.69.88,5.34.87,1.06,0,2.17-.6,3.56-.18.22.07.42.03.6-.12.59-.48,1.19-.8,1.82-.96.98-.24,1.57-1.23,1.33-2.21-.01-.04-.02-.08-.04-.12l-1.85-5.73c-.13-.39-.48-.66-.89-.69-2.29-.16-4.03.45-5.22,1.82-.23.27-.53.45-.88.53-1.44.33-2.78.91-4.03,1.74-.28.19-.49.43-.62.74-.27.61-.72.99-1.35,1.14-.27.06-.49-.01-.67-.22-2.07-2.38-2.6-4.89-1.6-7.53.3-.78,1.08-1.27,1.9-1.17.03,0,.06-.01.08-.04.53-.75,1.33-1.29,2.4-1.6.92-.27,1.83-.11,2.73.5.27.18.59.29.92.32,1.63.13,3.22.26,4.77.39.32.03.63-.04.92-.19.33-.18.63-.42.89-.71,1.34-1.51,4.4-1.49,6.11-1.04.33.09.59.26.8.53,3.1,4.05,3.7,8.28,1.8,12.71-.83,1.94-.36,3.47,1.43,4.59.45.28.76.48.93.59,1.74,1.09,3.04.71,3.91-1.15,1.4-3.01,2.6-6,3.59-8.99.51-1.49.82-3.05.93-4.67.11-1.47.73-2.65,1.84-3.56.29-.24.66-.34,1.03-.3,1.59.18,2.58-.44,2.97-1.85.91-3.31,1.93-6.06,3.04-8.26,2.29-3.11,5.24-5.67,8.84-7.67,4.07-2.02,8.34-2.33,12.79-.92.95.3,1.97-.17,2.37-1.08.44-1.01.97-1.76,1.58-2.23.43-.33.86-.33,1.3,0,1.8,1.35,3.74,2.43,5.81,3.26.85.33,1.51,1.01,1.82,1.86l4.35,11.74c.33.87,1.3,1.32,2.17,1,.23-.09.44-.22.61-.4.79-.79,1.25-1.73,1.4-2.81.07-.57-.05-1.01-.38-1.32-.25-.25-.56-.41-.92-.5-.29-.07-.55-.2-.78-.39l-1.76-1.44c-.51-.42-.73-1.09-.58-1.73.41-1.66,1.39-2.81,2.96-3.44.61-.25,1.1-.74,1.36-1.35.7-1.7,1.43-3.38,2.2-5.04.7-1.52.37-2.71.47-4.31.04-.65.39-.98,1.04-.98.82,0,1.52.27,2.1.78.46.4.67.9.62,1.5-.05.73-.3,1.42-.77,2.05-.2.27-.28.58-.23.91.17,1.19.9,1.81,2.19,1.88.34.02.64.13.9.34,1.12.91,1.28,2.25,1.92,3.23.72,1.11,1.14,2.26,2.19,3.1,1.32,1.05,2.61,2.24,3.86,3.56.53.56.95,1.2,1.27,1.91.27.58.95.83,1.53.56.19-.09.36-.23.47-.4.59-.88,1.1-1.78,1.55-2.71.65-1.39.66-2.98.02-4.79-.25-.7.12-1.46.82-1.71.15-.05.31-.08.47-.08l2.41.05c.56,0,1.03.4,1.15.94.21.97.27,2.43.19,4.4-.06,1.33,0,2.35-1.38,3.07-.5.27-.85.75-1.06,1.44-.09.33-.04.62.17.89,1.39,1.81,2.99,3.33,4.79,4.55.56.38,1.33.23,1.71-.33.11-.16.18-.35.2-.55.26-2.4.92-4.69.8-7.11-.13-2.34-.2-4.68-.23-7.02-.02-1.48-.87-3.07-.3-4.77.09-.27.39-.42.66-.32.08.03.14.07.2.12,1.78,1.77,2.23,4.11,3.27,6.32.68,1.43,1.72,1.91,3.13,1.44.33-.11.52-.34.56-.69.09-.65.04-1.29-.13-1.91-.09-.33-.09-.65.01-.97.34-1.07,1.06-1.66,2.15-1.77.31-.03.57-.14.8-.35l1.96-1.75c.28-.25.6-.37.97-.38,1.52-.03,3-.05,4.43-.06,1.13,0,2.17.15,3.14.47,1.78.59,3.72.51,5.83-.22,1.3-.45,1.89,0,1.77,1.37-.05.59-.19,1.15-.41,1.7-.45,1.11-1.26,1.74-2.45,1.88l-4,.5c-.32.04-.63-.01-.92-.16-1.39-.69-2.74-1.01-4.07-.95-.92.04-1.82,0-2.71-.13-2.38-.33-3.35,1.55-4.68,2.96-.29.31-.3.78-.03,1.11,1.76,2.05,4.05,3.2,6.86,3.44.55.05.91.33,1.08.85.31.93.06,1.89-.74,2.86-.29.35-.57.34-.84,0-1.19-1.52-2.75-2.01-4.68-1.47-.33.09-.55.29-.68.61-.29.7-.56,1.4-.83,2.1-.51,1.34-1.22,1.67-2.54,1.84-.33.04-.6.18-.82.43-.45.53-.69,1.15-.72,1.86,0,.33-.11.62-.31.89-.28.38-.5.78-.66,1.21-.91,2.47-3.67,2.89-6.12,1.91-.59-.23-1.35-.34-2.28-.31-1.96.05-3.83-.59-3.87-2.91-.01-1-.78-1.82-1.78-1.9-1.43-.11-2.88-.21-4.34-.32-.65-.05-1.26-.17-1.85-.38-.42-.15-.83-.29-1.23-.42-1.24-.39-2.54-1.94-3.62-2.74-.27-.19-.45-.45-.55-.76-.28-.84-.87-1.25-1.78-1.24-.46,0-.69.24-.68.69.01.97.33,1.85.95,2.62,2.37,2.93,5.18,4.76,8.45,5.47.33.07.61.22.85.45,5.61,5.47,11.83,6.9,18.65,4.31.86-.33,1.78-.56,2.75-.69.99-.13,1.73-.65,2.24-1.54.83-1.48,1.8-2.68,2.91-3.59.24-.19.51-.27.82-.22,1.45.21,2.76.66,3.93,1.34,3.14,1.83,7.09,2.87,10.45,1,.63-.35.86-1.15.51-1.78-.09-.17-.22-.32-.38-.43-1.61-1.16-3.73-1.99-6.37-2.49-1.05-.2-1.6-.81-1.65-1.82-.02-.6.11-1.25.4-1.96.41-.99.75-1.95,1-2.88.11-.43.44-.77.87-.9,3.64-1.13,7.49-1.96,11.54-2.48,1.46-.19,2.15-1.25,2.06-3.17-.09-1.9-.25-3.72-.46-5.46-.06-.53.32-1,.84-1.06.18-.02.36,0,.52.08.84.39,1.55.98,2.12,1.77,1.57,2.14,2.41,4.2,2.5,6.18Z"/>
      <path class="cls-7" d="M37.47,90.75l4.42,2.16c.69.34,1.14,1.05,1.15,1.82.03,4.57,1.31,8.88,3.83,12.94.18.29.22.59.13.91-.15.57-.54.94-1.15,1.09-.49.12-.69.43-.61.93.08.44-.15.68-.69.71-.44.02-.84.29-1.05.69-.33.67-.85.99-1.55.95-2.71-.15-5.02-.37-6.95-.66-.39-.05-.67-.26-.84-.62-.78-1.61-2.03-2.21-3.75-1.81-.34.08-.66.27-.89.54-.87,1.04-1.97,1.88-3.4,1.73-3.98-.43-6.16,1.51-6.53,5.84-.08,1.02-.79,1.83-1.48,2.47-.55.52-.58,1.4-.06,1.95.04.04.08.08.13.12,2.13,1.75,4.44,2.56,6.93,2.43.31-.02.56-.16.75-.42.27-.38.41-.8.44-1.27.02-.35.12-.68.3-.98.84-1.41,1.65-2.79,2.42-4.13.75-1.31,1.89-2.18,3.43-2.63.32-.09.63-.07.94.06.89.41,1.63,1.01,2.22,1.82.19.26.44.42.75.49,1.51.33,3.1.33,4.77,0,.34-.07.64-.22.89-.47l.37-.37c.2-.2.44-.32.72-.35,1.9-.21,3.77-.06,5.61.45.21.06.38.18.51.36l.25.34s.07.06.12.06c.61-.01,1.14.21,1.59.68.57.59,1.45.76,2.2.45,2.6-1.08,5.19-1.55,7.77-1.41.32.02.6-.07.84-.27.93-.77,2.03-1.25,3.3-1.44,1.39-.2,2.24-1,2.54-2.4.33-1.57,1.37-3.49,3.11-5.76-1.11,2.2-2.13,4.95-3.04,8.26-.39,1.41-1.38,2.03-2.97,1.85-.37-.04-.74.06-1.03.3-1.11.91-1.73,2.09-1.84,3.56-.11,1.62-.42,3.18-.93,4.67-.99,2.99-2.19,5.98-3.59,8.99-.87,1.86-2.17,2.24-3.91,1.15-.17-.11-.48-.31-.93-.59-1.79-1.12-2.26-2.65-1.43-4.59,1.9-4.43,1.3-8.66-1.8-12.71-.21-.27-.47-.44-.8-.53-1.71-.45-4.77-.47-6.11,1.04-.26.29-.56.53-.89.71-.29.15-.6.22-.92.19-1.55-.13-3.14-.26-4.77-.39-.33-.03-.65-.14-.92-.32-.9-.61-1.81-.77-2.73-.5-1.07.31-1.87.85-2.4,1.6-.02.03-.05.04-.08.04-.82-.1-1.6.39-1.9,1.17-1,2.64-.47,5.15,1.6,7.53.18.21.4.28.67.22.63-.15,1.08-.53,1.35-1.14.13-.31.34-.55.62-.74,1.25-.83,2.59-1.41,4.03-1.74.35-.08.65-.26.88-.53,1.19-1.37,2.93-1.98,5.22-1.82.41.03.76.3.89.69l1.85,5.73c.31.96-.21,1.98-1.17,2.29-.04.01-.08.03-.12.04-.63.16-1.23.48-1.82.96-.18.15-.38.19-.6.12-1.39-.42-2.5.17-3.56.18-1.65.01-3.43-.28-5.34-.87-1.45-.45-2.76-.1-3.94,1.05-.5.49-1.29.48-1.78-.02-.21-.21-.34-.5-.36-.79-.1-1.4-.38-2.71-.83-3.94-.12-.33-.35-.53-.69-.6-.79-.17-1.51-.46-2.15-.87-.28-.18-.59-.28-.91-.3-.95-.05-1.84-.02-2.67.09-2.48.35-4.61.48-6.4.37-.05,0-.08-.02-.09-.07-.02-.11,0-.2.04-.26.04-.05.03-.08-.02-.08-2.15-.14-3.74.69-4.76,2.49-.17.29-.42.45-.75.47-1.03.07-2.11-.35-3.25-1.27,2.4-3.52,6.05-6.22,10.96-8.11.15-.05.22-.22.16-.38,0,0,0-.02,0-.02-3.71-7.77-3.36-14.9,1.04-21.39,4.82-7.1,12.98-9.91,21.42-8.19Z"/>
      <path class="cls-8" d="M197.26,95.38c4.25,1.17,7.47,3.51,9.68,7.02-1.19.93-1.6,2.02-1.24,3.28,0,.02.31.55.92,1.58.43.73.36,1.49-.21,2.29-.9,1.27-.88,2.34.07,3.23.22.2.37.44.46.73.57,1.87,1.42,3.58,2.55,5.15.53.74.72,1.41.56,2-.17.61.14,1.26.72,1.52,1.28.57,2.6,1.11,3.96,1.63,1.17.45,2.02.02,2.53-1.27.49-1.24.37-2.42-.36-3.54-.59-.91-.49-1.89.3-2.93.26-.35.39-.78.38-1.21-.03-.76-.23-1.42-.6-1.98-.18-.27-.25-.6-.19-.91l.48-2.51c2.85,1.85,4.88,4.19,6.08,7.04,2.2,5.22,1.85,10.49-1.06,15.8-1.43,2.69-3.57,3.03-6.42,1.04-.44-.31-.93-.46-1.46-.46-.3,0-.58-.15-.74-.41-.38-.59-.86-1.05-1.43-1.39-.47-.28-1.07-.12-1.34.34-.02.03-.03.06-.05.09l-3.15,6.73c-.16.34-.18.69-.06,1.05.47,1.4,1.42,2.12,2.84,2.15.39,0,.72-.12,1.01-.37,1.4-1.2,3.01-1.86,4.84-1.98.37-.03.67.1.91.37.5.57.77,1.22.81,1.96.01.33.1.64.27.93.71,1.26,1.2,2.58,1.47,3.96.01.07.04.14.09.2.67.89,1.3,1.41,1.89,1.58.35.1.57-.03.65-.38.18-.77.22-1.5.12-2.19-.08-.57.31-1.1.89-1.18.13-.02.27-.01.4.02l3.58.9c-.91,7.75-5.07,12.72-12.47,14.93-.28.09-.43.27-.45.56-1.15,13.6-14.12,20.11-25.84,13.22-.29-.17-.55-.13-.76.14-5.1,6.4-11.66,8.31-19.69,5.72-1.06-.92-2.28-1.59-3.65-2.02.05-2.03.47-4.03,1.27-6.02.13-.32.37-.54.7-.65.98-.34,1.88-.79,2.71-1.34,2.42-1.63,4.9-3.39,7.44-5.28.51-.38,1.08-1.08,1.71-2.09.43-.7.78-1.52,1.05-2.46.48-1.66.9-3.3,1.25-4.92l1.26-5.46c.08-.32.27-.42.57-.29,1.37.55,2.93.91,4.69,1.08,1.81.18,3.52-.24,5.13-1.26.58-.38.82-1.11.56-1.76-.82-2.07-.07-4.66-.17-6.47-.07-1.42-.16-2.8-.26-4.14-.06-.89.13-1.61.58-2.16.19-.23.28-.51.26-.81-.09-1.74.24-3.42,1.01-5.05.37-.79.63-1.44.78-1.96.19-.67.4-1.35.63-2.04.1-.32.32-.51.65-.58,2.12-.45,4.14.25,6.07,2.09.55.54,1.44.52,1.98-.03.28-.29.42-.69.39-1.09-.07-.87-.58-1.52-1.54-1.97-2.47-1.15-4.78-1.47-6.93-.94-.29.07-.57.03-.84-.12-.65-.37-1.38-.54-2.21-.5-.34.01-.63.14-.87.38l-2.27,2.31c-.19.19-.45.31-.73.33-.71.05-1.26.6-1.65,1.65-.37.97-.67,1.97-.9,2.99-.25,1.1-.62,2.06-1.1,2.87-.6,1.02-1.28,1.98-2.03,2.89-.45.55-1.25.66-1.84.27-.52-.33-1-.71-1.44-1.14-.13-.13-.21-.28-.22-.47-.08-1.04-.44-1.96-1.07-2.76-.21-.25-.33-.54-.37-.86l-1.27-9.57c-.61-1.25-.27-2.15.93-2.86,1.41-.83,2.49-1.69,3.24-2.6,2.65-3.22,4.41-7.27,5.26-12.15.64-.67,1.46-1.19,2.45-1.57,1.21-.47,2.06-.88,2.55-1.24,1.94-1.41,3.71-2.97,5.3-4.68Z"/>
      <path class="cls-7" d="M52.36,100.11c-1.49-.12-2.44-.77-2.87-1.94-.24-.65.09-1.38.75-1.62.08-.03.17-.05.25-.07l6.04-.94c.37-.06.66.07.85.4.71,1.18,1.16,2.36,1.33,3.53.11.77-.17,1.35-.82,1.74-.26.16-.49.37-.66.62-.73,1.03-1.07,2.23-1.04,3.6.02.72.23,1.34.63,1.86.43.56.81,1.15,1.13,1.77.29.56.39,1.06.31,1.49-.18.93-.93,1.5-2.24,1.73-.63.11-1.27-.11-1.71-.58l-3.02-3.25c-.24-.25-.28-.53-.11-.84,1.11-2.05,1.82-3.4,2.13-4.06.51-1.11.46-2.11-.17-2.99-.18-.26-.47-.42-.78-.45Z"/>
      <path class="cls-7" d="M206.94,102.4l1.97,4.03c.14.29.37.44.69.47,2.77.23,5.33,1.08,7.67,2.56l-.48,2.51c-.06.31.01.64.19.91.37.56.57,1.22.6,1.98.01.43-.12.86-.38,1.21-.79,1.04-.89,2.02-.3,2.93.73,1.12.85,2.3.36,3.54-.51,1.29-1.36,1.72-2.53,1.27-1.36-.52-2.68-1.06-3.96-1.63-.58-.26-.89-.91-.72-1.52.16-.59-.03-1.26-.56-2-1.13-1.57-1.98-3.28-2.55-5.15-.09-.29-.24-.53-.46-.73-.95-.89-.97-1.96-.07-3.23.57-.8.64-1.56.21-2.29-.61-1.03-.91-1.56-.92-1.58-.36-1.26.05-2.35,1.24-3.28Z"/>
      <path class="cls-7" d="M177.53,120.48l1.27,9.57c.04.32.16.61.37.86.63.8.99,1.72,1.07,2.76.01.19.09.34.22.47.44.43.92.81,1.44,1.14.59.39,1.39.28,1.84-.27.75-.91,1.43-1.87,2.03-2.89.48-.81.85-1.77,1.1-2.87.23-1.02.53-2.02.9-2.99.39-1.05.94-1.6,1.65-1.65.28-.02.54-.14.73-.33l2.27-2.31c.24-.24.53-.37.87-.38.83-.04,1.56.13,2.21.5.27.15.55.19.84.12,2.15-.53,4.46-.21,6.93.94.96.45,1.47,1.1,1.54,1.97.06.77-.51,1.45-1.28,1.51-.4.03-.8-.11-1.09-.39-1.93-1.84-3.95-2.54-6.07-2.09-.33.07-.55.26-.65.58-.23.69-.44,1.37-.63,2.04-.15.52-.41,1.17-.78,1.96-.77,1.63-1.1,3.31-1.01,5.05.02.3-.07.58-.26.81-.45.55-.64,1.27-.58,2.16.1,1.34.19,2.72.26,4.14.1,1.81-.65,4.4.17,6.47.26.65.02,1.38-.56,1.76-1.61,1.02-3.32,1.44-5.13,1.26-1.76-.17-3.32-.53-4.69-1.08-.3-.13-.49-.03-.57.29l-1.26,5.46c.81-3.3.73-6.39-.22-9.27-1.05-3.19-2.57-5.88-4.57-8.07-.88-.97-.84-2.47.1-3.39.99-.97,1.52-2.13,1.58-3.47.09-2.07,1.07-4.04.59-6.09-.45-1.91-.66-3.34-.63-4.28Z"/>
      <path class="cls-7" d="M222.29,132.3c3.63,3.57,5.33,7.89,5.12,12.96l-3.58-.9c-.56-.14-1.13.2-1.27.76-.03.13-.04.27-.02.4.1.69.06,1.42-.12,2.19-.08.35-.3.48-.65.38-.59-.17-1.22-.69-1.89-1.58-.05-.06-.08-.13-.09-.2-.27-1.38-.76-2.7-1.47-3.96-.17-.29-.26-.6-.27-.93-.04-.74-.31-1.39-.81-1.96-.24-.27-.54-.4-.91-.37-1.83.12-3.44.78-4.84,1.98-.29.25-.62.38-1.01.37-1.42-.03-2.37-.75-2.84-2.15-.12-.36-.1-.71.06-1.05l3.15-6.73c.23-.49.81-.7,1.3-.48.03.01.06.03.09.05.57.34,1.05.8,1.43,1.39.16.26.44.41.74.41.53,0,1.02.15,1.46.46,2.85,1.99,4.99,1.65,6.42-1.04Z"/>
      <path class="cls-7" d="M1.05,135.24c-.21,1.14.25,1.65,1.38,1.53,1.51-.16,2.97-.28,4.36-.35,1-.06,1.85.71,1.91,1.7.01.24-.02.48-.1.71-.51,1.47-.31,2.8.6,3.98.21.26.36.55.45.87l.62,2.1c.16.55.73.86,1.28.7.33-.1.59-.35.69-.67l.93-2.89c.09-.29.29-.41.59-.37l3.61.48c.33.05.66,0,.97-.14.85-.37,1.6-.86,2.25-1.48.25-.24.55-.35.89-.33l4.77.33c.31.02.6-.04.87-.18l2.15-1.13c.29-.15.56-.35.79-.58.61-.61,1.33-.98,2.15-1.12,1.94-.34,3.34,1.59,4.8,2.52.21.13.35.32.42.57.08.31.25.55.51.74l2.36,1.73c.29.21.6.34.94.39,1.41.21,2.59.66,3.54,1.35.48.35.94.72,1.37,1.12,1.02.94,2.61.87,3.55-.15.07-.07.13-.15.18-.23,1.05-1.48,2.39-2.28,4-2.41.4-.03.72.11.97.43.42.55.59,1.17.52,1.87-.74-.56-1.52-.82-2.33-.78-.36.02-.67.15-.94.39-1.39,1.27-2.13,2.4-4.02,3.17-1.27.53-2.53,1.08-3.78,1.65-1.12.52-2.08,1.18-2.88,1.98-.89.89-1.98,1.36-3.27,1.42-.39.01-.7.35-.68.74,0,.07.02.15.04.22.19.55.22,1.11.07,1.68-.11.44-.04.86.19,1.25.77,1.25,1.65,2.46,2.64,3.65.55.67.95,1.41,1.19,2.21.23.76.48,1.53.76,2.3.13.36.35.66.66.9.83.64,1.33,1.4,1.5,2.29.03.2.14.34.33.41.74.31,1.06.9.95,1.75-.07.59.34,1.12.92,1.2.22.03.43-.01.63-.12,2.6-1.36,4.38-3.44,5.35-6.23.27-.76.1-1.61-.43-2.21-.71-.81-.68-1.59.08-2.35.68-.68,1.78-.68,2.46,0,.03.03.07.07.1.11.86,1.01,1.38,2.15,1.56,3.4.05.33.17.62.36.88.61.81.7,1.7.29,2.67-.15.35-.42.54-.8.57l-1.76.13c-.3.02-.58.18-.74.44-.47.75-.72,1.56-.75,2.41,0,.33.14.65.39.87,1.3,1.09,2.68,1.89,3.86,3.13.63.66,1.48.88,2.57.66.55-.11,1-.51,1.18-1.04,1.31-3.9,1.51-7.75.59-11.56-.29-1.16-.88-2.26-1.79-3.3-1.03-1.19-1.8-2.72-2.29-4.61-.51-1.97-.97-3.75-1.37-5.36-.36-1.41-.5-2.34-.42-2.79.53,2.21,1.14,4.41,1.83,6.58.53,1.67,1.38,3.11,2.55,4.3.23.24.38.52.45.85.07.33.25.59.55.76.28.16.5.38.67.66.93,1.61,1.81,3.22,3.35,4.37,1.17.88,1.77,2.08,3.03,2.87.46.29.91.57,1.36.85,1.36.85,2.05,2.1,2.06,3.75,0,1.72.27,2.69.54,4.17-.55-.65-1.07-1.3-1.58-1.93-.23-.29-.47-.44-.72-.47-.35-.05-.66.05-.91.3-.28.27-.41.61-.4,1.01.08,2.78-.94,5.14-3.05,7.08-.88.81-1.89,1.04-3.03.71-2.13-.63-4.2-.86-6.21-.69-.77.06-1.49-.38-1.78-1.1-.35-.86-.72-1.95-1.11-3.26-.2-.69-.91-1.31-2.14-1.85-.93-.42-1.91-.59-2.93-.5-2.66.21-4.68-.03-6.05-.73-1.34-.69-2.75-1.66-4.24-2.89-.53-.45-.78-.32-.77.37.03.9.19,1.88.48,2.95.19.68.61,1.17,1.25,1.47.73.35,1.66.62,2.79.82,1.03.18,1.69.48,1.99.91.45.63.5,1.48.15,2.53-3.31,1.34-6.89,1.77-10.74,1.28,1.01-.02,1.93-.41,2.75-1.17.32-.3.69-.41,1.12-.33.65.13,1.28.23,1.91.31,1.05.13,1.62-.28,1.71-1.25.03-.28-.07-.5-.3-.65-1.47-1.02-2.97-1.72-4.5-2.1-.33-.08-.6-.25-.82-.51-1.01-1.2-1.64-2.09-1.89-2.67-1.35-3.12.53-5.6,3.86-5.35.37.03.65.19.86.49l1.15,1.65c.19.29.46.48.79.58.9.29,1.75.67,2.56,1.15.48.28.87.42,1.18.41.71-.03,1.16-.47,1.35-1.33.05-.27.04-.55-.04-.81-.76-2.56-2.45-4.1-5.08-4.61-.89-.18-1.53-.96-1.54-1.87,0-1.83-.43-3.5-1.27-5.01-.53-.95-1.73-1.29-2.67-.77-.08.05-.16.1-.24.16-1.42,1.09-3.16,2.02-5,2.31-1.81.29-3.53.78-5.15,1.46-1.04.43-1.54,1.2-1.5,2.31.02.67.32,1.21.9,1.6,1.19.8,2.41,1.44,3.64,1.91.45.17.8.47,1.05.89.43.67.32,1.28-.32,1.82-.18.16-.32.36-.39.59l-.91,2.84c-.11.33-.32.57-.64.71l-3.71,1.7c-4.76-4.85-6.66-10.78-5.69-17.8.05-.33-.09-.53-.41-.61-11.08-2.82-17.42-13.3-14.89-24.44Z"/>
      <path class="cls-8" d="M55.37,146.33l.42,2.13c-.08.45.06,1.38.42,2.79.4,1.61.86,3.39,1.37,5.36.49,1.89,1.26,3.42,2.29,4.61.91,1.04,1.5,2.14,1.79,3.3.92,3.81.72,7.66-.59,11.56-.18.53-.63.93-1.18,1.04-1.09.22-1.94,0-2.57-.66-1.18-1.24-2.56-2.04-3.86-3.13-.25-.22-.4-.54-.39-.87.03-.85.28-1.66.75-2.41.16-.26.44-.42.74-.44l1.76-.13c.38-.03.65-.22.8-.57.41-.97.32-1.86-.29-2.67-.19-.26-.31-.55-.36-.88-.18-1.25-.7-2.39-1.56-3.4-.62-.73-1.72-.83-2.45-.21-.04.03-.07.06-.11.1-.76.76-.79,1.54-.08,2.35.53.6.7,1.45.43,2.21-.97,2.79-2.75,4.87-5.35,6.23-.52.28-1.16.08-1.43-.45-.1-.19-.14-.41-.12-.63.11-.85-.21-1.44-.95-1.75-.19-.07-.3-.21-.33-.41-.17-.89-.67-1.65-1.5-2.29-.31-.24-.53-.54-.66-.9-.28-.77-.53-1.54-.76-2.3-.24-.8-.64-1.54-1.19-2.21-.99-1.19-1.87-2.4-2.64-3.65-.23-.39-.3-.81-.19-1.25.15-.57.12-1.13-.07-1.68-.13-.37.06-.79.43-.92.07-.02.14-.04.21-.04,1.29-.06,2.38-.53,3.27-1.42.8-.8,1.76-1.46,2.88-1.98,1.25-.57,2.51-1.12,3.78-1.65,1.89-.77,2.63-1.9,4.02-3.17.27-.24.58-.37.94-.39.81-.04,1.59.22,2.33.78Z"/>
      <path class="cls-9" d="M33.18,183.63c-4.27-.63-7.99-2.47-11.14-5.54l3.71-1.7c.32-.14.53-.38.64-.71l.91-2.84c.07-.23.21-.43.39-.59.64-.54.75-1.15.32-1.82-.25-.42-.6-.72-1.05-.89-1.23-.47-2.45-1.11-3.64-1.91-.58-.39-.88-.93-.9-1.6-.04-1.11.46-1.88,1.5-2.31,1.62-.68,3.34-1.17,5.15-1.46,1.84-.29,3.58-1.22,5-2.31.86-.66,2.09-.49,2.75.37.06.08.11.16.16.24.84,1.51,1.26,3.18,1.27,5.01,0,.91.65,1.69,1.54,1.87,2.63.51,4.32,2.05,5.08,4.61.08.26.09.54.04.81-.19.86-.64,1.3-1.35,1.33-.31,0-.7-.13-1.18-.41-.81-.48-1.66-.86-2.56-1.15-.33-.1-.6-.29-.79-.58l-1.15-1.65c-.21-.3-.49-.46-.86-.49-3.33-.25-5.21,2.23-3.86,5.35.25.58.88,1.47,1.89,2.67.22.26.49.43.82.51,1.53.38,3.03,1.08,4.5,2.1.23.15.33.37.3.65-.09.97-.66,1.38-1.71,1.25-.63-.08-1.26-.18-1.91-.31-.43-.08-.8.03-1.12.33-.82.76-1.74,1.15-2.75,1.17Z"/>
      <path class="cls-8" d="M72.18,177.62l2.41,5.19c-8.37,7.71-20.85,7.44-28.81-.78-.23-.24-.49-.29-.79-.16l-1.07.48c.35-1.05.3-1.9-.15-2.53-.3-.43-.96-.73-1.99-.91-1.13-.2-2.06-.47-2.79-.82-.64-.3-1.06-.79-1.25-1.47-.29-1.07-.45-2.05-.48-2.95-.01-.69.24-.82.77-.37,1.49,1.23,2.9,2.2,4.24,2.89,1.37.7,3.39.94,6.05.73,1.02-.09,2,.08,2.93.5,1.23.54,1.94,1.16,2.14,1.85.39,1.31.76,2.4,1.11,3.26.29.72,1.01,1.16,1.78,1.1,2.01-.17,4.08.06,6.21.69,1.14.33,2.15.1,3.03-.71,2.11-1.94,3.13-4.3,3.05-7.08-.01-.4.12-.74.4-1.01.25-.25.56-.35.91-.3.25.03.49.18.72.47.51.63,1.03,1.28,1.58,1.93Z"/>
      <path class="cls-6" d="M164.55,177.81c1.37.43,2.59,1.1,3.65,2.02-2.22,17.33-16.71,26.94-32.99,29.15-.33.05-.5.24-.51.57-.05,1.43-.04,2.83.05,4.2.68,11.17.23,21.51,1.01,33.86.37,5.92,1.29,11.26,2.75,16.01.64,2.08,1.95,4.49,4.51,4.5.49,0,.52.1.07.31-.45.21-.89.22-1.32,0-.28-.13-.57-.2-.87-.2h-32.44c-1.04,0-1.1-.24-.19-.75,5.09-2.81,6.68-21.57,7.04-26.98.63-9.51,1.08-19.36,1.33-29.56.01-.42-.32-.77-.74-.79-15.15-.61-30.47-6.31-36.3-21.47,5.25,3.11,10.86,4.11,16.81,3.02,5.64,5.32,12.27,8.05,19.9,8.18.35,0,.53-.16.55-.51l.15-2.63c3.91-.03,7.07-1,9.49-2.91,1.86-1.47,4.09-3.28,6.69-5.42.25-.2.59-.23.86-.07l1.43.87-.6,8.88c-.02.28.19.53.48.55.04,0,.08,0,.12,0,6.19-.96,11.26-3.54,15.21-7.75,4.65-1.45,8.26-3.96,10.83-7.54.6-.85,1.61-2.69,3.03-5.54Z"/>
    </g>
  </g>
</svg>